<?xml version="1.0" encoding="UTF-8" standalone="no"?>
<!DOCTYPE svg PUBLIC "-//W3C//DTD SVG 1.1//EN" "http://www.w3.org/Graphics/SVG/1.1/DTD/svg11.dtd">
<svg width="100%" height="100%" viewBox="0 0 834 232" version="1.1" xmlns="http://www.w3.org/2000/svg" xmlns:xlink="http://www.w3.org/1999/xlink" xml:space="preserve" xmlns:serif="http://www.serif.com/" style="fill-rule:evenodd;clip-rule:evenodd;stroke-linejoin:round;stroke-miterlimit:2;">
    <g transform="matrix(1,0,0,1,-121.911823,-5835.811629)">
        <g transform="matrix(0.872545,0,0,0.872545,68.825876,701.325096)">
            <g transform="matrix(6.617871,0,0,6.617871,-1567.490848,2228.081946)">
                <g transform="matrix(19.462451,0,0,19.462451,374.714727,567.420882)">
                </g>
                <text x="260.999px" y="567.421px" style="font-family:'SugoProClassicTrial-Regular', 'Sugo Pro Classic Trial';font-size:19.462px;">A NOITE EM QUE A</text>
                <path d="M269.868,566.833L269.869,566.837C269.898,566.953 269.913,567.057 269.918,567.15L269.902,567.448L269.811,567.746L269.613,568.048L269.227,568.329L268.995,568.407L268.697,568.439L266.729,568.439L266.321,568.384L265.933,568.213L265.679,568.005L265.49,567.744L265.378,567.473L265.328,567.22L265.333,567.264L265.221,566.539L264.841,566.539L264.734,567.258L264.731,567.275L264.554,567.77L264.369,568.014L264.124,568.213L263.747,568.382L263.337,568.439L261.37,568.439L261.071,568.407L260.839,568.33L260.453,568.053L260.253,567.753L260.158,567.454L260.139,567.152C260.143,567.056 260.158,566.947 260.187,566.829L262.815,554.391C262.819,554.376 262.822,554.362 262.826,554.347C262.872,554.168 262.939,554.018 263.017,553.892L263.267,553.594L263.477,553.439L263.713,553.329L264.183,553.25L265.874,553.25L266.339,553.326L266.787,553.585L267.043,553.884C267.125,554.012 267.194,554.165 267.241,554.347C267.244,554.362 267.248,554.377 267.251,554.391L269.868,566.833ZM268.877,567.069L266.254,554.601C266.197,554.379 266.071,554.269 265.874,554.269L264.183,554.269C263.993,554.269 263.869,554.379 263.812,554.601L261.18,567.06C261.116,567.301 261.18,567.421 261.37,567.421L263.337,567.421C263.426,567.421 263.508,567.397 263.584,567.35C263.66,567.302 263.707,567.221 263.726,567.107L263.964,565.52L266.093,565.52L266.34,567.107C266.352,567.221 266.397,567.302 266.473,567.35C266.549,567.397 266.634,567.421 266.729,567.421L268.697,567.421C268.88,567.421 268.941,567.304 268.877,567.069ZM264.278,563.506L264.924,559.286L265.028,558.174L265.133,559.286L265.779,563.506L264.278,563.506ZM321.991,553.577L322.059,553.509L322.327,553.353L322.599,553.272L322.846,553.25L325.298,553.25L325.652,553.293L325.942,553.407L326.194,553.593L326.397,553.859C326.462,553.976 326.529,554.139 326.581,554.357L327.361,557.392L328.148,554.357C328.2,554.14 328.268,553.976 328.332,553.859L328.536,553.593L328.787,553.407L329.078,553.293L329.432,553.25L331.884,553.25L332.299,553.315L332.727,553.561L332.923,553.78L333.052,554.014C333.12,554.172 333.168,554.373 333.168,554.619L333.178,567.059L333.178,567.06C333.178,567.311 333.128,567.514 333.059,567.675L332.928,567.91L332.73,568.13L332.3,568.374L331.884,568.439L330.04,568.439L329.624,568.374L329.194,568.13L328.995,567.91L328.864,567.675C328.795,567.514 328.746,567.311 328.746,567.06L328.746,567.054L328.75,566.366L328.611,566.441L328.369,566.512C328.283,566.528 328.185,566.539 328.073,566.539L326.657,566.539C326.544,566.539 326.445,566.528 326.359,566.511L326.111,566.437L325.981,566.364L325.984,567.056L325.984,567.06C325.984,567.311 325.935,567.514 325.866,567.675L325.734,567.91L325.536,568.13L325.106,568.374L324.69,568.439L322.837,568.439L322.414,568.371L322.189,568.269L322.011,568.139L321.907,568.225L321.67,568.348L321.183,568.439L315.32,568.439L315.036,568.413L314.72,568.312L314.321,568.021L314.07,567.618L313.989,567.323C313.976,567.243 313.968,567.155 313.968,567.06L313.968,554.639L314.037,554.179L314.141,553.935L314.299,553.705L314.527,553.496L314.796,553.349L315.068,553.271L315.32,553.25L321.136,553.25L321.383,553.272L321.655,553.353L321.923,553.509L321.991,553.577ZM321.552,559.242L321.552,557.525L321.378,557.575L321.136,557.596L318.609,557.596L318.609,558.61L320.413,558.61L320.864,558.683L321.293,558.925L321.486,559.13L321.552,559.242ZM321.552,564.181L321.552,562.301L321.499,562.394L321.318,562.594L321.1,562.751L320.864,562.856L320.413,562.928L318.609,562.928L318.609,564.112L321.183,564.112L321.552,564.181ZM332.159,567.06L332.15,554.62C332.15,554.386 332.061,554.269 331.884,554.269L329.432,554.269C329.324,554.269 329.254,554.297 329.223,554.354C329.191,554.411 329.163,554.493 329.137,554.601L327.436,561.158L327.351,561.662L327.275,561.149L325.593,554.601C325.567,554.493 325.539,554.411 325.507,554.354C325.475,554.297 325.406,554.269 325.298,554.269L322.846,554.269C322.662,554.269 322.571,554.386 322.571,554.62L322.571,567.06C322.571,567.301 322.659,567.421 322.837,567.421L324.69,567.421C324.873,567.421 324.965,567.301 324.965,567.06L324.937,559.818L324.889,559.248L326.334,565.197C326.372,565.324 326.408,565.409 326.443,565.454C326.478,565.498 326.549,565.52 326.657,565.52L328.073,565.52C328.181,565.52 328.253,565.498 328.291,565.454C328.329,565.409 328.364,565.324 328.396,565.197L329.84,559.22L329.859,559.096L329.802,559.818L329.764,567.06C329.764,567.301 329.856,567.421 330.04,567.421L331.884,567.421C332.067,567.421 332.159,567.301 332.159,567.06ZM314.987,554.639L314.987,567.06C314.987,567.301 315.098,567.421 315.32,567.421L321.183,567.421C321.265,567.421 321.333,567.394 321.387,567.34C321.441,567.286 321.468,567.202 321.468,567.088L321.468,565.454C321.468,565.346 321.441,565.265 321.387,565.211C321.333,565.158 321.265,565.131 321.183,565.131L317.591,565.131L317.591,561.909L320.413,561.909C320.508,561.909 320.584,561.884 320.641,561.833C320.698,561.782 320.727,561.7 320.727,561.586L320.727,559.961C320.727,559.841 320.697,559.755 320.637,559.704C320.576,559.654 320.502,559.628 320.413,559.628L317.591,559.628L317.591,556.578L321.136,556.578C321.319,556.578 321.411,556.464 321.411,556.236L321.411,554.62C321.411,554.386 321.319,554.269 321.136,554.269L315.32,554.269C315.212,554.269 315.13,554.302 315.072,554.368C315.015,554.435 314.987,554.525 314.987,554.639ZM375.525,566.833L375.526,566.837C375.555,566.953 375.57,567.057 375.575,567.15L375.559,567.448L375.468,567.746L375.27,568.048L374.884,568.329L374.652,568.407L374.354,568.439L372.386,568.439L371.978,568.384L371.59,568.213L371.336,568.005L371.147,567.744L371.035,567.473L370.985,567.22L370.99,567.264L370.878,566.539L370.498,566.539L370.391,567.258L370.388,567.275L370.211,567.77L370.026,568.014L369.781,568.213L369.404,568.382L368.994,568.439L367.027,568.439L366.728,568.407L366.496,568.33L366.11,568.053L365.91,567.753L365.815,567.454L365.796,567.152C365.8,567.056 365.815,566.947 365.844,566.829L368.472,554.391C368.476,554.376 368.479,554.362 368.483,554.347C368.529,554.168 368.596,554.018 368.674,553.892L368.924,553.594L369.134,553.439L369.37,553.329L369.84,553.25L371.531,553.25L371.996,553.326L372.444,553.585L372.7,553.884C372.782,554.012 372.851,554.165 372.898,554.347C372.901,554.362 372.905,554.377 372.908,554.391L375.525,566.833ZM374.534,567.069L371.911,554.601C371.854,554.379 371.728,554.269 371.531,554.269L369.84,554.269C369.65,554.269 369.526,554.379 369.469,554.601L366.837,567.06C366.773,567.301 366.837,567.421 367.027,567.421L368.994,567.421C369.083,567.421 369.165,567.397 369.241,567.35C369.317,567.302 369.364,567.221 369.383,567.107L369.621,565.52L371.75,565.52L371.997,567.107C372.009,567.221 372.054,567.302 372.13,567.35C372.206,567.397 372.291,567.421 372.386,567.421L374.354,567.421C374.537,567.421 374.598,567.304 374.534,567.069ZM369.935,563.506L370.581,559.286L370.685,558.174L370.79,559.286L371.436,563.506L369.935,563.506ZM278.327,555.676L278.312,554.654L278.312,554.639L278.378,554.197L278.592,553.772L278.78,553.569L279.006,553.413L279.357,553.283L279.673,553.25L281.431,553.25L281.877,553.326L282.249,553.521L282.477,553.737L282.633,553.982L282.732,554.265C282.757,554.371 282.773,554.492 282.773,554.63L282.773,555.044C282.986,554.716 283.241,554.424 283.538,554.17C283.968,553.802 284.463,553.52 285.027,553.328C285.568,553.144 286.14,553.05 286.743,553.05C287.345,553.05 287.918,553.144 288.462,553.327C289.029,553.519 289.525,553.799 289.953,554.162C290.255,554.417 290.515,554.712 290.733,555.046L290.733,554.639L290.802,554.179L290.905,553.935L291.064,553.705L291.292,553.496L291.56,553.349L291.833,553.271L292.084,553.25L294.032,553.25L294.285,553.272L294.561,553.352L294.788,553.48L295.002,553.356L295.271,553.274L295.524,553.25L301.739,553.25L301.998,553.275L302.264,553.359L302.465,553.477L302.698,553.349L302.97,553.271L303.222,553.25L309.038,553.25L309.285,553.272L309.557,553.353L309.825,553.509L310.046,553.728L310.254,554.116C310.301,554.255 310.332,554.422 310.332,554.62L310.332,556.236C310.332,556.435 310.3,556.603 310.251,556.743L310.038,557.131L309.814,557.347L309.548,557.498L309.28,557.575L309.038,557.596L306.512,557.596L306.512,558.61L308.316,558.61L308.766,558.683L309.195,558.925L309.388,559.13L309.522,559.356L309.611,559.619L309.648,559.961L309.648,561.586L309.612,561.92L309.527,562.175L309.401,562.394L309.22,562.594L309.003,562.751L308.766,562.856L308.316,562.928L306.512,562.928L306.512,564.112L309.085,564.112L309.573,564.204L309.809,564.327L310.01,564.491L310.278,564.888L310.366,565.187L310.389,565.454L310.389,567.088C310.389,567.206 310.377,567.313 310.357,567.409L310.282,567.651L310.01,568.06L309.809,568.225L309.573,568.348L309.085,568.439L303.222,568.439L302.938,568.413L302.623,568.312L302.223,568.021L301.972,567.618L301.891,567.323C301.878,567.243 301.871,567.155 301.871,567.06L301.871,557.584L301.739,557.596L300.952,557.596L300.952,567.088L300.93,567.354L300.844,567.648L300.593,568.035L300.406,568.199L300.173,568.332L299.915,568.414L299.658,568.439L297.606,568.439L297.105,568.345L296.84,568.199L296.615,567.988L296.395,567.599L296.311,567.088L296.311,557.596L295.524,557.596L295.374,557.567L295.374,567.06C295.374,567.153 295.367,567.239 295.354,567.319L295.277,567.609L295.034,568.01L294.637,568.307L294.319,568.412L294.032,568.439L292.084,568.439L291.8,568.413L291.485,568.312L291.085,568.021L290.834,567.618L290.754,567.323C290.741,567.243 290.733,567.155 290.733,567.06L290.733,566.644C290.517,566.977 290.258,567.272 289.958,567.529C289.528,567.897 289.03,568.179 288.462,568.371C287.918,568.555 287.345,568.648 286.743,568.648C286.136,568.648 285.56,568.55 285.015,568.357C284.456,568.158 283.964,567.875 283.538,567.51C283.241,567.255 282.986,566.965 282.773,566.638L282.773,567.06C282.773,567.16 282.764,567.252 282.749,567.337L282.658,567.645L282.384,568.051L281.978,568.325L281.67,568.416C281.585,568.431 281.493,568.439 281.393,568.439L279.625,568.439C279.369,568.439 279.116,568.377 278.869,568.24L278.645,568.085L278.457,567.89L278.218,567.456L278.215,567.446L277.791,566.207L277.802,567.027C277.807,567.141 277.8,567.246 277.784,567.34L277.719,567.593L277.459,568.021L277.263,568.193L277.047,568.317L276.792,568.402L276.451,568.439L274.693,568.439L274.409,568.413L274.094,568.312L273.695,568.021L273.443,567.618L273.363,567.323C273.35,567.243 273.342,567.155 273.342,567.06L273.342,554.639L273.411,554.179L273.515,553.935L273.673,553.705L273.901,553.496L274.169,553.349L274.442,553.271L274.693,553.25L276.48,553.25C276.506,553.25 276.532,553.251 276.558,553.253L276.946,553.336C277.06,553.377 277.173,553.433 277.282,553.507L277.644,553.856C277.725,553.969 277.795,554.1 277.849,554.253L277.854,554.267L278.327,555.676ZM283.123,557.367L283.123,564.332C283.123,564.839 283.219,565.295 283.412,565.701C283.606,566.106 283.869,566.452 284.201,566.737C284.534,567.022 284.919,567.242 285.356,567.397C285.793,567.552 286.255,567.63 286.743,567.63C287.231,567.63 287.695,567.556 288.135,567.407C288.576,567.258 288.962,567.041 289.295,566.756C289.627,566.471 289.892,566.124 290.088,565.715C290.285,565.306 290.383,564.846 290.383,564.332L290.383,557.367C290.383,556.847 290.285,556.383 290.088,555.974C289.892,555.566 289.627,555.22 289.295,554.938C288.962,554.657 288.576,554.441 288.135,554.292C287.695,554.143 287.231,554.069 286.743,554.069C286.255,554.069 285.793,554.143 285.356,554.292C284.919,554.441 284.534,554.658 284.201,554.943C283.869,555.228 283.606,555.575 283.412,555.984C283.219,556.392 283.123,556.853 283.123,557.367ZM285.726,564.199L285.726,557.509C285.726,557.357 285.75,557.211 285.798,557.072C285.845,556.933 285.913,556.809 286.002,556.701C286.091,556.594 286.198,556.508 286.325,556.445C286.452,556.381 286.598,556.35 286.762,556.35C286.921,556.35 287.063,556.381 287.19,556.445C287.317,556.508 287.424,556.594 287.513,556.701C287.602,556.809 287.668,556.933 287.713,557.072C287.757,557.211 287.779,557.357 287.779,557.509L287.779,564.256C287.779,564.56 287.69,564.817 287.513,565.026C287.336,565.235 287.079,565.34 286.743,565.34C286.579,565.34 286.433,565.308 286.306,565.245C286.179,565.181 286.073,565.097 285.988,564.993C285.902,564.888 285.837,564.768 285.793,564.632C285.749,564.495 285.726,564.351 285.726,564.199ZM286.754,557.428C286.748,557.454 286.745,557.481 286.745,557.509L286.745,564.199C286.745,564.237 286.749,564.274 286.759,564.308C286.761,564.292 286.761,564.274 286.761,564.256L286.761,557.509C286.761,557.482 286.758,557.455 286.754,557.428ZM274.361,554.639L274.361,567.06C274.361,567.301 274.471,567.421 274.693,567.421L276.451,567.421C276.686,567.421 276.797,567.301 276.784,567.06L276.698,560.455L276.641,559.505L276.888,560.417L279.179,567.117C279.217,567.224 279.278,567.302 279.364,567.35C279.45,567.397 279.537,567.421 279.625,567.421L281.393,567.421C281.634,567.421 281.754,567.301 281.754,567.06L281.754,554.63C281.754,554.49 281.719,554.395 281.65,554.345C281.58,554.294 281.507,554.269 281.431,554.269L279.673,554.269C279.552,554.269 279.465,554.305 279.412,554.378C279.358,554.451 279.331,554.538 279.331,554.639L279.435,561.7L279.483,562.698L279.245,561.605L276.888,554.592C276.85,554.484 276.793,554.405 276.717,554.354C276.641,554.303 276.562,554.275 276.48,554.269L274.693,554.269C274.586,554.269 274.503,554.302 274.446,554.368C274.389,554.435 274.361,554.525 274.361,554.639ZM291.752,554.639L291.752,567.06C291.752,567.301 291.862,567.421 292.084,567.421L294.032,567.421C294.248,567.421 294.355,567.301 294.355,567.06L294.355,554.639C294.355,554.525 294.328,554.435 294.275,554.368C294.221,554.302 294.14,554.269 294.032,554.269L292.084,554.269C291.976,554.269 291.894,554.302 291.837,554.368C291.78,554.435 291.752,554.525 291.752,554.639ZM302.889,554.639L302.889,567.06C302.889,567.301 303,567.421 303.222,567.421L309.085,567.421C309.168,567.421 309.236,567.394 309.29,567.34C309.344,567.286 309.37,567.202 309.37,567.088L309.37,565.454C309.37,565.346 309.344,565.265 309.29,565.211C309.236,565.158 309.168,565.131 309.085,565.131L305.493,565.131L305.493,561.909L308.316,561.909C308.411,561.909 308.487,561.884 308.544,561.833C308.601,561.782 308.629,561.7 308.629,561.586L308.629,559.961C308.629,559.841 308.599,559.755 308.539,559.704C308.479,559.654 308.404,559.628 308.316,559.628L305.493,559.628L305.493,556.578L309.038,556.578C309.222,556.578 309.313,556.464 309.313,556.236L309.313,554.62C309.313,554.386 309.222,554.269 309.038,554.269L303.222,554.269C303.114,554.269 303.032,554.302 302.975,554.368C302.918,554.435 302.889,554.525 302.889,554.639ZM295.239,554.62L295.239,556.236C295.239,556.35 295.265,556.435 295.315,556.492C295.366,556.549 295.436,556.578 295.524,556.578L297.33,556.578L297.33,567.088C297.33,567.31 297.422,567.421 297.606,567.421L299.658,567.421C299.734,567.421 299.799,567.392 299.853,567.335C299.907,567.278 299.934,567.196 299.934,567.088L299.934,556.578L301.739,556.578C301.822,556.578 301.89,556.549 301.944,556.492C301.998,556.435 302.024,556.35 302.024,556.236L302.024,554.62C302.024,554.506 301.998,554.419 301.944,554.359C301.89,554.299 301.822,554.269 301.739,554.269L295.524,554.269C295.436,554.269 295.366,554.299 295.315,554.359C295.265,554.419 295.239,554.506 295.239,554.62ZM345.567,554.92L345.567,554.639L345.632,554.197L345.847,553.772L346.099,553.511L346.346,553.361L346.592,553.278L346.851,553.25L348.904,553.25L349.307,553.308L349.617,553.45L349.857,553.652L350.035,553.907C350.142,554.112 350.208,554.354 350.208,554.639L350.208,564.19C350.208,564.216 350.21,564.24 350.215,564.264C350.221,564.24 350.223,564.216 350.223,564.19L350.223,554.649L350.293,554.194L350.512,553.771L350.72,553.552L350.989,553.379L351.283,553.279L351.565,553.25L353.542,553.25L353.829,553.28L354.143,553.391L354.434,553.597L354.596,553.798L354.659,553.705L354.887,553.496L355.156,553.349L355.428,553.271L355.68,553.25L361.496,553.25L361.743,553.272L362.015,553.353L362.283,553.509L362.504,553.728L362.712,554.116C362.759,554.255 362.79,554.422 362.79,554.62L362.79,556.236C362.79,556.435 362.757,556.603 362.709,556.743L362.496,557.131L362.272,557.347L362.006,557.498L361.738,557.575L361.496,557.596L358.97,557.596L358.97,558.61L360.773,558.61L361.224,558.683L361.653,558.925L361.846,559.13L361.98,559.356L362.069,559.619L362.106,559.961L362.106,561.586L362.07,561.92L361.985,562.175L361.859,562.394L361.678,562.594L361.461,562.751L361.224,562.856L360.773,562.928L358.97,562.928L358.97,564.112L361.543,564.112L362.031,564.204L362.267,564.327L362.468,564.491L362.735,564.888L362.824,565.187L362.847,565.454L362.847,567.088C362.847,567.206 362.835,567.313 362.815,567.409L362.74,567.651L362.468,568.06L362.267,568.225L362.031,568.348L361.543,568.439L355.68,568.439L355.396,568.413L355.08,568.312L354.681,568.021L354.43,567.618L354.349,567.323C354.336,567.243 354.329,567.155 354.329,567.06L354.329,566.321C354.093,566.731 353.798,567.098 353.441,567.421C353.018,567.803 352.53,568.104 351.974,568.322C351.42,568.539 350.834,568.648 350.215,568.648C349.597,568.648 349.011,568.539 348.457,568.322C347.901,568.104 347.413,567.803 346.99,567.421C346.561,567.032 346.22,566.581 345.966,566.066C345.81,566.42 345.611,566.74 345.372,567.028C345.08,567.378 344.734,567.677 344.334,567.923C344.172,568.022 344.004,568.112 343.831,568.191L343.831,568.941C343.831,569.055 343.82,569.158 343.802,569.25L343.734,569.484L343.478,569.891L343.273,570.067L343.031,570.198L342.537,570.293L340.798,570.293L340.304,570.198L340.061,570.067L339.856,569.891L339.601,569.484L339.533,569.25C339.515,569.158 339.504,569.055 339.504,568.941L339.504,568.189C339.328,568.108 339.158,568.017 338.994,567.914C338.595,567.664 338.25,567.362 337.959,567.009C337.664,566.651 337.433,566.245 337.269,565.79C337.107,565.341 337.023,564.856 337.023,564.332L337.023,557.367C337.023,556.691 337.157,556.086 337.411,555.548C337.667,555.007 338.017,554.548 338.458,554.17C338.887,553.802 339.383,553.52 339.947,553.328C340.487,553.144 341.059,553.05 341.663,553.05C342.265,553.05 342.837,553.144 343.381,553.327C343.948,553.519 344.444,553.799 344.873,554.162C345.136,554.385 345.367,554.637 345.567,554.92ZM355.347,554.639L355.347,567.06C355.347,567.301 355.458,567.421 355.68,567.421L361.543,567.421C361.626,567.421 361.694,567.394 361.748,567.34C361.801,567.286 361.828,567.202 361.828,567.088L361.828,565.454C361.828,565.346 361.801,565.265 361.748,565.211C361.694,565.158 361.626,565.131 361.543,565.131L357.951,565.131L357.951,561.909L360.773,561.909C360.869,561.909 360.945,561.884 361.002,561.833C361.059,561.782 361.087,561.7 361.087,561.586L361.087,559.961C361.087,559.841 361.057,559.755 360.997,559.704C360.937,559.654 360.862,559.628 360.773,559.628L357.951,559.628L357.951,556.578L361.496,556.578C361.679,556.578 361.771,556.464 361.771,556.236L361.771,554.62C361.771,554.386 361.679,554.269 361.496,554.269L355.68,554.269C355.572,554.269 355.49,554.302 355.433,554.368C355.376,554.435 355.347,554.525 355.347,554.639ZM338.042,557.367L338.042,564.332C338.042,564.731 338.104,565.102 338.227,565.444C338.351,565.786 338.523,566.092 338.745,566.361C338.967,566.631 339.23,566.86 339.534,567.05C339.838,567.24 340.167,567.383 340.522,567.478L340.522,568.941C340.522,569.055 340.547,569.139 340.598,569.193C340.649,569.247 340.715,569.274 340.798,569.274L342.537,569.274C342.619,569.274 342.686,569.247 342.736,569.193C342.787,569.139 342.812,569.055 342.812,568.941L342.812,567.478C343.167,567.383 343.497,567.242 343.801,567.055C344.105,566.868 344.368,566.642 344.589,566.376C344.811,566.109 344.985,565.805 345.112,565.463C345.239,565.121 345.302,564.744 345.302,564.332L345.302,557.367C345.302,556.847 345.204,556.383 345.008,555.974C344.811,555.566 344.547,555.22 344.214,554.938C343.881,554.657 343.495,554.441 343.055,554.292C342.614,554.143 342.15,554.069 341.663,554.069C341.175,554.069 340.712,554.143 340.275,554.292C339.838,554.441 339.453,554.658 339.12,554.943C338.788,555.228 338.525,555.575 338.332,555.984C338.138,556.392 338.042,556.853 338.042,557.367ZM340.646,564.199L340.646,557.509C340.646,557.357 340.669,557.211 340.717,557.072C340.764,556.933 340.833,556.809 340.921,556.701C341.01,556.594 341.118,556.508 341.244,556.445C341.371,556.381 341.517,556.35 341.682,556.35C341.84,556.35 341.982,556.381 342.109,556.445C342.236,556.508 342.344,556.594 342.432,556.701C342.521,556.809 342.587,556.933 342.632,557.072C342.676,557.211 342.698,557.357 342.698,557.509L342.698,564.256C342.698,564.56 342.61,564.817 342.432,565.026C342.255,565.235 341.998,565.34 341.663,565.34C341.498,565.34 341.352,565.308 341.225,565.245C341.099,565.181 340.993,565.097 340.907,564.993C340.821,564.888 340.757,564.768 340.712,564.632C340.668,564.495 340.646,564.351 340.646,564.199ZM341.673,557.428C341.667,557.454 341.664,557.481 341.664,557.509L341.664,564.199C341.664,564.237 341.668,564.274 341.678,564.308C341.68,564.292 341.68,564.274 341.68,564.256L341.68,557.509C341.68,557.482 341.678,557.455 341.673,557.428ZM349.189,564.19L349.189,554.639C349.189,554.538 349.17,554.451 349.132,554.378C349.094,554.305 349.018,554.269 348.904,554.269L346.851,554.269C346.782,554.269 346.72,554.305 346.666,554.378C346.612,554.451 346.585,554.538 346.585,554.639L346.585,564.332C346.585,564.789 346.683,565.216 346.88,565.615C347.076,566.014 347.341,566.364 347.673,566.665C348.006,566.966 348.391,567.202 348.828,567.373C349.265,567.544 349.728,567.63 350.215,567.63C350.703,567.63 351.166,567.544 351.603,567.373C352.04,567.202 352.425,566.966 352.758,566.665C353.09,566.364 353.355,566.014 353.551,565.615C353.747,565.216 353.846,564.789 353.846,564.332L353.846,554.649C353.846,554.554 353.822,554.467 353.774,554.387C353.727,554.308 353.649,554.269 353.542,554.269L351.565,554.269C351.463,554.269 351.384,554.307 351.327,554.383C351.27,554.459 351.242,554.547 351.242,554.649L351.242,564.19C351.242,564.342 351.218,564.486 351.17,564.622C351.123,564.758 351.056,564.88 350.971,564.988C350.885,565.096 350.778,565.181 350.648,565.245C350.518,565.308 350.374,565.34 350.215,565.34C350.057,565.34 349.914,565.308 349.788,565.245C349.661,565.181 349.553,565.096 349.465,564.988C349.376,564.88 349.308,564.758 349.26,564.622C349.213,564.486 349.189,564.342 349.189,564.19Z"/>
            </g>
            <g transform="matrix(6.617871,0,0,6.617871,-1559.584813,2218.375789)">
                <g transform="matrix(19.462451,0,0,19.462451,374.714727,567.420882)">
                </g>
                <text x="260.999px" y="567.421px" style="font-family:'SugoProClassicTrial-Regular', 'Sugo Pro Classic Trial';font-size:19.462px;fill:rgb(255,242,0);stroke:black;stroke-width:0.19px;">A NOITE EM QUE A</text>
            </g>
        </g>
        <g transform="matrix(0.70417,0,0,0.70417,15.102052,5542.492708)">
            <g transform="matrix(11.46877,0,0,11.46877,-2841.332222,-5769.698898)">
                <g transform="matrix(19.462451,0,0,19.462451,363.177772,567.420882)">
                </g>
                <text x="260.999px" y="567.421px" style="font-family:'SugoProClassicTrial-Bold', 'Sugo Pro Classic Trial';font-weight:700;font-size:19.462px;">RU<tspan x="277.981px " y="567.421px ">A</tspan> VIR<tspan x="312.478px " y="567.421px ">A</tspan> FEST<tspan x="354.92px " y="567.421px ">A</tspan></text>
                <path d="M363.602,566.941L363.603,566.942C363.633,567.061 363.643,567.164 363.641,567.25L363.59,567.506L363.503,567.657L363.374,567.781L363.198,567.869L362.959,567.905L360.241,567.905C359.998,567.905 359.8,567.837 359.642,567.722L359.503,567.592L359.398,567.435L359.334,567.267C359.32,567.215 359.309,567.159 359.303,567.1L359.225,566.337L358.867,566.337L358.794,567.096L358.794,567.098C358.788,567.159 358.778,567.215 358.763,567.267L358.699,567.435L358.595,567.592L358.455,567.722C358.297,567.837 358.099,567.905 357.856,567.905L355.138,567.905L354.892,567.866L354.714,567.772L354.587,567.645L354.505,567.494C354.455,567.363 354.434,567.173 354.494,566.926L356.972,554.554C356.974,554.546 356.976,554.539 356.977,554.531C357.033,554.308 357.127,554.142 357.239,554.025L357.385,553.905L357.549,553.827C357.642,553.794 357.751,553.775 357.875,553.775L360.222,553.775C360.347,553.775 360.455,553.794 360.549,553.827L360.712,553.905L360.858,554.025C360.97,554.142 361.064,554.308 361.12,554.531C361.122,554.539 361.123,554.546 361.125,554.554L363.602,566.941ZM363.13,567.05L360.65,554.649C360.618,554.522 360.571,554.425 360.507,554.359C360.444,554.292 360.349,554.259 360.222,554.259L357.875,554.259C357.748,554.259 357.653,554.292 357.59,554.359C357.527,554.425 357.479,554.522 357.447,554.649L354.967,567.031C354.935,567.158 354.932,567.255 354.958,567.321C354.983,567.388 355.043,567.421 355.138,567.421L357.856,567.421C357.983,567.421 358.087,567.391 358.17,567.331C358.252,567.27 358.299,567.177 358.312,567.05L358.426,565.853L359.662,565.853L359.785,567.05C359.798,567.177 359.845,567.27 359.928,567.331C360.01,567.391 360.115,567.421 360.241,567.421L362.959,567.421C363.054,567.421 363.114,567.389 363.14,567.326C363.165,567.262 363.162,567.171 363.13,567.05ZM358.692,563.163L358.92,560.826L359.044,559.153L359.177,560.826L359.405,563.163L358.692,563.163ZM269.505,556.556L269.505,554.658C269.505,554.463 269.555,554.287 269.653,554.129L269.796,553.952L269.94,553.851L270.088,553.794L270.246,553.775L273.106,553.775L273.365,553.811L273.549,553.895L273.689,554.015L273.79,554.168C273.829,554.25 273.858,554.339 273.876,554.438L273.897,554.352L273.961,554.206L274.049,554.075L274.167,553.954L274.317,553.855L274.489,553.794L274.665,553.775L277.421,553.775L277.599,553.793L277.78,553.857L277.941,553.966L278.066,554.107L278.194,554.37C278.223,554.461 278.238,554.557 278.238,554.658L278.238,563.523L280.034,554.554C280.036,554.546 280.037,554.539 280.039,554.531C280.095,554.308 280.189,554.142 280.301,554.025L280.447,553.905L280.61,553.827C280.704,553.794 280.812,553.775 280.937,553.775L283.284,553.775C283.409,553.775 283.517,553.794 283.61,553.827L283.774,553.905L283.92,554.025C284.032,554.142 284.126,554.308 284.182,554.531C284.184,554.539 284.185,554.546 284.187,554.554L286.664,566.941L286.664,566.942C286.694,567.061 286.705,567.164 286.702,567.25L286.651,567.506L286.565,567.657L286.436,567.781L286.26,567.869L286.021,567.905L283.303,567.905C283.06,567.905 282.862,567.837 282.704,567.722L282.564,567.592L282.46,567.435L282.396,567.267C282.381,567.215 282.371,567.159 282.365,567.1L282.286,566.337L281.928,566.337L281.856,567.096L281.856,567.098C281.85,567.159 281.839,567.215 281.825,567.267L281.761,567.435L281.657,567.592L281.517,567.722C281.359,567.837 281.161,567.905 280.918,567.905L278.2,567.905L277.954,567.866L277.776,567.772L277.649,567.645L277.567,567.494C277.517,567.363 277.496,567.173 277.556,566.926L277.758,565.917C277.533,566.316 277.249,566.669 276.907,566.974C276.51,567.329 276.048,567.61 275.52,567.815C274.992,568.021 274.441,568.124 273.866,568.124C273.292,568.124 272.742,568.021 272.217,567.815C271.693,567.61 271.232,567.33 270.832,566.976C270.426,566.616 270.104,566.192 269.867,565.703C269.626,565.206 269.505,564.677 269.505,564.114L269.505,560.368C269.445,560.546 269.376,560.715 269.297,560.874C269.161,561.149 268.997,561.397 268.806,561.618C268.695,561.746 268.58,561.865 268.459,561.974L269.847,566.898L269.883,567.172L269.836,567.446L269.734,567.64L269.561,567.799L269.36,567.884L269.172,567.905L266.34,567.905C266.266,567.905 266.201,567.899 266.144,567.889L266.002,567.85L265.876,567.787L265.752,567.684C265.675,567.601 265.583,567.438 265.534,567.173L265.361,566.5L265.361,567.031C265.361,567.178 265.336,567.302 265.296,567.405L265.235,567.53L265.148,567.648L265.007,567.769L264.846,567.851L264.683,567.893C264.634,567.901 264.581,567.905 264.525,567.905L261.816,567.905C261.76,567.905 261.707,567.901 261.658,567.894L261.494,567.852L261.333,567.773L261.19,567.653L261.101,567.535L261.038,567.409C260.996,567.305 260.971,567.18 260.971,567.031L260.971,554.658C260.971,554.509 260.996,554.384 261.036,554.279L261.098,554.153L261.186,554.034L261.329,553.911L261.491,553.829L261.656,553.787C261.706,553.779 261.759,553.775 261.816,553.775L265.532,553.775C266.12,553.775 266.668,553.885 267.177,554.104C267.684,554.322 268.127,554.619 268.505,554.993C268.884,555.369 269.183,555.803 269.401,556.296C269.439,556.382 269.473,556.468 269.505,556.556ZM261.455,554.658L261.455,567.031C261.455,567.291 261.576,567.421 261.816,567.421L264.525,567.421C264.759,567.421 264.876,567.291 264.876,567.031L264.876,562.669L266.007,567.069C266.033,567.215 266.066,567.31 266.107,567.354C266.148,567.399 266.226,567.421 266.34,567.421L269.172,567.421C269.279,567.421 269.348,567.378 269.376,567.293C269.405,567.207 269.406,567.12 269.381,567.031L267.908,561.805C268.098,561.659 268.275,561.491 268.44,561.301C268.605,561.111 268.746,560.897 268.863,560.659C268.98,560.422 269.074,560.16 269.143,559.875C269.213,559.59 269.248,559.28 269.248,558.944L269.248,557.889C269.248,557.395 269.151,556.929 268.958,556.492C268.765,556.055 268.5,555.67 268.164,555.338C267.829,555.005 267.436,554.742 266.986,554.549C266.536,554.356 266.052,554.259 265.532,554.259L261.816,554.259C261.576,554.259 261.455,554.392 261.455,554.658ZM264.876,557.357L265.247,557.357C265.405,557.357 265.542,557.401 265.656,557.49C265.77,557.579 265.827,557.712 265.827,557.889L265.827,559.239C265.827,559.391 265.773,559.516 265.665,559.614C265.557,559.712 265.421,559.761 265.256,559.761L264.876,559.761L264.876,557.357ZM286.192,567.05L283.712,554.649C283.68,554.522 283.633,554.425 283.569,554.359C283.506,554.292 283.411,554.259 283.284,554.259L280.937,554.259C280.81,554.259 280.715,554.292 280.652,554.359C280.588,554.425 280.541,554.522 280.509,554.649L278.029,567.031C277.997,567.158 277.994,567.255 278.019,567.321C278.045,567.388 278.105,567.421 278.2,567.421L280.918,567.421C281.044,567.421 281.149,567.391 281.231,567.331C281.314,567.27 281.361,567.177 281.374,567.05L281.488,565.853L282.723,565.853L282.847,567.05C282.86,567.177 282.907,567.27 282.989,567.331C283.072,567.391 283.176,567.421 283.303,567.421L286.021,567.421C286.116,567.421 286.176,567.389 286.202,567.326C286.227,567.262 286.224,567.171 286.192,567.05ZM281.754,563.163L281.982,560.826L282.106,559.153L282.239,560.826L282.467,563.163L281.754,563.163ZM273.41,563.914L273.41,554.658C273.41,554.55 273.391,554.457 273.353,554.378C273.315,554.299 273.233,554.259 273.106,554.259L270.246,554.259C270.176,554.259 270.116,554.3 270.065,554.383C270.014,554.465 269.989,554.557 269.989,554.658L269.989,564.114C269.989,564.602 270.094,565.061 270.303,565.492C270.512,565.923 270.795,566.296 271.153,566.613C271.511,566.93 271.925,567.18 272.393,567.364C272.862,567.548 273.353,567.639 273.866,567.639C274.38,567.639 274.872,567.548 275.344,567.364C275.816,567.18 276.229,566.93 276.584,566.613C276.939,566.296 277.223,565.923 277.435,565.492C277.647,565.061 277.753,564.602 277.753,564.114L277.753,554.658C277.753,554.557 277.725,554.465 277.668,554.383C277.611,554.3 277.528,554.259 277.421,554.259L274.665,554.259C274.57,554.259 274.49,554.299 274.427,554.378C274.364,554.457 274.332,554.55 274.332,554.658L274.332,563.914C274.332,564.073 274.302,564.218 274.242,564.351C274.182,564.484 274.06,564.551 273.876,564.551C273.692,564.551 273.569,564.484 273.505,564.351C273.442,564.218 273.41,564.073 273.41,563.914ZM295.215,557.067L295.47,554.581C295.476,554.521 295.486,554.465 295.501,554.413L295.565,554.245L295.669,554.088L295.809,553.958C295.967,553.843 296.165,553.775 296.408,553.775L299.126,553.775L299.365,553.811L299.541,553.899L299.624,553.979L299.703,553.911L299.865,553.829L300.03,553.787C300.08,553.779 300.133,553.775 300.19,553.775L302.899,553.775C302.956,553.775 303.009,553.779 303.059,553.787L303.224,553.831L303.386,553.915L303.526,554.039L303.612,554.157L303.672,554.283C303.688,554.326 303.701,554.371 303.711,554.42C303.722,554.37 303.736,554.323 303.753,554.279L303.815,554.153L303.903,554.034L304.046,553.911L304.208,553.829L304.373,553.787C304.423,553.779 304.476,553.775 304.533,553.775L308.249,553.775C308.837,553.775 309.385,553.885 309.894,554.104C310.401,554.322 310.844,554.619 311.222,554.993C311.601,555.369 311.9,555.803 312.118,556.296C312.338,556.795 312.449,557.326 312.449,557.889L312.449,558.944C312.449,559.321 312.409,559.67 312.331,559.99C312.252,560.312 312.146,560.606 312.014,560.874C311.878,561.149 311.714,561.397 311.523,561.618C311.413,561.746 311.297,561.865 311.176,561.974L312.268,565.85L314.531,554.554C314.532,554.546 314.534,554.539 314.536,554.531C314.592,554.308 314.686,554.142 314.798,554.025L314.944,553.905L315.107,553.827C315.201,553.794 315.309,553.775 315.434,553.775L317.781,553.775C317.905,553.775 318.014,553.794 318.107,553.827L318.271,553.905L318.417,554.025C318.529,554.142 318.623,554.308 318.678,554.531C318.68,554.539 318.682,554.546 318.683,554.554L321.161,566.941L321.161,566.942C321.191,567.061 321.202,567.164 321.199,567.25L321.148,567.506L321.062,567.657L320.933,567.781L320.757,567.869L320.518,567.905L317.8,567.905C317.556,567.905 317.359,567.837 317.2,567.722L317.061,567.592L316.957,567.435L316.892,567.267C316.878,567.215 316.868,567.159 316.862,567.1L316.783,566.337L316.425,566.337L316.353,567.096L316.353,567.098C316.347,567.159 316.336,567.215 316.322,567.267L316.257,567.435L316.153,567.592L316.014,567.722C315.856,567.837 315.658,567.905 315.415,567.905L312.697,567.905L312.451,567.866L312.295,567.784L312.278,567.799L312.077,567.884L311.889,567.905L309.057,567.905C308.983,567.905 308.918,567.899 308.861,567.889L308.72,567.85L308.593,567.787L308.469,567.684C308.392,567.601 308.3,567.438 308.251,567.173L308.078,566.5L308.078,567.031C308.078,567.178 308.053,567.302 308.014,567.405L307.952,567.53L307.865,567.648L307.724,567.769L307.563,567.851L307.4,567.893C307.351,567.901 307.298,567.905 307.242,567.905L304.533,567.905C304.477,567.905 304.424,567.901 304.375,567.894L304.211,567.852L304.05,567.773L303.907,567.653L303.818,567.535L303.755,567.409C303.737,567.365 303.723,567.317 303.711,567.266C303.701,567.316 303.687,567.362 303.671,567.405L303.609,567.53L303.522,567.648L303.381,567.769L303.22,567.851L303.057,567.893C303.008,567.901 302.955,567.905 302.899,567.905L300.19,567.905C300.134,567.905 300.081,567.901 300.032,567.894L299.868,567.852L299.707,567.773L299.564,567.653L299.475,567.535L299.412,567.409C299.37,567.305 299.345,567.18 299.345,567.031L299.345,556.789L297.206,567.129C297.204,567.136 297.203,567.142 297.201,567.149C297.144,567.376 297.046,567.544 296.926,567.664L296.781,567.778L296.619,567.854C296.525,567.886 296.417,567.905 296.294,567.905L294.137,567.905C294.014,567.905 293.906,567.886 293.812,567.854L293.65,567.778L293.504,567.664C293.385,567.544 293.287,567.376 293.23,567.149C293.228,567.142 293.227,567.136 293.225,567.13L290.662,554.757C290.601,554.508 290.622,554.318 290.672,554.186L290.754,554.035L290.881,553.907L291.059,553.814L291.305,553.775L294.023,553.775C294.266,553.775 294.464,553.843 294.622,553.958L294.762,554.088L294.866,554.245L294.93,554.413C294.944,554.465 294.955,554.521 294.961,554.58L295.215,557.067ZM304.172,554.658L304.172,567.031C304.172,567.291 304.293,567.421 304.533,567.421L307.242,567.421C307.476,567.421 307.593,567.291 307.593,567.031L307.593,562.669L308.724,567.069C308.75,567.215 308.783,567.31 308.824,567.354C308.865,567.399 308.943,567.421 309.057,567.421L311.889,567.421C311.997,567.421 312.065,567.378 312.093,567.293C312.122,567.207 312.123,567.12 312.098,567.031L310.625,561.805C310.815,561.659 310.992,561.491 311.157,561.301C311.322,561.111 311.463,560.897 311.58,560.659C311.697,560.422 311.791,560.16 311.86,559.875C311.93,559.59 311.965,559.28 311.965,558.944L311.965,557.889C311.965,557.395 311.868,556.929 311.675,556.492C311.482,556.055 311.217,555.67 310.881,555.338C310.546,555.005 310.153,554.742 309.703,554.549C309.253,554.356 308.769,554.259 308.249,554.259L304.533,554.259C304.293,554.259 304.172,554.392 304.172,554.658ZM307.593,557.357L307.964,557.357C308.122,557.357 308.259,557.401 308.373,557.49C308.487,557.579 308.544,557.712 308.544,557.889L308.544,559.239C308.544,559.391 308.49,559.516 308.382,559.614C308.274,559.712 308.138,559.761 307.974,559.761L307.593,559.761L307.593,557.357ZM320.689,567.05L318.208,554.649C318.177,554.522 318.129,554.425 318.066,554.359C318.003,554.292 317.908,554.259 317.781,554.259L315.434,554.259C315.307,554.259 315.212,554.292 315.148,554.359C315.085,554.425 315.038,554.522 315.006,554.649L312.526,567.031C312.494,567.158 312.491,567.255 312.516,567.321C312.541,567.388 312.602,567.421 312.697,567.421L315.415,567.421C315.541,567.421 315.646,567.391 315.728,567.331C315.811,567.27 315.858,567.177 315.871,567.05L315.985,565.853L317.22,565.853L317.344,567.05C317.356,567.177 317.404,567.27 317.486,567.331C317.569,567.391 317.673,567.421 317.8,567.421L320.518,567.421C320.613,567.421 320.673,567.389 320.698,567.326C320.724,567.262 320.72,567.171 320.689,567.05ZM316.251,563.163L316.479,560.826L316.602,559.153L316.735,560.826L316.964,563.163L316.251,563.163ZM299.829,554.658L299.829,567.031C299.829,567.291 299.95,567.421 300.19,567.421L302.899,567.421C303.133,567.421 303.25,567.291 303.25,567.031L303.25,554.658C303.25,554.392 303.133,554.259 302.899,554.259L300.19,554.259C299.95,554.259 299.829,554.392 299.829,554.658ZM296.731,567.031L299.297,554.63C299.329,554.509 299.332,554.417 299.307,554.354C299.281,554.291 299.221,554.259 299.126,554.259L296.408,554.259C296.281,554.259 296.177,554.289 296.094,554.349C296.012,554.409 295.965,554.503 295.952,554.63L295.344,560.569L295.211,562.242L295.087,560.569L294.479,554.63C294.466,554.503 294.419,554.409 294.336,554.349C294.254,554.289 294.149,554.259 294.023,554.259L291.305,554.259C291.21,554.259 291.15,554.292 291.124,554.359C291.099,554.425 291.102,554.522 291.134,554.649L293.7,567.031C293.731,567.158 293.78,567.255 293.847,567.321C293.913,567.388 294.01,567.421 294.137,567.421L296.294,567.421C296.421,567.421 296.517,567.388 296.584,567.321C296.65,567.255 296.699,567.158 296.731,567.031ZM333.011,554.061L333.031,554.034L333.173,553.911L333.335,553.829L333.501,553.787C333.55,553.779 333.604,553.775 333.661,553.775L339.98,553.775L340.245,553.82L340.376,553.883L340.493,553.974L340.601,554.107L340.672,554.247C340.713,554.354 340.74,554.491 340.74,554.658L340.74,555.598C340.968,555.203 341.247,554.866 341.576,554.584C341.97,554.248 342.411,553.993 342.898,553.821C343.383,553.65 343.865,553.566 344.342,553.566C344.929,553.566 345.473,553.661 345.975,553.848C346.491,554.04 346.935,554.321 347.309,554.688C347.564,554.938 347.783,555.227 347.963,555.556L347.963,554.658C347.963,554.395 348.034,554.203 348.132,554.071L348.257,553.939L348.414,553.842L348.581,553.79L348.742,553.775L355.366,553.775L355.527,553.789L355.693,553.84L355.851,553.935L355.98,554.065L356.103,554.304C356.135,554.402 356.155,554.519 356.155,554.658L356.155,556.967C356.155,557.106 356.135,557.223 356.102,557.32L355.976,557.558L355.847,557.686L355.689,557.778L355.525,557.827L355.366,557.841L354.254,557.841L354.254,567.05C354.254,567.186 354.234,567.301 354.202,567.395L354.075,567.63L353.946,567.755L353.791,567.844L353.63,567.892L353.475,567.905L350.643,567.905L350.488,567.892L350.327,567.844L350.172,567.755L350.043,567.63L349.916,567.395C349.884,567.301 349.864,567.186 349.864,567.05L349.864,557.841L348.742,557.841L348.583,557.827L348.505,557.803L348.505,557.813L348.505,558.336C348.505,558.49 348.484,558.613 348.453,558.707L348.396,558.841L348.297,558.977L348.172,559.079L347.995,559.159C347.898,559.189 347.764,559.21 347.592,559.21L345.842,559.21C346.062,559.379 346.278,559.551 346.489,559.725C346.914,560.074 347.289,560.46 347.614,560.881C347.948,561.311 348.214,561.789 348.412,562.313C348.611,562.842 348.714,563.442 348.714,564.114C348.714,564.668 348.612,565.187 348.411,565.673C348.207,566.163 347.916,566.59 347.539,566.953C347.166,567.311 346.715,567.598 346.185,567.809C345.662,568.017 345.08,568.124 344.437,568.124C343.672,568.124 343.025,567.994 342.494,567.746C341.95,567.492 341.512,567.166 341.175,566.771C341.049,566.622 340.935,566.467 340.835,566.305L340.835,567.05C340.835,567.186 340.815,567.301 340.783,567.395L340.657,567.63L340.528,567.755L340.373,567.844L340.211,567.892L340.056,567.905L333.661,567.905C333.604,567.905 333.552,567.901 333.502,567.894L333.339,567.852L333.177,567.773L333.035,567.653L332.945,567.535L332.882,567.409C332.841,567.305 332.815,567.18 332.815,567.031L332.815,557.739L332.697,557.796L332.435,557.841L329.926,557.841L329.926,559.001L331.722,559.001L331.878,559.015L332.037,559.062L332.185,559.145L332.31,559.257L332.398,559.377L332.458,559.503C332.496,559.605 332.52,559.728 332.52,559.875L332.52,562.185C332.52,562.324 332.498,562.441 332.463,562.539L332.407,562.66L332.327,562.776L332.193,562.898L332.037,562.983L331.876,563.027L331.722,563.04L329.926,563.04L329.926,567.031C329.926,567.178 329.901,567.302 329.861,567.405L329.8,567.53L329.713,567.648L329.572,567.769L329.411,567.851L329.248,567.893C329.199,567.901 329.146,567.905 329.09,567.905L326.381,567.905C326.325,567.905 326.272,567.901 326.223,567.894L326.059,567.852L325.898,567.773L325.755,567.653L325.666,567.535L325.603,567.409C325.561,567.305 325.536,567.18 325.536,567.031L325.536,554.658C325.536,554.509 325.561,554.384 325.601,554.279L325.663,554.153L325.751,554.034L325.894,553.911L326.056,553.829L326.221,553.787C326.271,553.779 326.324,553.775 326.381,553.775L332.435,553.775L332.565,553.785L332.701,553.821L332.832,553.887L332.948,553.98L333.011,554.061ZM326.02,554.658L326.02,567.031C326.02,567.291 326.141,567.421 326.381,567.421L329.09,567.421C329.324,567.421 329.441,567.291 329.441,567.031L329.441,562.555L331.722,562.555C331.931,562.555 332.036,562.432 332.036,562.185L332.036,559.875C332.036,559.742 332.007,559.644 331.95,559.581C331.893,559.517 331.817,559.486 331.722,559.486L329.441,559.486L329.441,557.357L332.435,557.357C332.612,557.357 332.701,557.227 332.701,556.967L332.701,554.658C332.701,554.392 332.612,554.259 332.435,554.259L326.381,554.259C326.141,554.259 326.02,554.392 326.02,554.658ZM344.381,557.964L344.381,557.832C344.381,557.744 344.38,557.67 344.36,557.614L344.359,557.614C344.352,557.639 344.352,557.668 344.352,557.699C344.352,557.797 344.359,557.883 344.378,557.955L344.381,557.964ZM340.228,563.876L340.228,563.506C340.228,563.182 340.29,562.965 340.36,562.843L340.483,562.69L340.634,562.585L340.816,562.517C340.889,562.5 340.975,562.489 341.073,562.489L343.164,562.489C342.896,562.271 342.65,562.071 342.429,561.889C342.113,561.629 341.839,561.386 341.605,561.159C341.36,560.92 341.151,560.683 340.978,560.447C340.793,560.197 340.646,559.928 340.536,559.641C340.429,559.362 340.349,559.054 340.299,558.715C340.26,558.445 340.236,558.14 340.23,557.8L339.98,557.841L337.205,557.841L337.205,558.811L339.277,558.811L339.432,558.824L339.591,558.868L339.741,558.947L339.871,559.057L339.963,559.177L340.028,559.305C340.069,559.409 340.094,559.535 340.094,559.685L340.094,561.995C340.094,562.138 340.071,562.258 340.033,562.359L339.975,562.482L339.891,562.599L339.754,562.721L339.595,562.804L339.433,562.847L339.277,562.859L337.205,562.859L337.205,563.857L340.056,563.857L340.211,563.871L340.228,563.876ZM348.448,554.658L348.448,556.967C348.448,557.227 348.546,557.357 348.742,557.357L350.348,557.357L350.348,567.05C350.348,567.297 350.447,567.421 350.643,567.421L353.475,567.421C353.671,567.421 353.77,567.297 353.77,567.05L353.77,557.357L355.366,557.357C355.569,557.357 355.67,557.227 355.67,556.967L355.67,554.658C355.67,554.392 355.569,554.259 355.366,554.259L348.742,554.259C348.546,554.259 348.448,554.392 348.448,554.658ZM344.399,563.598L344.399,563.819C344.399,563.908 344.419,564.021 344.427,564.062C344.441,564.067 344.458,564.067 344.475,564.067C344.479,564.067 344.483,564.067 344.486,564.066C344.491,564.043 344.504,563.974 344.504,563.924C344.504,563.852 344.492,563.784 344.466,563.722C344.449,563.681 344.426,563.639 344.399,563.598ZM340.712,563.506L340.712,564.019C340.712,564.437 340.777,564.861 340.907,565.292C341.037,565.723 341.249,566.111 341.544,566.456C341.838,566.802 342.223,567.085 342.698,567.307C343.174,567.529 343.753,567.639 344.437,567.639C345.014,567.639 345.537,567.546 346.005,567.359C346.474,567.172 346.873,566.92 347.203,566.604C347.532,566.287 347.786,565.915 347.963,565.487C348.14,565.059 348.229,564.602 348.229,564.114C348.229,563.506 348.139,562.962 347.958,562.484C347.778,562.006 347.535,561.57 347.231,561.177C346.927,560.785 346.577,560.425 346.181,560.099C345.785,559.772 345.372,559.454 344.941,559.144C344.713,558.985 344.529,558.847 344.39,558.73C344.251,558.613 344.143,558.502 344.067,558.398C343.991,558.293 343.939,558.187 343.91,558.079C343.881,557.972 343.867,557.845 343.867,557.699C343.867,557.534 343.907,557.398 343.986,557.291C344.065,557.183 344.187,557.129 344.352,557.129C344.536,557.129 344.667,557.189 344.746,557.31C344.825,557.43 344.865,557.604 344.865,557.832L344.865,558.326C344.865,558.485 344.882,558.591 344.917,558.645C344.952,558.699 345.036,558.725 345.169,558.725L347.592,558.725C347.776,558.725 347.893,558.699 347.944,558.645C347.995,558.591 348.02,558.488 348.02,558.336L348.02,557.813C348.02,557.218 347.927,556.685 347.74,556.217C347.553,555.748 347.296,555.353 346.97,555.034C346.644,554.714 346.256,554.47 345.806,554.302C345.356,554.134 344.868,554.05 344.342,554.05C343.918,554.05 343.49,554.126 343.059,554.278C342.629,554.43 342.239,554.655 341.891,554.953C341.542,555.251 341.259,555.621 341.04,556.065C340.821,556.508 340.712,557.021 340.712,557.604C340.712,557.997 340.734,558.344 340.779,558.645C340.823,558.946 340.893,559.22 340.988,559.467C341.083,559.714 341.21,559.945 341.368,560.16C341.526,560.376 341.718,560.593 341.943,560.811C342.168,561.03 342.432,561.264 342.736,561.515C343.04,561.765 343.389,562.048 343.782,562.365C343.978,562.524 344.152,562.668 344.304,562.798C344.456,562.927 344.583,563.053 344.685,563.173C344.786,563.293 344.862,563.414 344.913,563.534C344.963,563.654 344.989,563.784 344.989,563.924C344.989,564.139 344.94,564.298 344.841,564.399C344.743,564.5 344.621,564.551 344.475,564.551C344.311,564.551 344.176,564.5 344.072,564.399C343.967,564.298 343.915,564.104 343.915,563.819L343.915,563.411C343.915,563.239 343.894,563.124 343.853,563.064C343.812,563.004 343.709,562.973 343.544,562.973L341.073,562.973C340.921,562.973 340.823,563.011 340.779,563.087C340.734,563.163 340.712,563.303 340.712,563.506ZM333.3,554.658L333.3,567.031C333.3,567.291 333.42,567.421 333.661,567.421L340.056,567.421C340.253,567.421 340.351,567.297 340.351,567.05L340.351,564.712C340.351,564.465 340.253,564.342 340.056,564.342L336.721,564.342L336.721,562.375L339.277,562.375C339.499,562.375 339.61,562.248 339.61,561.995L339.61,559.685C339.61,559.552 339.58,559.454 339.519,559.391C339.459,559.327 339.379,559.296 339.277,559.296L336.721,559.296L336.721,557.357L339.98,557.357C340.164,557.357 340.256,557.227 340.256,556.967L340.256,554.658C340.256,554.392 340.164,554.259 339.98,554.259L333.661,554.259C333.42,554.259 333.3,554.392 333.3,554.658Z"/>
            </g>
            <g transform="matrix(11.46877,0,0,11.46877,-2831.370538,-5778.519669)">
                <g transform="matrix(19.462451,0,0,19.462451,363.177772,567.420882)">
                </g>
                <text x="260.999px" y="567.421px" style="font-family:'SugoProClassicTrial-Bold', 'Sugo Pro Classic Trial';font-weight:700;font-size:19.462px;fill:rgb(246,120,230);stroke:black;stroke-width:0.19px;">RU<tspan x="277.981px " y="567.421px ">A</tspan> VIR<tspan x="312.478px " y="567.421px ">A</tspan> FEST<tspan x="354.92px " y="567.421px ">A</tspan></text>
            </g>
        </g>
    </g>
</svg>
