<?xml version="1.0" encoding="UTF-8" standalone="no"?>
<!DOCTYPE svg PUBLIC "-//W3C//DTD SVG 1.1//EN" "http://www.w3.org/Graphics/SVG/1.1/DTD/svg11.dtd">
<svg width="100%" height="100%" viewBox="0 0 394 81" version="1.1" xmlns="http://www.w3.org/2000/svg" xmlns:xlink="http://www.w3.org/1999/xlink" xml:space="preserve" xmlns:serif="http://www.serif.com/" style="fill-rule:evenodd;clip-rule:evenodd;stroke-linejoin:round;stroke-miterlimit:2;">
    <g transform="matrix(1,0,0,1,-1198.204054,-5831.830769)">
        <g transform="matrix(0.286508,-0,-0,0.286508,1373.729165,5831.945457)">
            <g transform="matrix(0.197109,0,0,0.197109,245.042707,139.766316)">
                <g transform="matrix(1,0,0,1,-711.111111,-711.111111)">
                    <clipPath id="_clip1">
                        <rect x="0" y="0" width="1422.222" height="1422.222"/>
                    </clipPath>
                    <g clip-path="url(#_clip1)">
                        <g transform="matrix(5.555556,0,0,5.555556,0,0)">
                            <path d="M128,23.064C162.177,23.064 166.225,23.194 179.722,23.809C192.202,24.379 198.98,26.464 203.491,28.217C209.465,30.539 213.729,33.313 218.208,37.792C222.687,42.271 225.461,46.535 227.783,52.509C229.536,57.02 231.621,63.798 232.191,76.277C232.806,89.775 232.936,93.823 232.936,128C232.936,162.178 232.806,166.226 232.191,179.723C231.621,192.203 229.536,198.98 227.783,203.491C225.461,209.465 222.687,213.73 218.208,218.209C213.729,222.688 209.465,225.462 203.491,227.783C198.98,229.536 192.202,231.622 179.722,232.191C166.227,232.807 162.179,232.937 128,232.937C93.82,232.937 89.772,232.807 76.277,232.191C63.797,231.622 57.02,229.536 52.509,227.783C46.535,225.462 42.27,222.688 37.791,218.209C33.312,213.73 30.538,209.465 28.217,203.491C26.464,198.98 24.378,192.203 23.809,179.723C23.193,166.226 23.063,162.178 23.063,128C23.063,93.823 23.193,89.775 23.809,76.278C24.378,63.798 26.464,57.02 28.217,52.509C30.538,46.535 33.312,42.271 37.791,37.792C42.27,33.313 46.535,30.539 52.509,28.217C57.02,26.464 63.797,24.379 76.277,23.809C89.774,23.194 93.822,23.064 128,23.064M128,0C93.237,0 88.878,0.147 75.226,0.77C61.601,1.392 52.297,3.556 44.155,6.72C35.737,9.991 28.599,14.368 21.483,21.484C14.367,28.6 9.991,35.738 6.72,44.155C3.555,52.297 1.392,61.602 0.77,75.226C0.147,88.878 0,93.237 0,128C0,162.763 0.147,167.122 0.77,180.774C1.392,194.399 3.555,203.703 6.72,211.845C9.991,220.262 14.367,227.401 21.483,234.517C28.599,241.633 35.737,246.009 44.155,249.28C52.297,252.445 61.601,254.608 75.226,255.23C88.878,255.853 93.237,256 128,256C162.763,256 167.122,255.853 180.774,255.23C194.398,254.608 203.703,252.445 211.845,249.28C220.262,246.009 227.4,241.633 234.516,234.517C241.632,227.401 246.009,220.263 249.28,211.845C252.444,203.703 254.608,194.399 255.23,180.774C255.853,167.122 256,162.763 256,128C256,93.237 255.853,88.878 255.23,75.226C254.608,61.602 252.444,52.297 249.28,44.155C246.009,35.738 241.632,28.6 234.516,21.484C227.4,14.368 220.262,9.991 211.845,6.72C203.703,3.556 194.398,1.392 180.774,0.77C167.122,0.147 162.763,0 128,0ZM128,62.27C91.698,62.27 62.27,91.699 62.27,128C62.27,164.302 91.698,193.73 128,193.73C164.301,193.73 193.73,164.302 193.73,128C193.73,91.699 164.301,62.27 128,62.27ZM128,170.667C104.436,170.667 85.333,151.564 85.333,128C85.333,104.436 104.436,85.333 128,85.333C151.564,85.333 170.667,104.436 170.667,128C170.667,151.564 151.564,170.667 128,170.667ZM211.686,59.673C211.686,68.157 204.81,75.034 196.327,75.034C187.843,75.034 180.966,68.157 180.966,59.673C180.966,51.19 187.843,44.314 196.327,44.314C204.81,44.314 211.686,51.19 211.686,59.673Z" style="fill:white;fill-rule:nonzero;"/>
                        </g>
                    </g>
                </g>
            </g>
            <g transform="matrix(0.049277,0,0,0.049277,-130.731239,139.766316)">
                <g transform="matrix(1,0,0,1,-2844.444444,-2844.444444)">
                    <clipPath id="_clip2">
                        <rect x="0" y="0" width="5688.889" height="5688.889"/>
                    </clipPath>
                    <g clip-path="url(#_clip2)">
                        <g id="Layer_x0020_1" transform="matrix(5.555556,0,0,5.555556,0,0)">
                            <path d="M432,1017.8C187.2,979.4 0,767.5 0,512C0,229.3 229.3,0 512,0C794.7,0 1024,229.3 1024,512C1024,767.6 836.8,979.4 592,1017.8L592,660L711.3,660L734,512L592,512L592,416C592,375.5 611.8,336 675.4,336L740,336L740,210C740,210 681.4,200 625.4,200C508.5,200 432,270.8 432,399.2L432,512L302,512L302,660L432,660L432,1017.8Z" style="fill:white;"/>
                        </g>
                    </g>
                </g>
            </g>
            <g transform="matrix(0.548275,0,0,0.548275,-719.165,-21.454075)">
                <path d="M643.3,166.4C614.1,166.4 587.1,156.7 565.5,140.4C540.7,121.7 522.8,94.2 516.5,62.6C514.9,54.8 514.1,46.7 514,38.4L430.5,38.4L430.5,266.5L430.4,391.4C430.4,424.8 408.6,453.1 378.5,463.1C369.7,466 360.3,467.4 350.5,466.8C337.9,466.1 326.2,462.3 315.9,456.2C294.1,443.2 279.4,419.6 279,392.5C278.4,350.3 312.5,315.8 354.7,315.8C363,315.8 371,317.2 378.5,319.6L378.5,235C370.6,233.8 362.6,233.2 354.4,233.2C308.2,233.2 265,252.4 234.1,287C210.8,313.1 196.8,346.5 194.6,381.5C191.8,427.4 208.6,471.1 241.2,503.3C246,508 251,512.4 256.3,516.5C284.2,538 318.4,549.7 354.4,549.7C362.5,549.7 370.6,549.1 378.5,547.9C412.1,542.9 443.1,527.5 467.6,503.3C497.7,473.6 514.3,434.1 514.5,392.1L514.1,205.5C528.4,216.6 544.1,225.7 561,232.8C587.2,243.9 615,249.4 643.5,249.4L643.5,166.3C643.6,166.4 643.3,166.4 643.3,166.4Z" style="fill:white;fill-rule:nonzero;"/>
            </g>
        </g>
        <g transform="matrix(0.005783,0,0,0.005783,1551.421444,5871.989634)">
            <g transform="matrix(1,0,0,1,-6913.888889,-6944.444444)">
                <clipPath id="_clip3">
                    <rect x="0" y="0" width="13827.778" height="13888.889"/>
                </clipPath>
                <g clip-path="url(#_clip3)">
                    <g transform="matrix(11.33772,0,0,11.33772,0.447441,0)">
                        <path d="M1041.858,178.02C927.206,63.289 774.753,0.07 612.325,0C277.617,0 5.232,272.298 5.098,606.991C5.059,713.977 33.013,818.411 86.146,910.467L0,1225.016L321.898,1140.61C410.587,1188.978 510.445,1214.465 612.064,1214.506L612.325,1214.506C946.979,1214.506 1219.405,942.16 1219.547,607.483C1219.603,445.275 1156.495,292.759 1041.858,178.02ZM612.325,1111.983L612.128,1111.983C521.55,1111.935 432.726,1087.617 355.25,1041.644L336.812,1030.714L145.791,1080.797L196.791,894.621L184.778,875.534C134.253,795.198 107.58,702.359 107.618,607.03C107.729,328.844 334.125,102.527 612.516,102.527C747.328,102.583 874.035,155.131 969.33,250.492C1064.619,345.852 1117.058,472.62 1117.018,607.44C1116.9,885.635 890.496,1111.983 612.325,1111.983Z" style="fill:rgb(224,224,224);fill-rule:nonzero;"/>
                    </g>
                    <g transform="matrix(11.33772,0,0,11.33772,0.447441,0)">
                        <path d="M27.875,1190.114L110.086,889.934C59.367,802.082 32.695,702.411 32.727,600.332C32.86,280.934 292.805,21.082 612.196,21.082C767.212,21.152 912.704,81.48 1022.094,190.973C1131.508,300.465 1191.727,446.004 1191.664,600.785C1191.531,920.191 931.57,1180.066 612.219,1180.066C612.196,1180.066 612.235,1180.066 612.219,1180.066L611.961,1180.066C514.984,1180.035 419.695,1155.691 335.063,1109.566L27.875,1190.114Z" style="fill:url(#_Linear4);fill-rule:nonzero;"/>
                    </g>
                    <g transform="matrix(11.33772,0,0,11.33772,0.447441,0)">
                        <path d="M462.273,349.294C451.039,324.317 439.211,323.817 428.523,323.38C419.781,323.005 409.773,323.028 399.781,323.028C389.781,323.028 373.531,326.786 359.789,341.794C346.039,356.802 307.289,393.083 307.289,466.872C307.289,540.669 361.039,611.974 368.531,621.989C376.031,631.989 472.289,788.255 624.734,848.372C751.429,898.333 777.211,888.395 804.711,885.895C832.211,883.395 893.445,849.622 905.945,814.598C918.445,779.582 918.445,749.567 914.695,743.293C910.945,737.043 900.945,733.293 885.945,725.793C870.945,718.293 797.211,682.004 783.461,677.004C769.711,672.004 759.711,669.504 749.711,684.52C739.711,699.52 710.984,733.293 702.234,743.293C693.484,753.316 684.734,754.566 669.734,747.066C654.734,739.543 606.429,723.722 549.125,672.628C504.539,632.878 474.437,583.784 465.687,568.769C456.937,553.769 464.749,545.644 472.273,538.167C479.007,531.448 487.273,520.659 494.773,511.901C502.257,503.143 504.757,496.893 509.757,486.893C514.757,476.877 512.257,468.12 508.507,460.62C504.757,453.12 475.609,378.95 462.273,349.294Z" style="fill:white;"/>
                    </g>
                    <g transform="matrix(11.33772,0,0,11.33772,0.447441,0)">
                        <path d="M1036.898,176.091C923.562,62.677 772.859,0.185 612.297,0.114C281.43,0.114 12.172,269.286 12.039,600.137C12,705.896 39.633,809.13 92.156,900.13L7,1211.067L325.203,1127.629C412.875,1175.441 511.586,1200.637 612.039,1200.676L612.297,1200.676C943.109,1200.676 1212.406,931.457 1212.547,600.621C1212.602,440.278 1150.219,289.513 1036.898,176.091ZM612.297,1099.333L612.102,1099.333C522.563,1099.286 434.758,1075.247 358.172,1029.802L339.945,1018.997L151.117,1068.505L201.531,884.466L189.656,865.599C139.711,786.185 113.344,694.411 113.383,600.177C113.492,325.185 337.289,101.466 612.485,101.466C745.751,101.521 871.001,153.466 965.204,247.732C1059.399,341.998 1111.235,467.31 1111.196,600.584C1111.078,875.583 887.273,1099.333 612.297,1099.333Z" style="fill:white;fill-rule:nonzero;"/>
                    </g>
                </g>
            </g>
        </g>
    </g>
    <defs>
        <linearGradient id="_Linear4" x1="0" y1="0" x2="1" y2="0" gradientUnits="userSpaceOnUse" gradientTransform="matrix(0,-1169.03,1169.03,0,609.77,1190.114)"><stop offset="0" style="stop-color:rgb(32,176,56);stop-opacity:1"/><stop offset="1" style="stop-color:rgb(96,214,106);stop-opacity:1"/></linearGradient>
    </defs>
</svg>
