<?xml version="1.0" encoding="UTF-8" standalone="no"?>
<!DOCTYPE svg PUBLIC "-//W3C//DTD SVG 1.1//EN" "http://www.w3.org/Graphics/SVG/1.1/DTD/svg11.dtd">
<svg width="100%" height="100%" viewBox="0 0 170 64" version="1.1" xmlns="http://www.w3.org/2000/svg" xmlns:xlink="http://www.w3.org/1999/xlink" xml:space="preserve" xmlns:serif="http://www.serif.com/" style="fill-rule:evenodd;clip-rule:evenodd;stroke-linecap:square;stroke-miterlimit:2;">
    <g transform="matrix(1,0,0,1,-158.555938,-6892.153104)">
        <g transform="matrix(1,0,0,1,0,5641)">
            <g transform="matrix(0.019683,0,0,0.019683,-9.984829,428.529841)">
                <g transform="matrix(4.388589,-0,0,5.632419,8015.853883,38228.703161)">
                    <rect x="311" y="827.436" width="252.724" height="202.88" style="fill:rgb(8,7,6);"/>
                    <path d="M578.408,1041.757L296.315,1041.757L296.315,815.994L578.408,815.994L578.408,1041.757ZM563.724,827.436L311,827.436L311,1030.316L563.724,1030.316L563.724,827.436Z" style="fill:rgb(8,7,6);"/>
                </g>
                <g transform="matrix(6.00801,-0,0,4.19918,5870.719783,39509.896309)">
                    <rect x="1077" y="701.069" width="102" height="375.803" style="fill:rgb(8,7,6);"/>
                    <path d="M1189.726,1092.218L1066.274,1092.218L1066.274,685.722L1189.726,685.722L1189.726,1092.218ZM1179,701.069L1077,701.069L1077,1076.871L1179,1076.871L1179,701.069Z" style="fill:rgb(8,7,6);"/>
                </g>
                <g transform="matrix(4.017444,-0,0,4.017444,8217.596896,39705.601771)">
                    <rect x="1434" y="667" width="198.079" height="481" style="fill:rgb(8,7,6);"/>
                    <path d="M1648.12,1164.041L1417.959,1164.041L1417.959,650.959L1648.12,650.959L1648.12,1164.041ZM1632.079,667L1434,667L1434,1148L1632.079,1148L1632.079,667Z" style="fill:rgb(8,7,6);"/>
                </g>
                <g transform="matrix(3.733698,-0,0,2.857175,8690.602405,40799.902519)">
                    <rect x="1667" y="667" width="363" height="509" style="fill:rgb(8,7,6);"/>
                    <path d="M2047.26,1198.555L1649.74,1198.555L1649.74,644.445L2047.26,644.445L2047.26,1198.555ZM2030,667L1667,667L1667,1176L2030,1176L2030,667Z" style="fill:rgb(8,7,6);"/>
                </g>
                <g transform="matrix(4.020666,-0,0,4.229734,8352.258277,39593.620397)">
                    <path d="M317.524,578.523C206.446,582.936 126.053,688.319 107.866,829.02C100.226,888.121 103.364,954.716 109.939,1005.1C119.367,1077.35 142.012,1149.045 205.669,1210.78C277.612,1280.551 370.065,1279.197 425.654,1249.772C463.291,1229.849 486.663,1200.053 502.997,1176.784C530.723,1137.285 555.162,1064.791 534.927,1023.931C516.546,986.813 492.98,982.096 463.729,976.333C437.231,971.113 379.273,983.849 359.924,1062.772C354.9,1083.266 319.991,1089.488 304.157,1042.691C296.279,1019.406 289.086,954.537 289.265,909.295C289.593,826.853 313.66,797.132 326.188,797.743C351.149,798.959 325.407,857.061 377.118,883.665C422.455,906.99 489.047,892.345 508.949,849.294C518.275,829.121 543.262,778.7 492.261,680.447C457.457,613.399 404.816,575.055 317.524,578.523Z" style="fill:rgb(8,7,6);"/>
                    <path d="M323.371,818.185C322.826,818.924 322.303,819.695 321.844,820.471C312.929,835.538 305.475,863.748 305.293,909.352C305.12,952.984 311.818,1015.57 319.416,1038.026C324.669,1053.553 331.117,1061.773 338.639,1062.923C341.336,1063.335 343.717,1061.752 344.314,1059.314C366.772,967.713 436.227,955.355 466.982,961.414C501.04,968.124 528.027,974.224 549.429,1017.441C558.71,1036.183 560.336,1060.683 556.262,1086.289C550.578,1122.019 534.075,1159.961 516.33,1185.241C498.868,1210.117 473.688,1241.784 433.452,1263.083C373.036,1295.064 272.412,1297.275 194.222,1221.445C127.805,1157.033 103.87,1082.359 94.033,1006.975C87.318,955.523 84.155,887.516 91.957,827.162C111.252,677.894 199.013,567.983 316.855,563.301C411.593,559.537 468.862,600.938 506.634,673.705C561.499,779.399 533.655,833.722 523.623,855.423C514.03,876.175 495.647,891.663 473.289,900.723C441.15,913.748 400.904,913.227 369.489,897.065C338.09,880.911 329.634,855.546 325.811,833.682C324.833,828.093 324.187,822.814 323.371,818.185ZM317.524,578.523C206.446,582.936 126.053,688.319 107.866,829.02C100.226,888.121 103.364,954.716 109.939,1005.1C119.367,1077.35 142.012,1149.045 205.669,1210.78C277.612,1280.551 370.065,1279.197 425.654,1249.772C463.291,1229.849 486.663,1200.053 502.997,1176.784C530.723,1137.285 555.162,1064.791 534.927,1023.931C516.546,986.813 492.98,982.096 463.729,976.333C437.231,971.113 379.273,983.849 359.924,1062.772C354.9,1083.266 319.991,1089.488 304.157,1042.691C296.279,1019.406 289.086,954.537 289.265,909.295C289.593,826.853 313.66,797.132 326.188,797.743C351.149,798.959 325.407,857.061 377.118,883.665C422.455,906.99 489.047,892.345 508.949,849.294C518.275,829.121 543.262,778.7 492.261,680.447C457.457,613.399 404.816,575.055 317.524,578.523Z"/>
                </g>
                <g transform="matrix(4.020666,-0,0,4.218651,8351.056125,39577.380171)">
                    <path d="M630.594,583.676C672.459,583.217 711.294,601.506 725.08,654.212C737.104,700.184 721.135,750.893 719.218,774.244C712.052,861.519 711.691,1052.568 718.719,1061.259C725.631,1069.806 809.64,1051.448 877.51,1061.299C900.242,1064.599 937.702,1100.883 936.408,1153.399C935.509,1189.928 924.9,1237.858 857.655,1256.881C801.017,1272.903 651.48,1282.932 596.053,1270.372C559.91,1262.182 533.44,1244.792 530.293,1214.812C528.541,1198.123 538.132,1171.845 538.132,1171.845C538.132,1171.845 548.36,1200.174 560.915,1214.173C584.257,1240.201 629.092,1229.644 629.092,1229.644C629.092,1229.644 588.03,1215.033 572.896,1197.284C558.3,1180.166 552.034,1158.674 558.102,1135.408C568.276,1096.396 571.284,1084.439 567.035,1059.345C560.32,1019.686 537.415,984.563 536.554,934.725C536.024,904.052 549.815,861.776 551.161,824.873C553.849,751.157 535.187,732.842 535.4,684.042C535.752,603.382 593.723,584.08 630.594,583.676Z" style="fill:rgb(8,7,6);"/>
                    <path d="M539.819,1156.653C539.455,1148.597 540.321,1140.258 542.547,1131.723C551.909,1095.825 555.121,1084.87 551.211,1061.778C544.383,1021.447 521.403,985.659 520.528,934.976C519.994,904.089 533.787,861.504 535.142,824.343C536.69,781.894 530.814,758.592 525.947,736.621C522.347,720.368 519.281,704.767 519.372,683.978C519.533,647.147 530.716,621.672 546.174,604.153C569.927,577.232 604.539,568.684 630.41,568.401C679.21,567.866 724.562,589.08 740.632,650.517C753.143,698.35 737.192,751.139 735.197,775.435C729.509,844.712 728.137,979.888 731.388,1035.602C731.64,1039.919 732.065,1044.317 732.458,1047.867C740.396,1047.623 754.25,1047.096 766.813,1046.114C799.262,1043.577 842.026,1040.696 879.923,1046.197C889.035,1047.52 900.132,1052.411 910.856,1061.062C932.401,1078.441 953.474,1111.47 952.432,1153.758C951.406,1195.424 938.919,1249.827 862.216,1271.526C803.791,1288.054 649.522,1298.19 592.345,1285.234C548.606,1275.322 518.153,1252.614 514.344,1216.333C512.328,1197.127 522.993,1166.826 522.993,1166.826C525.238,1160.676 531.327,1156.558 538.159,1156.569C538.718,1156.57 539.272,1156.598 539.819,1156.653ZM630.594,583.676C593.723,584.08 535.752,603.382 535.4,684.042C535.187,732.842 553.849,751.157 551.161,824.873C549.815,861.776 536.024,904.052 536.554,934.725C537.415,984.563 560.32,1019.686 567.035,1059.345C571.284,1084.439 568.276,1096.396 558.102,1135.408C552.034,1158.674 558.3,1180.166 572.896,1197.284C588.03,1215.033 629.092,1229.644 629.092,1229.644C629.092,1229.644 584.257,1240.201 560.915,1214.173C548.36,1200.174 538.132,1171.845 538.132,1171.845C538.132,1171.845 528.541,1198.123 530.293,1214.812C533.44,1244.792 559.91,1262.182 596.053,1270.372C651.48,1282.932 801.017,1272.903 857.655,1256.881C924.9,1237.858 935.509,1189.928 936.408,1153.399C937.702,1100.883 900.242,1064.599 877.51,1061.299C809.64,1051.448 725.631,1069.806 718.719,1061.259C711.691,1052.568 712.052,861.519 719.218,774.244C721.135,750.893 737.104,700.184 725.08,654.212C711.294,601.506 672.459,583.217 630.594,583.676Z"/>
                </g>
                <g transform="matrix(4.020666,-0,0,4.214123,8351.056125,41162.212787)">
                    <path d="M868.354,289.204C852.585,370.679 856.93,645.638 873.442,659.421C880.231,665.089 929.322,669.685 950.303,724.148C963.475,758.342 952.335,822.331 956.349,832.975C964.475,854.521 1037.381,897.807 1081.532,900C1171.732,904.48 1220.718,863 1259.169,808.651C1347.489,683.815 1350.493,502.919 1339.738,413.569C1331.498,345.112 1311.007,207.915 1232.524,208.327C1152.387,208.749 1110.618,285.14 1132.159,340.874C1155.111,400.259 1159.095,534.658 1148.146,591.046C1134.591,660.858 1122.931,682.208 1104.921,690.966C1086.911,699.725 1064.894,673.266 1054.294,625.241C1033.883,532.76 1048.437,458.949 1058.735,386.171C1064.593,344.776 1093.23,296.785 1060.808,255.756C1039.477,228.763 992.795,200.147 936.442,215.788C905.071,224.495 874.696,256.436 868.354,289.204Z" style="fill:rgb(8,7,6);"/>
                    <path d="M852.592,286.427C859.973,248.293 895.457,211.237 931.965,201.104C996.135,183.293 1049.317,215.812 1073.606,246.55C1092.757,270.784 1094.478,296.96 1089.943,323.305C1086.129,345.46 1077.529,367.654 1074.62,388.217C1064.545,459.415 1050.011,531.617 1069.979,622.09C1074.676,643.373 1081.592,659.994 1089.64,670.208C1091.436,672.487 1093.244,674.385 1095.116,675.792C1096.111,676.539 1096.696,677.802 1097.642,677.342C1103.989,674.255 1108.654,668.522 1113.489,657.839C1120.038,643.369 1125.916,621.58 1132.386,588.26C1142.981,533.695 1139.33,403.63 1117.12,346.165C1092.281,281.897 1140.028,193.521 1232.435,193.035C1269.845,192.838 1297.401,217.403 1316.185,253.944C1340.612,301.46 1350.554,369.392 1355.662,411.824C1366.7,503.526 1363.098,689.085 1272.454,817.207C1230.998,875.803 1177.947,920.102 1080.699,915.272C1047.136,913.605 998.047,890.558 968.722,868.562C954.086,857.584 944.351,846.327 941.267,838.153C939.74,834.102 939.167,823.989 939.748,810.604C940.743,787.666 943.85,751.727 935.259,729.424C920.892,692.13 890.839,682.449 876.533,677.466C869.755,675.106 865.09,672.769 862.888,670.931L858.427,665.686C857.406,664.015 856.344,661.794 855.38,659.005C853.06,652.29 850.872,640.542 849.123,625.09C839.941,543.977 839.81,352.469 852.592,286.427ZM868.354,289.204C852.585,370.679 856.93,645.638 873.442,659.421C880.231,665.089 929.322,669.685 950.303,724.148C963.475,758.342 952.335,822.331 956.349,832.975C964.475,854.521 1037.381,897.807 1081.532,900C1171.732,904.48 1220.718,863 1259.169,808.651C1347.489,683.815 1350.493,502.919 1339.738,413.569C1331.498,345.112 1311.007,207.915 1232.524,208.327C1152.387,208.749 1110.618,285.14 1132.159,340.874C1155.111,400.259 1159.095,534.658 1148.146,591.046C1134.591,660.858 1122.931,682.208 1104.921,690.966C1086.911,699.725 1064.894,673.266 1054.294,625.241C1033.883,532.76 1048.437,458.949 1058.735,386.171C1064.593,344.776 1093.23,296.785 1060.808,255.756C1039.477,228.763 992.795,200.147 936.442,215.788C905.071,224.495 874.696,256.436 868.354,289.204Z"/>
                </g>
                <g transform="matrix(4.020666,-0,0,3.841094,8351.056125,41493.999785)">
                    <path d="M1355.381,247.289C1383.535,164.026 1451.932,169.269 1451.932,169.269C1451.932,169.269 1430.837,157.053 1389.141,176.675C1362.319,189.297 1343.152,229.273 1343.152,229.273C1343.152,229.273 1330.21,199.265 1339.458,187.687C1347.716,177.349 1358.488,168.589 1370.518,161.604C1391.158,149.621 1415.5,142.864 1437.196,142.333C1471.538,141.492 1726.834,131.948 1716.043,364.424C1713.007,429.836 1659.658,475.808 1659.658,475.808C1659.658,475.808 1706.845,498.417 1742.09,552.188C1764.187,585.899 1766.201,657.618 1755.094,701.792C1722.631,830.902 1574.64,884.979 1499.496,898.873C1327.062,930.757 1308.503,791.399 1336.088,699.37C1414.346,438.282 1341.996,286.875 1355.381,247.289ZM1501.049,316.355C1495.601,318.537 1498.096,410.32 1499.942,410.288C1518.497,409.968 1565.212,387.268 1570.918,352.615C1577.12,314.946 1512.589,311.736 1501.049,316.355ZM1504.817,592.325C1500.604,596.977 1506.742,705.144 1512.465,707.267C1525.205,711.992 1594.959,683.869 1597.532,637.95C1599.861,596.405 1512.251,584.118 1504.817,592.325Z" style="fill:rgb(8,7,6);"/>
                    <path d="M1339.189,245.53C1334.53,244.286 1330.575,240.887 1328.543,236.176C1328.543,236.176 1320.942,218.229 1320.171,202.643C1319.671,192.533 1322.046,183.33 1327.162,176.925C1336.635,165.065 1348.942,154.946 1362.744,146.933C1385.671,133.621 1412.72,126.15 1436.821,125.56C1454.662,125.123 1529.87,122.598 1599.24,150.202C1671.578,178.987 1737.898,239.304 1732.053,365.238C1729.835,413.018 1703.493,451.495 1685.806,472.163C1704.131,484.563 1732.14,507.352 1755.307,542.696C1779.452,579.532 1782.731,657.793 1770.594,706.062C1756.648,761.526 1723.082,804.269 1682.381,836.342C1623.272,882.92 1549.164,906.727 1502.284,915.395C1426.175,929.468 1377.553,911.709 1348.17,880.751C1304.201,834.426 1302.576,755.131 1320.795,694.347C1374.476,515.255 1355.801,388.825 1344.287,315.782C1341.154,295.906 1338.565,279.759 1337.858,267.367C1337.36,258.65 1337.835,251.382 1339.189,245.53ZM1355.381,247.289C1341.996,286.875 1414.346,438.282 1336.088,699.37C1308.503,791.399 1327.062,930.757 1499.496,898.873C1574.64,884.979 1722.631,830.902 1755.094,701.792C1766.201,657.618 1764.187,585.899 1742.09,552.188C1706.845,498.417 1659.658,475.808 1659.658,475.808C1659.658,475.808 1713.007,429.836 1716.043,364.424C1726.834,131.948 1471.538,141.492 1437.196,142.333C1415.5,142.864 1391.158,149.621 1370.518,161.604C1358.488,168.589 1347.716,177.349 1339.458,187.687C1330.21,199.265 1343.152,229.273 1343.152,229.273C1343.152,229.273 1362.319,189.297 1389.141,176.675C1430.837,157.053 1451.932,169.269 1451.932,169.269C1451.932,169.269 1383.535,164.026 1355.381,247.289ZM1504.817,592.325C1512.251,584.118 1599.861,596.405 1597.532,637.95C1594.959,683.869 1525.205,711.992 1512.465,707.267C1506.742,705.144 1500.604,596.977 1504.817,592.325ZM1519.59,607.672C1519.905,628.374 1523.448,669.406 1525.203,688.671C1529.813,687.311 1535.45,685.389 1540.29,682.98C1550.231,678.034 1560.789,671.081 1568.979,662.327C1575.719,655.124 1580.985,646.728 1581.532,636.968C1581.754,632.992 1579.686,629.826 1576.951,627.021C1573.912,623.905 1570.01,621.283 1565.718,618.986C1552.62,611.975 1530.97,608.875 1519.59,607.672ZM1501.049,316.355C1512.589,311.736 1577.12,314.946 1570.918,352.615C1565.212,387.268 1518.497,409.968 1499.942,410.288C1498.096,410.32 1495.601,318.537 1501.049,316.355ZM1514.71,389.527C1520.078,387.251 1525.906,384.088 1531.49,380.275C1542.468,372.777 1552.994,362.695 1555.122,349.765C1556.199,343.227 1551.076,340.049 1545.767,337.556C1536.69,333.294 1525.316,331.724 1516.459,331.524L1515.145,331.495C1514.913,344.928 1514.522,371.601 1514.71,389.527Z"/>
                </g>
                <g transform="matrix(4.020666,-0,0,4.107782,8351.056125,41274.249238)">
                    <path d="M1921.515,186.432C2076.721,182.496 2119.456,309.89 2128.249,363.074C2138.557,425.42 2058.363,482.89 2003.429,446.146C1945.547,407.43 1983.028,385.576 1947.28,360.062C1924.557,343.844 1894.422,378.185 1907.938,407.173C1946.533,489.944 2199.409,527.286 2174.428,735.387C2166.636,800.294 2083.704,893.349 1975.907,896.145C1912.511,897.789 1843.511,876.086 1790.247,825.582C1772.355,808.617 1761.225,792.309 1765.094,774.896C1772.214,742.854 1771.33,772.297 1795.509,796.283C1823.578,824.128 1844.345,817.734 1844.345,817.734C1844.345,817.734 1722.04,724.199 1809.79,664.019C1827.153,652.111 1867.819,662.725 1867.819,662.725C1867.819,662.725 1854.75,644.719 1833.858,643.869C1803.09,642.618 1785.147,655.485 1783.127,651.027C1780.383,644.973 1782.761,633.031 1786.68,630.214C1813.738,610.758 1871.839,614.304 1893.261,646.627C1930.742,703.182 1969.559,725.541 1987.777,703.132C2012.998,672.111 1947.825,635.384 1859.694,584.031C1822.681,562.464 1750.821,500.22 1742.646,434.95C1716.063,222.693 1898.551,187.014 1921.515,186.432Z" style="fill:rgb(8,7,6);"/>
                    <path d="M1767.506,745.429C1762.165,730.402 1760.31,714.698 1764.114,699.404C1766.832,688.475 1772.357,677.581 1781.824,667.236L1777.661,666.225L1772.288,662.744L1768.476,657.389C1765.603,651.05 1765.252,641.03 1767.465,632.951C1768.408,629.506 1769.757,626.43 1771.246,624.039L1774.179,620.212L1777.191,617.57C1793.548,605.809 1819.164,600.417 1844.054,603.434C1869.402,606.506 1893.519,618.188 1906.708,638.09C1923.778,663.846 1940.852,682.085 1956.033,691.064C1964.082,695.825 1970.836,698.775 1975.236,693.363C1978.173,689.75 1977.046,685.968 1974.373,681.862C1968.307,672.545 1956.412,662.846 1940.822,651.987C1917.521,635.757 1886.315,617.801 1851.495,597.512C1811.77,574.365 1735.511,506.911 1726.737,436.859C1718.252,369.107 1730.149,318.318 1751.115,280.319C1801.033,189.853 1903.649,171.191 1921.1,170.749C2088.232,166.511 2134.603,303.297 2144.072,360.568C2150.212,397.709 2130.032,433.688 2099.5,454.619C2068.504,475.867 2027.606,481.32 1994.386,459.099C1959.513,435.773 1954.062,417.029 1951.251,400.772C1949.56,390.996 1950.786,381.981 1937.836,372.738C1935.488,371.062 1932.867,371.613 1930.651,372.95C1927.766,374.69 1925.331,377.498 1923.55,380.77C1920.432,386.502 1919.335,393.829 1922.52,400.659C1927.78,411.94 1938.006,421.977 1950.895,432.031C1973.194,449.426 2003.202,466.153 2034.159,485.258C2117.641,536.779 2206.233,604.882 2190.347,737.218C2186.926,765.716 2170.689,799.341 2144.407,829.408C2105.819,873.553 2045.822,910.026 1976.331,911.828C1908.981,913.574 1835.681,890.504 1779.095,836.85C1756.407,815.338 1744.526,793.642 1749.432,771.562C1751.24,763.426 1752.875,758.413 1754.209,755.744L1757.324,751.086L1762.103,747.275L1767.506,745.429ZM1921.515,186.432C1898.551,187.014 1716.063,222.693 1742.646,434.95C1750.821,500.22 1822.681,562.464 1859.694,584.031C1947.825,635.384 2012.998,672.111 1987.777,703.132C1969.559,725.541 1930.742,703.182 1893.261,646.627C1871.839,614.304 1813.738,610.758 1786.68,630.214C1782.761,633.031 1780.383,644.973 1783.127,651.027C1785.147,655.485 1803.09,642.618 1833.858,643.869C1854.75,644.719 1867.819,662.725 1867.819,662.725C1867.819,662.725 1827.153,652.111 1809.79,664.019C1722.04,724.199 1844.345,817.734 1844.345,817.734C1844.345,817.734 1823.578,824.128 1795.509,796.283C1771.33,772.297 1772.214,742.854 1765.094,774.896C1761.225,792.309 1772.355,808.617 1790.247,825.582C1843.511,876.086 1912.511,897.789 1975.907,896.145C2083.704,893.349 2166.636,800.294 2174.428,735.387C2199.409,527.286 1946.533,489.944 1907.938,407.173C1894.422,378.185 1924.557,343.844 1947.28,360.062C1983.028,385.576 1945.547,407.43 2003.429,446.146C2058.363,482.89 2138.557,425.42 2128.249,363.074C2119.456,309.89 2076.721,182.496 1921.515,186.432Z"/>
                </g>
                <g transform="matrix(4.020666,-0,0,4.229734,8211.647725,39412.835402)">
                    <path d="M317.524,578.523C206.446,582.936 126.053,688.319 107.866,829.02C100.226,888.121 103.364,954.716 109.939,1005.1C119.367,1077.35 142.012,1149.045 205.669,1210.78C277.612,1280.551 370.065,1279.197 425.654,1249.772C463.291,1229.849 486.663,1200.053 502.997,1176.784C530.723,1137.285 555.162,1064.791 534.927,1023.931C516.546,986.813 492.98,982.096 463.729,976.333C437.231,971.113 379.273,983.849 359.924,1062.772C354.9,1083.266 319.991,1089.488 304.157,1042.691C296.279,1019.406 289.086,954.537 289.265,909.295C289.593,826.853 313.66,797.132 326.188,797.743C351.149,798.959 325.407,857.061 377.118,883.665C422.455,906.99 489.047,892.345 508.949,849.294C518.275,829.121 543.262,778.7 492.261,680.447C457.457,613.399 404.816,575.055 317.524,578.523Z" style="fill:rgb(255,253,234);"/>
                    <path d="M323.371,818.185C322.826,818.924 322.303,819.695 321.844,820.471C312.929,835.538 305.475,863.748 305.293,909.352C305.12,952.984 311.818,1015.57 319.416,1038.026C324.669,1053.553 331.117,1061.773 338.639,1062.923C341.336,1063.335 343.717,1061.752 344.314,1059.314C366.772,967.713 436.227,955.355 466.982,961.414C501.04,968.124 528.027,974.224 549.429,1017.441C558.71,1036.183 560.336,1060.683 556.262,1086.289C550.578,1122.019 534.075,1159.961 516.33,1185.241C498.868,1210.117 473.688,1241.784 433.452,1263.083C373.036,1295.064 272.412,1297.275 194.222,1221.445C127.805,1157.033 103.87,1082.359 94.033,1006.975C87.318,955.523 84.155,887.516 91.957,827.162C111.252,677.894 199.013,567.983 316.855,563.301C411.593,559.537 468.862,600.938 506.634,673.705C561.499,779.399 533.655,833.722 523.623,855.423C514.03,876.175 495.647,891.663 473.289,900.723C441.15,913.748 400.904,913.227 369.489,897.065C338.09,880.911 329.634,855.546 325.811,833.682C324.833,828.093 324.187,822.814 323.371,818.185ZM317.524,578.523C206.446,582.936 126.053,688.319 107.866,829.02C100.226,888.121 103.364,954.716 109.939,1005.1C119.367,1077.35 142.012,1149.045 205.669,1210.78C277.612,1280.551 370.065,1279.197 425.654,1249.772C463.291,1229.849 486.663,1200.053 502.997,1176.784C530.723,1137.285 555.162,1064.791 534.927,1023.931C516.546,986.813 492.98,982.096 463.729,976.333C437.231,971.113 379.273,983.849 359.924,1062.772C354.9,1083.266 319.991,1089.488 304.157,1042.691C296.279,1019.406 289.086,954.537 289.265,909.295C289.593,826.853 313.66,797.132 326.188,797.743C351.149,798.959 325.407,857.061 377.118,883.665C422.455,906.99 489.047,892.345 508.949,849.294C518.275,829.121 543.262,778.7 492.261,680.447C457.457,613.399 404.816,575.055 317.524,578.523Z"/>
                </g>
                <g transform="matrix(4.020666,-0,0,4.218651,8210.445573,39396.595176)">
                    <path d="M630.594,583.676C672.459,583.217 711.294,601.506 725.08,654.212C737.104,700.184 721.135,750.893 719.218,774.244C712.052,861.519 711.691,1052.568 718.719,1061.259C725.631,1069.806 809.64,1051.448 877.51,1061.299C900.242,1064.599 937.702,1100.883 936.408,1153.399C935.509,1189.928 924.9,1237.858 857.655,1256.881C801.017,1272.903 651.48,1282.932 596.053,1270.372C559.91,1262.182 533.44,1244.792 530.293,1214.812C528.541,1198.123 538.132,1171.845 538.132,1171.845C538.132,1171.845 548.36,1200.174 560.915,1214.173C584.257,1240.201 629.092,1229.644 629.092,1229.644C629.092,1229.644 588.03,1215.033 572.896,1197.284C558.3,1180.166 552.034,1158.674 558.102,1135.408C568.276,1096.396 571.284,1084.439 567.035,1059.345C560.32,1019.686 537.415,984.563 536.554,934.725C536.024,904.052 549.815,861.776 551.161,824.873C553.849,751.157 535.187,732.842 535.4,684.042C535.752,603.382 593.723,584.08 630.594,583.676Z" style="fill:rgb(255,253,234);"/>
                    <path d="M539.819,1156.653C539.455,1148.597 540.321,1140.258 542.547,1131.723C551.909,1095.825 555.121,1084.87 551.211,1061.778C544.383,1021.447 521.403,985.659 520.528,934.976C519.994,904.089 533.787,861.504 535.142,824.343C536.69,781.894 530.814,758.592 525.947,736.621C522.347,720.368 519.281,704.767 519.372,683.978C519.533,647.147 530.716,621.672 546.174,604.153C569.927,577.232 604.539,568.684 630.41,568.401C679.21,567.866 724.562,589.08 740.632,650.517C753.143,698.35 737.192,751.139 735.197,775.435C729.509,844.712 728.137,979.888 731.388,1035.602C731.64,1039.919 732.065,1044.317 732.458,1047.867C740.396,1047.623 754.25,1047.096 766.813,1046.114C799.262,1043.577 842.026,1040.696 879.923,1046.197C889.035,1047.52 900.132,1052.411 910.856,1061.062C932.401,1078.441 953.474,1111.47 952.432,1153.758C951.406,1195.424 938.919,1249.827 862.216,1271.526C803.791,1288.054 649.522,1298.19 592.345,1285.234C548.606,1275.322 518.153,1252.614 514.344,1216.333C512.328,1197.127 522.993,1166.826 522.993,1166.826C525.238,1160.676 531.327,1156.558 538.159,1156.569C538.718,1156.57 539.272,1156.598 539.819,1156.653ZM630.594,583.676C593.723,584.08 535.752,603.382 535.4,684.042C535.187,732.842 553.849,751.157 551.161,824.873C549.815,861.776 536.024,904.052 536.554,934.725C537.415,984.563 560.32,1019.686 567.035,1059.345C571.284,1084.439 568.276,1096.396 558.102,1135.408C552.034,1158.674 558.3,1180.166 572.896,1197.284C588.03,1215.033 629.092,1229.644 629.092,1229.644C629.092,1229.644 584.257,1240.201 560.915,1214.173C548.36,1200.174 538.132,1171.845 538.132,1171.845C538.132,1171.845 528.541,1198.123 530.293,1214.812C533.44,1244.792 559.91,1262.182 596.053,1270.372C651.48,1282.932 801.017,1272.903 857.655,1256.881C924.9,1237.858 935.509,1189.928 936.408,1153.399C937.702,1100.883 900.242,1064.599 877.51,1061.299C809.64,1051.448 725.631,1069.806 718.719,1061.259C711.691,1052.568 712.052,861.519 719.218,774.244C721.135,750.893 737.104,700.184 725.08,654.212C711.294,601.506 672.459,583.217 630.594,583.676Z"/>
                </g>
                <g transform="matrix(4.020666,-0,0,4.214123,8210.445573,40981.427792)">
                    <path d="M868.354,289.204C852.585,370.679 856.93,645.638 873.442,659.421C880.231,665.089 929.322,669.685 950.303,724.148C963.475,758.342 952.335,822.331 956.349,832.975C964.475,854.521 1037.381,897.807 1081.532,900C1171.732,904.48 1220.718,863 1259.169,808.651C1347.489,683.815 1350.493,502.919 1339.738,413.569C1331.498,345.112 1311.007,207.915 1232.524,208.327C1152.387,208.749 1110.618,285.14 1132.159,340.874C1155.111,400.259 1159.095,534.658 1148.146,591.046C1134.591,660.858 1122.931,682.208 1104.921,690.966C1086.911,699.725 1064.894,673.266 1054.294,625.241C1033.883,532.76 1048.437,458.949 1058.735,386.171C1064.593,344.776 1093.23,296.785 1060.808,255.756C1039.477,228.763 992.795,200.147 936.442,215.788C905.071,224.495 874.696,256.436 868.354,289.204Z" style="fill:rgb(255,253,234);"/>
                    <path d="M852.592,286.427C859.973,248.293 895.457,211.237 931.965,201.104C996.135,183.293 1049.317,215.812 1073.606,246.55C1092.757,270.784 1094.478,296.96 1089.943,323.305C1086.129,345.46 1077.529,367.654 1074.62,388.217C1064.545,459.415 1050.011,531.617 1069.979,622.09C1074.676,643.373 1081.592,659.994 1089.64,670.208C1091.436,672.487 1093.244,674.385 1095.116,675.792C1096.111,676.539 1096.696,677.802 1097.642,677.342C1103.989,674.255 1108.654,668.522 1113.489,657.839C1120.038,643.369 1125.916,621.58 1132.386,588.26C1142.981,533.695 1139.33,403.63 1117.12,346.165C1092.281,281.897 1140.028,193.521 1232.435,193.035C1269.845,192.838 1297.401,217.403 1316.185,253.944C1340.612,301.46 1350.554,369.392 1355.662,411.824C1366.7,503.526 1363.098,689.085 1272.454,817.207C1230.998,875.803 1177.947,920.102 1080.699,915.272C1047.136,913.605 998.047,890.558 968.722,868.562C954.086,857.584 944.351,846.327 941.267,838.153C939.74,834.102 939.167,823.989 939.748,810.604C940.743,787.666 943.85,751.727 935.259,729.424C920.892,692.13 890.839,682.449 876.533,677.466C869.755,675.106 865.09,672.769 862.888,670.931L858.427,665.686C857.406,664.015 856.344,661.794 855.38,659.005C853.06,652.29 850.872,640.542 849.123,625.09C839.941,543.977 839.81,352.469 852.592,286.427ZM868.354,289.204C852.585,370.679 856.93,645.638 873.442,659.421C880.231,665.089 929.322,669.685 950.303,724.148C963.475,758.342 952.335,822.331 956.349,832.975C964.475,854.521 1037.381,897.807 1081.532,900C1171.732,904.48 1220.718,863 1259.169,808.651C1347.489,683.815 1350.493,502.919 1339.738,413.569C1331.498,345.112 1311.007,207.915 1232.524,208.327C1152.387,208.749 1110.618,285.14 1132.159,340.874C1155.111,400.259 1159.095,534.658 1148.146,591.046C1134.591,660.858 1122.931,682.208 1104.921,690.966C1086.911,699.725 1064.894,673.266 1054.294,625.241C1033.883,532.76 1048.437,458.949 1058.735,386.171C1064.593,344.776 1093.23,296.785 1060.808,255.756C1039.477,228.763 992.795,200.147 936.442,215.788C905.071,224.495 874.696,256.436 868.354,289.204Z"/>
                </g>
                <g transform="matrix(4.020666,-0,0,3.841094,8210.445573,41313.21479)">
                    <path d="M1355.381,247.289C1383.535,164.026 1451.932,169.269 1451.932,169.269C1451.932,169.269 1430.837,157.053 1389.141,176.675C1362.319,189.297 1343.152,229.273 1343.152,229.273C1343.152,229.273 1330.21,199.265 1339.458,187.687C1347.716,177.349 1358.488,168.589 1370.518,161.604C1391.158,149.621 1415.5,142.864 1437.196,142.333C1471.538,141.492 1726.834,131.948 1716.043,364.424C1713.007,429.836 1659.658,475.808 1659.658,475.808C1659.658,475.808 1706.845,498.417 1742.09,552.188C1764.187,585.899 1766.201,657.618 1755.094,701.792C1722.631,830.902 1574.64,884.979 1499.496,898.873C1327.062,930.757 1308.503,791.399 1336.088,699.37C1414.346,438.282 1341.996,286.875 1355.381,247.289ZM1501.049,316.355C1495.601,318.537 1498.096,410.32 1499.942,410.288C1518.497,409.968 1565.212,387.268 1570.918,352.615C1577.12,314.946 1512.589,311.736 1501.049,316.355ZM1504.817,592.325C1500.604,596.977 1506.742,705.144 1512.465,707.267C1525.205,711.992 1594.959,683.869 1597.532,637.95C1599.861,596.405 1512.251,584.118 1504.817,592.325Z" style="fill:rgb(255,253,234);"/>
                    <path d="M1339.189,245.53C1334.53,244.286 1330.575,240.887 1328.543,236.176C1328.543,236.176 1320.942,218.229 1320.171,202.643C1319.671,192.533 1322.046,183.33 1327.162,176.925C1336.635,165.065 1348.942,154.946 1362.744,146.933C1385.671,133.621 1412.72,126.15 1436.821,125.56C1454.662,125.123 1529.87,122.598 1599.24,150.202C1671.578,178.987 1737.898,239.304 1732.053,365.238C1729.835,413.018 1703.493,451.495 1685.806,472.163C1704.131,484.563 1732.14,507.352 1755.307,542.696C1779.452,579.532 1782.731,657.793 1770.594,706.062C1756.648,761.526 1723.082,804.269 1682.381,836.342C1623.272,882.92 1549.164,906.727 1502.284,915.395C1426.175,929.468 1377.553,911.709 1348.17,880.751C1304.201,834.426 1302.576,755.131 1320.795,694.347C1374.476,515.255 1355.801,388.825 1344.287,315.782C1341.154,295.906 1338.565,279.759 1337.858,267.367C1337.36,258.65 1337.835,251.382 1339.189,245.53ZM1355.381,247.289C1341.996,286.875 1414.346,438.282 1336.088,699.37C1308.503,791.399 1327.062,930.757 1499.496,898.873C1574.64,884.979 1722.631,830.902 1755.094,701.792C1766.201,657.618 1764.187,585.899 1742.09,552.188C1706.845,498.417 1659.658,475.808 1659.658,475.808C1659.658,475.808 1713.007,429.836 1716.043,364.424C1726.834,131.948 1471.538,141.492 1437.196,142.333C1415.5,142.864 1391.158,149.621 1370.518,161.604C1358.488,168.589 1347.716,177.349 1339.458,187.687C1330.21,199.265 1343.152,229.273 1343.152,229.273C1343.152,229.273 1362.319,189.297 1389.141,176.675C1430.837,157.053 1451.932,169.269 1451.932,169.269C1451.932,169.269 1383.535,164.026 1355.381,247.289ZM1501.049,316.355C1512.589,311.736 1577.12,314.946 1570.918,352.615C1565.212,387.268 1518.497,409.968 1499.942,410.288C1498.096,410.32 1495.601,318.537 1501.049,316.355ZM1514.71,389.527C1520.078,387.251 1525.906,384.088 1531.49,380.275C1542.468,372.777 1552.994,362.695 1555.122,349.765C1556.199,343.227 1551.076,340.049 1545.767,337.556C1536.69,333.294 1525.316,331.724 1516.459,331.524L1515.145,331.495C1514.913,344.928 1514.522,371.601 1514.71,389.527ZM1504.817,592.325C1512.251,584.118 1599.861,596.405 1597.532,637.95C1594.959,683.869 1525.205,711.992 1512.465,707.267C1506.742,705.144 1500.604,596.977 1504.817,592.325ZM1519.59,607.672C1519.905,628.374 1523.448,669.406 1525.203,688.671C1529.813,687.311 1535.45,685.389 1540.29,682.98C1550.231,678.034 1560.789,671.081 1568.979,662.327C1575.719,655.124 1580.985,646.728 1581.532,636.968C1581.754,632.992 1579.686,629.826 1576.951,627.021C1573.912,623.905 1570.01,621.283 1565.718,618.986C1552.62,611.975 1530.97,608.875 1519.59,607.672Z"/>
                </g>
                <g transform="matrix(4.020666,-0,0,4.107782,8210.445573,41093.464243)">
                    <path d="M1921.515,186.432C2076.721,182.496 2119.456,309.89 2128.249,363.074C2138.557,425.42 2058.363,482.89 2003.429,446.146C1945.547,407.43 1983.028,385.576 1947.28,360.062C1924.557,343.844 1894.422,378.185 1907.938,407.173C1946.533,489.944 2199.409,527.286 2174.428,735.387C2166.636,800.294 2083.704,893.349 1975.907,896.145C1912.511,897.789 1843.511,876.086 1790.247,825.582C1772.355,808.617 1761.225,792.309 1765.094,774.896C1772.214,742.854 1771.33,772.297 1795.509,796.283C1823.578,824.128 1844.345,817.734 1844.345,817.734C1844.345,817.734 1722.04,724.199 1809.79,664.019C1827.153,652.111 1867.819,662.725 1867.819,662.725C1867.819,662.725 1854.75,644.719 1833.858,643.869C1803.09,642.618 1785.147,655.485 1783.127,651.027C1780.383,644.973 1782.761,633.031 1786.68,630.214C1813.738,610.758 1871.839,614.304 1893.261,646.627C1930.742,703.182 1969.559,725.541 1987.777,703.132C2012.998,672.111 1947.825,635.384 1859.694,584.031C1822.681,562.464 1750.821,500.22 1742.646,434.95C1716.063,222.693 1898.551,187.014 1921.515,186.432Z" style="fill:rgb(255,253,234);"/>
                    <path d="M1767.506,745.429C1762.165,730.402 1760.31,714.698 1764.114,699.404C1766.832,688.475 1772.357,677.581 1781.824,667.236L1777.661,666.225L1772.288,662.744L1768.476,657.389C1765.603,651.05 1765.252,641.03 1767.465,632.951C1768.408,629.506 1769.757,626.43 1771.246,624.039L1774.179,620.212L1777.191,617.57C1793.548,605.809 1819.164,600.417 1844.054,603.434C1869.402,606.506 1893.519,618.188 1906.708,638.09C1923.778,663.846 1940.852,682.085 1956.033,691.064C1964.082,695.825 1970.836,698.775 1975.236,693.363C1978.173,689.75 1977.046,685.968 1974.373,681.862C1968.307,672.545 1956.412,662.846 1940.822,651.987C1917.521,635.757 1886.315,617.801 1851.495,597.512C1811.77,574.365 1735.511,506.911 1726.737,436.859C1718.252,369.107 1730.149,318.318 1751.115,280.319C1801.033,189.853 1903.649,171.191 1921.1,170.749C2088.232,166.511 2134.603,303.297 2144.072,360.568C2150.212,397.709 2130.032,433.688 2099.5,454.619C2068.504,475.867 2027.606,481.32 1994.386,459.099C1959.513,435.773 1954.062,417.029 1951.251,400.772C1949.56,390.996 1950.786,381.981 1937.836,372.738C1935.488,371.062 1932.867,371.613 1930.651,372.95C1927.766,374.69 1925.331,377.498 1923.55,380.77C1920.432,386.502 1919.335,393.829 1922.52,400.659C1927.78,411.94 1938.006,421.977 1950.895,432.031C1973.194,449.426 2003.202,466.153 2034.159,485.258C2117.641,536.779 2206.233,604.882 2190.347,737.218C2186.926,765.716 2170.689,799.341 2144.407,829.408C2105.819,873.553 2045.822,910.026 1976.331,911.828C1908.981,913.574 1835.681,890.504 1779.095,836.85C1756.407,815.338 1744.526,793.642 1749.432,771.562C1751.24,763.426 1752.875,758.413 1754.209,755.744L1757.324,751.086L1762.103,747.275L1767.506,745.429ZM1921.515,186.432C1898.551,187.014 1716.063,222.693 1742.646,434.95C1750.821,500.22 1822.681,562.464 1859.694,584.031C1947.825,635.384 2012.998,672.111 1987.777,703.132C1969.559,725.541 1930.742,703.182 1893.261,646.627C1871.839,614.304 1813.738,610.758 1786.68,630.214C1782.761,633.031 1780.383,644.973 1783.127,651.027C1785.147,655.485 1803.09,642.618 1833.858,643.869C1854.75,644.719 1867.819,662.725 1867.819,662.725C1867.819,662.725 1827.153,652.111 1809.79,664.019C1722.04,724.199 1844.345,817.734 1844.345,817.734C1844.345,817.734 1823.578,824.128 1795.509,796.283C1771.33,772.297 1772.214,742.854 1765.094,774.896C1761.225,792.309 1772.355,808.617 1790.247,825.582C1843.511,876.086 1912.511,897.789 1975.907,896.145C2083.704,893.349 2166.636,800.294 2174.428,735.387C2199.409,527.286 1946.533,489.944 1907.938,407.173C1894.422,378.185 1924.557,343.844 1947.28,360.062C1983.028,385.576 1945.547,407.43 2003.429,446.146C2058.363,482.89 2138.557,425.42 2128.249,363.074C2119.456,309.89 2076.721,182.496 1921.515,186.432Z"/>
                </g>
                <g transform="matrix(4.017444,-0,0,4.017444,8217.596896,39705.601771)">
                    <path d="M742.577,615.238C754.019,626.68 756.488,648.085 760.625,664.633C764.4,679.733 765.615,725.653 759.042,745.374C756.498,753.007 760.057,758.226 754.926,768.489C754.506,769.329 754.626,769.334 753.976,773.238" style="fill:none;stroke:rgb(8,7,6);stroke-width:16.04px;"/>
                </g>
                <g transform="matrix(4.017444,-0,0,4.017444,8217.596896,39705.601771)">
                    <path d="M259.28,1263.891C278.78,1273.641 274.48,1283.653 306.775,1290.112C307.623,1290.281 307.35,1290.626 317.165,1293.08C338.702,1298.465 338.204,1300.225 360.207,1302.975C395.744,1307.417 395.809,1304.835 425.018,1297.533C447.062,1292.022 457.679,1283.124 473.724,1279.112C475.888,1278.571 474.772,1268.451 497.745,1256.964C500.488,1255.593 526.535,1229.592 522.293,1231.713" style="fill:none;stroke:rgb(8,7,6);stroke-width:16.04px;"/>
                </g>
                <g transform="matrix(4.920266,-0,0,4.017444,7697.181583,39705.601771)">
                    <path d="M576.432,1274.14C583.539,1275.917 581.967,1282.993 599.483,1288.832C611.432,1292.815 611.566,1292.34 622.787,1297.951C629.373,1301.244 661.445,1304.451 664.836,1304.79C692.575,1307.564 692.583,1305.044 734.496,1305.044C750.359,1305.044 795.23,1307.226 827.566,1289.984C865.002,1270.022 889.036,1230.319 886.173,1231.751" style="fill:none;stroke:rgb(8,7,6);stroke-width:14.35px;"/>
                </g>
                <g transform="matrix(4.017444,-0,0,4.017444,8217.596896,39705.601771)">
                    <path d="M1018.057,1264.428C1019.374,1265.087 1032.305,1271.552 1034.68,1272.344C1036.416,1272.923 1035.485,1274.329 1054.47,1283.822C1056.601,1284.888 1065.664,1294.135 1091.278,1299.258C1093.189,1299.64 1093.161,1298.714 1115.422,1302.424C1137.586,1306.118 1145.048,1303.631 1147.481,1302.82C1171.177,1294.921 1173.61,1304.202 1198.538,1291.738C1204.974,1288.52 1239.599,1261.759 1243.263,1258.096C1248.303,1253.055 1249.601,1254.924 1254.741,1249.784C1280.228,1224.296 1279.255,1217.354 1286.404,1210.205C1288.383,1208.226 1293.021,1198.95 1293.528,1197.935C1294.506,1195.979 1307.634,1175.66 1304.61,1181.708" style="fill:none;stroke:rgb(8,7,6);stroke-width:16.04px;"/>
                </g>
                <g transform="matrix(4.017444,-0,0,4.017444,8217.596896,39705.601771)">
                    <path d="M1394.794,1274.017C1410.57,1277.962 1412.342,1286.859 1426.062,1291.432C1438.644,1295.627 1448.665,1293.059 1453.371,1297.765C1457.525,1301.919 1476.708,1298.115 1512.74,1302.119C1522.203,1303.17 1547.494,1295.073 1593.086,1287.474C1597.495,1286.739 1608.107,1276.006 1614.459,1272.83C1636.775,1261.672 1649.025,1268.344 1668.682,1248.687C1682.729,1234.64 1700.12,1230.706 1708.657,1222.169C1708.978,1221.848 1715.989,1216.816 1716.969,1215.836C1724.665,1208.14 1725.84,1209.735 1733.592,1201.983C1739.526,1196.05 1740.366,1197.189 1746.257,1191.297C1748.536,1189.019 1748.038,1188.724 1751.798,1184.964" style="fill:none;stroke:rgb(8,7,6);stroke-width:16.04px;"/>
                </g>
                <g transform="matrix(4.017444,-0,0,4.017444,8217.596896,39705.601771)">
                    <path d="M2198.71,1031.154C2198.99,1032.554 2198.756,1032.434 2200.256,1048.934C2200.351,1049.983 2203.197,1047.859 2208.759,1058.983C2213.903,1069.272 2207.374,1070.29 2211.078,1081.401C2216.782,1098.514 2211.908,1141.583 2209.532,1146.336C2199.788,1165.825 2200.327,1191.1 2163.923,1227.504C2143.676,1247.752 2125.721,1256.43 2119.86,1262.291C2108.229,1273.922 2044.811,1322.05 1974.53,1298.623C1958.356,1293.232 1912.398,1292.922 1901.092,1281.616C1896.302,1276.826 1852.135,1255.077 1845.434,1248.376" style="fill:none;stroke:rgb(8,7,6);stroke-width:16.04px;"/>
                </g>
                <g transform="matrix(4.017444,-0,0,4.017444,8217.596896,39705.601771)">
                    <path d="M2148.433,702.791C2147.548,703.677 2142.037,720.768 2147.246,723.372C2150.308,724.903 2153.235,737.277 2157.141,741.183C2161.094,745.136 2161.74,757.111 2163.473,760.577C2166.914,767.458 2163.827,767.681 2161.099,792.24C2160.983,793.283 2144.214,821.79 2143.684,822.32C2141.309,824.695 2139.969,827.374 2139.726,827.861C2139.229,828.855 2120.093,844.037 2116.374,845.276C2103.836,849.455 2104.407,851.031 2091.439,853.192C2084.274,854.386 2084.428,854.097 2075.607,854.775C2071.224,855.112 2071.731,853.531 2071.254,849.234" style="fill:none;stroke:rgb(8,7,6);stroke-width:16.04px;"/>
                </g>
                <g transform="matrix(4.017444,-0,0,4.017444,8217.596896,39705.601771)">
                    <path d="M1095.494,631.732C1097.161,632.566 1103.34,656.984 1103.854,663.142C1106.187,691.144 1114.066,697.858 1106.64,720.136C1103.419,729.8 1104.763,730.072 1101.574,739.641C1101.405,740.148 1101.236,740.654 1101.067,741.161C1099.513,745.823 1099.471,745.746 1098.787,750.533C1098.66,751.424 1098.388,750.64 1097.774,750.027" style="fill:none;stroke:rgb(8,7,6);stroke-width:16.04px;"/>
                </g>
                <g transform="matrix(4.017444,-0,0,4.017444,8217.596896,39705.601771)">
                    <path d="M750.77,772.81C761.075,783.116 743.806,866.258 744.586,877.169C747.333,915.638 743.673,915.319 740.72,953.699C736.788,1004.818 753.06,1012.478 743.813,1021.726" style="fill:none;stroke:rgb(8,7,6);stroke-width:16.04px;"/>
                </g>
                <g transform="matrix(0.469133,0.000257,0.000262,-0.478349,16775.557812,42193.670619)">
                    <path d="M306.383,365.949L344.684,365.949C389.359,365.949 425.531,380.844 425.531,417.016C425.531,448.93 402.121,470.207 351.059,470.207C329.789,470.207 314.887,468.078 306.383,465.949L306.383,365.949ZM304.254,170.215L223.406,170.215L223.406,519.141C255.32,523.398 299.996,529.789 357.445,529.789C423.402,529.789 453.188,519.141 476.594,502.121C497.875,487.23 512.766,461.703 512.766,427.66C512.766,385.102 480.852,357.445 440.422,344.684L440.422,340.426C474.465,329.777 491.488,302.125 502.121,255.316C512.766,202.125 521.27,182.977 527.656,170.215L442.555,170.215C431.918,182.977 425.531,212.762 414.887,255.316C408.512,291.488 387.23,308.512 342.555,308.512L304.254,308.512L304.254,170.215ZM89.363,351.059C89.363,195.738 206.383,72.344 361.703,72.344C512.766,70.215 627.656,195.738 627.656,348.93C627.656,504.25 512.766,629.785 357.445,629.785C206.383,629.785 89.363,504.25 89.363,351.059ZM717.02,351.059C717.02,155.32 559.57,0 359.574,0C159.578,0 0,155.32 0,351.059C0,546.809 159.578,700 361.703,700C559.57,700 717.02,546.809 717.02,351.059" style="fill-rule:nonzero;"/>
                </g>
            </g>
        </g>
    </g>
</svg>
