<?xml version="1.0" encoding="UTF-8" standalone="no"?>
<!DOCTYPE svg PUBLIC "-//W3C//DTD SVG 1.1//EN" "http://www.w3.org/Graphics/SVG/1.1/DTD/svg11.dtd">
<svg width="100%" height="100%" viewBox="0 0 1311 1311" version="1.1" xmlns="http://www.w3.org/2000/svg" xmlns:xlink="http://www.w3.org/1999/xlink" xml:space="preserve" xmlns:serif="http://www.serif.com/" style="fill-rule:evenodd;clip-rule:evenodd;">
    <g transform="matrix(1,0,0,1,-1014.629778,-5660.629777)">
        <rect id="Prancheta8" x="1130" y="5641" width="1080" height="1350" style="fill:none;"/>
        <clipPath id="_clip1">
            <rect id="Prancheta81" serif:id="Prancheta8" x="1130" y="5641" width="1080" height="1350"/>
        </clipPath>
        <g clip-path="url(#_clip1)">
            <g transform="matrix(14.025974,0,0,14.025974,-5690.550914,-11693.189564)">
                <g>
                    <g transform="matrix(0.019152,0,0,0.019152,484.880631,1244.089127)">
                        <g>
                            <g transform="matrix(5.555556,0,0,5.555556,0,0.000014)">
                                <g>
                                    <clipPath id="_clip2">
                                        <path d="M375,13.152C175.156,13.152 13.152,175.156 13.152,375C13.152,574.844 175.156,736.848 375,736.848C574.844,736.848 736.848,574.844 736.848,375C736.848,175.156 574.844,13.152 375,13.152Z"/>
                                    </clipPath>
                                    <g clip-path="url(#_clip2)">
                                        <g transform="matrix(1,0,0,1,13,13)">
                                            <g>
                                                <g>
                                                    <g>
                                                        <clipPath id="_clip3">
                                                            <path d="M362,0.152C162.156,0.152 0.152,162.156 0.152,362C0.152,561.844 162.156,723.848 362,723.848C561.844,723.848 723.848,561.844 723.848,362C723.848,162.156 561.844,0.152 362,0.152Z"/>
                                                        </clipPath>
                                                        <g clip-path="url(#_clip3)">
                                                            <rect x="0.152" y="0.152" width="723.695" height="723.695" style="fill:rgb(255,197,0);fill-rule:nonzero;"/>
                                                        </g>
                                                    </g>
                                                </g>
                                            </g>
                                        </g>
                                    </g>
                                </g>
                            </g>
                            <g transform="matrix(5.555556,0,0,5.555556,0,0.000014)">
                                <g>
                                    <clipPath id="_clip4">
                                        <path d="M374.996,13.152C175.156,13.152 13.152,175.156 13.152,374.996C13.152,574.84 175.156,736.844 374.996,736.844C574.84,736.844 736.844,574.84 736.844,374.996C736.844,175.156 574.84,13.152 374.996,13.152Z"/>
                                    </clipPath>
                                    <g clip-path="url(#_clip4)">
                                        <g transform="matrix(0.75,0,0,0.75,13.152315,13.152332)">
                                            <path d="M482.458,0C216.005,0 0,216.005 0,482.458C0,748.917 216.005,964.922 482.458,964.922C748.917,964.922 964.922,748.917 964.922,482.458C964.922,216.005 748.917,0 482.458,0Z" style="fill:none;fill-rule:nonzero;stroke:black;stroke-width:50px;"/>
                                        </g>
                                    </g>
                                </g>
                            </g>
                            <g transform="matrix(5.555556,0,0,5.555556,0,0.000014)">
                                <g>
                                    <g transform="matrix(1,0,0,1,153,153)">
                                        <g>
                                            <g>
                                                <g>
                                                    <clipPath id="_clip5">
                                                        <path d="M222,0.598C99.723,0.598 0.598,99.723 0.598,222C0.598,344.277 99.723,443.402 222,443.402C344.277,443.402 443.402,344.277 443.402,222C443.402,99.723 344.277,0.598 222,0.598Z"/>
                                                    </clipPath>
                                                    <g clip-path="url(#_clip5)">
                                                        <rect x="0.598" y="0.598" width="442.805" height="442.805" style="fill-rule:nonzero;"/>
                                                    </g>
                                                </g>
                                            </g>
                                        </g>
                                    </g>
                                </g>
                            </g>
                            <g transform="matrix(5.555556,0,0,5.555556,655.555556,1227.777792)">
                                <g>
                                    <g>
                                        <g>
                                            <g transform="matrix(1,0,0,1,52.521471,273.676895)">
                                                <g>
                                                    <path d="M-21.414,-256.941L100.672,-270.27L50.605,-214.238C52.652,-216.527 54.086,-218.941 54.906,-221.48C55.055,-221.938 55.164,-222.336 55.23,-222.684C55.238,-222.727 55.246,-222.758 55.246,-222.77C55.238,-222.719 55.23,-222.648 55.223,-222.562C54.977,-220.227 54.941,-217.34 55.109,-213.898C55.336,-209.289 55.645,-204.574 56.031,-199.762C56.406,-195.09 56.832,-190.863 57.309,-187.086C57.863,-182.707 58.277,-179.27 58.551,-176.777L70.469,-67.582C70.742,-65.086 71.078,-61.641 71.48,-57.246C71.828,-53.453 72.324,-49.238 72.965,-44.594C73.629,-39.809 74.344,-35.141 75.117,-30.59C75.695,-27.195 76.355,-24.383 77.094,-22.156C77.121,-22.074 77.145,-22.008 77.164,-21.957C77.16,-21.969 77.148,-21.996 77.129,-22.039C76.988,-22.363 76.797,-22.73 76.555,-23.145C75.203,-25.445 73.281,-27.492 70.793,-29.285L131.77,14.625L-65.016,36.102L-14.949,-19.93C-16.992,-17.641 -18.43,-15.227 -19.25,-12.688C-19.398,-12.23 -19.508,-11.832 -19.574,-11.484C-19.582,-11.441 -19.586,-11.41 -19.59,-11.398C-19.582,-11.449 -19.574,-11.52 -19.566,-11.605C-19.32,-13.941 -19.285,-16.828 -19.453,-20.27C-19.68,-24.879 -19.988,-29.59 -20.375,-34.406C-20.75,-39.078 -21.176,-43.305 -21.652,-47.082C-22.207,-51.461 -22.621,-54.895 -22.895,-57.391L-34.812,-166.586C-35.086,-169.082 -35.422,-172.523 -35.824,-176.922C-36.172,-180.711 -36.668,-184.93 -37.309,-189.574C-37.969,-194.359 -38.688,-199.023 -39.461,-203.578C-40.039,-206.973 -40.699,-209.785 -41.438,-212.012C-41.465,-212.094 -41.488,-212.16 -41.508,-212.207C-41.504,-212.195 -41.492,-212.168 -41.473,-212.125C-41.332,-211.805 -41.141,-211.438 -40.898,-211.023C-39.547,-208.723 -37.625,-206.676 -35.137,-204.879L-92.907,-248.828L-21.414,-256.941ZM-15.156,-199.613L-18.285,-228.277L-1.438,-251.68C5.207,-246.895 10.113,-239.738 13.281,-230.215C14.953,-225.195 16.32,-219.535 17.391,-213.238C18.266,-208.098 19.074,-202.84 19.816,-197.465C20.578,-191.949 21.176,-186.855 21.602,-182.188C21.977,-178.125 22.281,-175.008 22.516,-172.844L34.434,-63.648C34.672,-61.484 35.047,-58.375 35.559,-54.324C36.148,-49.676 36.664,-44.574 37.109,-39.023C37.543,-33.613 37.891,-28.305 38.145,-23.098C38.461,-16.719 38.34,-10.898 37.793,-5.633C36.754,4.348 33.508,12.395 28.051,18.496L6.551,-0.715L3.422,-29.379L50.812,-34.551L53.941,-5.887L37.094,17.512C30.449,12.727 25.543,5.574 22.375,-3.949C20.703,-8.973 19.336,-14.633 18.266,-20.93C17.391,-26.066 16.582,-31.324 15.84,-36.703C15.078,-42.219 14.484,-47.309 14.055,-51.977C13.68,-56.043 13.375,-59.16 13.141,-61.324L1.223,-170.52C0.984,-172.684 0.613,-175.793 0.098,-179.84C-0.492,-184.492 -1.008,-189.594 -1.453,-195.145C-1.887,-200.555 -2.234,-205.863 -2.488,-211.07C-2.801,-217.449 -2.684,-223.27 -2.137,-228.531C-1.098,-238.516 2.148,-246.559 7.605,-252.664L29.105,-233.453L32.234,-204.789L-15.156,-199.613Z" style="fill-rule:nonzero;"/>
                                                </g>
                                            </g>
                                        </g>
                                    </g>
                                    <g>
                                        <g transform="matrix(1,0,0,1,108.829663,266.561232)">
                                            <g>
                                                <path d="M55.52,25.879L-66.898,32.488L-13.836,-20.715C-16.004,-18.543 -17.566,-16.211 -18.527,-13.723C-18.699,-13.273 -18.828,-12.883 -18.914,-12.539C-18.926,-12.496 -18.934,-12.465 -18.938,-12.453C-18.926,-12.504 -18.914,-12.574 -18.898,-12.66C-18.531,-14.977 -18.336,-17.859 -18.316,-21.305C-18.289,-25.918 -18.336,-30.641 -18.457,-35.469C-18.578,-40.156 -18.773,-44.398 -19.043,-48.195C-19.355,-52.598 -19.582,-56.051 -19.719,-58.559L-25.637,-168.242C-25.773,-170.746 -25.922,-174.207 -26.082,-178.617C-26.223,-182.422 -26.488,-186.66 -26.871,-191.332C-27.27,-196.145 -27.73,-200.844 -28.254,-205.434C-28.645,-208.852 -29.148,-211.695 -29.766,-213.965C-29.789,-214.047 -29.809,-214.113 -29.824,-214.164C-29.82,-214.152 -29.812,-214.121 -29.797,-214.078C-29.672,-213.75 -29.504,-213.371 -29.281,-212.945C-28.059,-210.574 -26.254,-208.426 -23.863,-206.496L-82.344,-253.68L36.121,-260.074C51.113,-260.883 65.238,-258.688 78.488,-253.488C93.324,-247.668 105.43,-237.957 114.812,-224.355C123.938,-211.125 129.039,-194.562 130.113,-174.672C130.871,-160.574 129.082,-147.957 124.734,-136.82C120.336,-125.543 114.484,-116.445 107.172,-109.52C97.859,-100.691 87.918,-95.996 77.352,-95.426L74.242,-153.008C81.762,-153.414 88.902,-152.547 95.652,-150.41C102.75,-148.164 109.176,-144.602 114.926,-139.723C124.176,-131.883 131.297,-121.727 136.293,-109.258C140.691,-98.273 143.227,-86.59 143.895,-74.211C144.117,-70.086 144.102,-64.852 143.844,-58.508C143.531,-50.77 142.164,-42.668 139.742,-34.203C136.977,-24.523 132.367,-15.395 125.918,-6.816C118.852,2.582 109.332,10.23 97.359,16.129C85.973,21.738 72.023,24.988 55.52,25.879ZM52.41,-31.707C61.059,-32.172 67.547,-33.473 71.875,-35.605C75.621,-37.449 78.27,-39.406 79.824,-41.473C81.996,-44.359 83.488,-47.223 84.297,-50.055C85.453,-54.102 86.094,-57.695 86.223,-60.836C86.406,-65.367 86.434,-68.789 86.309,-71.102C85.984,-77.148 84.801,-82.719 82.758,-87.812C81.312,-91.426 79.602,-94.066 77.629,-95.738C77.77,-95.621 77.977,-95.516 78.246,-95.43L78.273,-95.414C78.039,-95.441 77.73,-95.445 77.352,-95.426L75.797,-124.215L74.242,-153.008C71.695,-152.871 69.484,-152.297 67.617,-151.289C67.309,-151.121 67.078,-150.984 66.93,-150.871C67.062,-150.969 67.254,-151.141 67.512,-151.383C68.57,-152.387 69.738,-154.52 71.008,-157.777C72.332,-161.172 72.84,-165.766 72.527,-171.562C72.039,-180.625 70.309,-187.309 67.34,-191.613C64.629,-195.547 61.324,-198.277 57.426,-199.805C51.949,-201.953 45.883,-202.848 39.23,-202.492L-4.203,-200.145L-5.758,-228.938L12.348,-251.379C18.719,-246.238 23.227,-238.828 25.867,-229.145C27.262,-224.039 28.32,-218.312 29.043,-211.965C29.633,-206.785 30.152,-201.492 30.602,-196.086C31.059,-190.535 31.375,-185.418 31.547,-180.73C31.695,-176.652 31.828,-173.527 31.945,-171.352L37.867,-61.668C37.984,-59.492 38.188,-56.367 38.48,-52.297C38.812,-47.621 39.051,-42.5 39.191,-36.934C39.328,-31.508 39.383,-26.188 39.352,-20.973C39.316,-14.586 38.883,-8.781 38.047,-3.555C36.461,6.355 32.777,14.211 26.996,20.008L6.582,-0.355L5.027,-29.148L52.41,-31.707ZM72.484,-105.117L76.215,-36.016L47.422,-34.461L45.867,-63.254L49.816,-63.469L53.324,-63.656C53.016,-63.641 52.559,-63.512 51.953,-63.27C50.895,-62.844 49.938,-62.234 49.094,-61.434C48.992,-61.34 48.914,-61.25 48.867,-61.172C48.961,-61.324 49.062,-61.594 49.184,-61.977C49.805,-64.012 50.051,-66.25 49.918,-68.699C49.73,-72.168 49.316,-74.859 48.68,-76.77C48.559,-77.129 48.469,-77.359 48.414,-77.457C48.59,-77.148 48.859,-76.809 49.223,-76.438C49.492,-76.156 49.98,-75.879 50.684,-75.598C51.473,-75.285 52.148,-75.145 52.703,-75.172L45.246,-74.77L43.691,-103.562L72.484,-105.117ZM13.344,-130.801L49.594,-132.758C57.465,-133.184 64.922,-131.996 71.973,-129.195C78.934,-126.43 85.152,-122.227 90.625,-116.582C100.832,-106.051 106.461,-91.125 107.504,-71.805C108.004,-62.551 106.941,-53.648 104.324,-45.094C101.215,-34.934 95.992,-26.398 88.664,-19.484C84.188,-15.266 79.09,-12.008 73.359,-9.719C68.09,-7.613 62.445,-6.395 56.434,-6.07L52.926,-5.883L20.184,-4.113L14.898,-102.008L13.344,-130.801ZM42.02,-171.18L40.047,-171.074L38.492,-199.867L67.285,-201.418L70.766,-136.926L41.973,-135.371L40.418,-164.164L41.957,-164.246L41.918,-164.223C41.527,-164.145 41.094,-164.008 40.621,-163.816C39.008,-163.164 37.555,-162.148 36.262,-160.77C35.918,-160.398 35.648,-160.027 35.465,-159.652C35.43,-159.586 35.41,-159.543 35.406,-159.531C35.445,-159.641 35.48,-159.789 35.523,-159.977C36.109,-162.773 36.312,-165.832 36.137,-169.156C36.023,-171.195 35.617,-173.199 34.914,-175.172L34.898,-175.223C34.945,-175.129 35.008,-175.023 35.086,-174.91C35.316,-174.574 35.594,-174.266 35.918,-173.996C37.383,-172.77 38.961,-171.922 40.648,-171.453C41.137,-171.32 41.578,-171.234 41.969,-171.195L42.02,-171.18ZM38.914,-228.766C44.977,-229.094 50.684,-228.516 56.043,-227.031C62.383,-225.273 68.012,-222.336 72.934,-218.215C80.402,-211.965 85.836,-204.074 89.234,-194.543C91.812,-187.305 93.309,-179.883 93.719,-172.266C94.172,-163.891 93.582,-155.836 91.953,-148.094C89.734,-137.559 85.188,-128.629 78.312,-121.305C73.832,-116.531 68.488,-112.883 62.281,-110.371C57.008,-108.23 51.27,-106.996 45.062,-106.66L14.734,-105.023L8.145,-227.105L38.914,-228.766Z" style="fill-rule:nonzero;"/>
                                            </g>
                                        </g>
                                    </g>
                                    <g>
                                        <g transform="matrix(1,0,0,1,227.566134,260.890901)">
                                            <g>
                                                <path d="M6.812,-257.746L129.625,-257.641L73.73,-207.422C76.012,-209.473 77.703,-211.715 78.797,-214.148C78.996,-214.586 79.145,-214.973 79.25,-215.309C79.262,-215.352 79.273,-215.379 79.273,-215.391C79.262,-215.34 79.246,-215.273 79.227,-215.188C78.73,-212.895 78.379,-210.027 78.172,-206.59C77.891,-201.98 77.68,-197.266 77.539,-192.438C77.402,-187.75 77.363,-183.504 77.426,-179.695C77.496,-175.285 77.531,-171.824 77.531,-169.312L77.438,-59.469C77.434,-56.961 77.395,-53.5 77.312,-49.086C77.246,-45.281 77.273,-41.031 77.406,-36.348C77.539,-31.52 77.742,-26.801 78.012,-22.191C78.215,-18.754 78.562,-15.887 79.055,-13.59C79.074,-13.508 79.09,-13.438 79.102,-13.387C79.098,-13.402 79.09,-13.43 79.078,-13.473C78.973,-13.809 78.824,-14.195 78.629,-14.633C77.535,-17.07 75.852,-19.312 73.57,-21.371L129.379,28.945L-68.574,28.777L-12.68,-21.441C-14.965,-19.391 -16.652,-17.148 -17.75,-14.715C-17.945,-14.277 -18.098,-13.895 -18.199,-13.559C-18.215,-13.512 -18.223,-13.484 -18.227,-13.473C-18.211,-13.523 -18.195,-13.59 -18.18,-13.676C-17.68,-15.969 -17.328,-18.836 -17.121,-22.273C-16.84,-26.883 -16.633,-31.602 -16.488,-36.426C-16.352,-41.113 -16.312,-45.359 -16.375,-49.168C-16.449,-53.578 -16.484,-57.039 -16.48,-59.551L-16.387,-169.395C-16.387,-171.902 -16.344,-175.363 -16.266,-179.777C-16.195,-183.582 -16.227,-187.832 -16.355,-192.516C-16.488,-197.344 -16.691,-202.062 -16.965,-206.672C-17.164,-210.109 -17.512,-212.977 -18.008,-215.273C-18.023,-215.355 -18.039,-215.426 -18.055,-215.477C-18.051,-215.461 -18.043,-215.434 -18.027,-215.391C-17.926,-215.055 -17.773,-214.668 -17.578,-214.23C-16.484,-211.793 -14.801,-209.551 -12.52,-207.492L-68.332,-257.809L6.812,-257.746ZM6.762,-200.074L6.785,-228.91L26.094,-250.324C32.176,-244.844 36.27,-237.195 38.375,-227.383C39.488,-222.207 40.23,-216.434 40.605,-210.059C40.914,-204.855 41.141,-199.539 41.293,-194.113C41.445,-188.547 41.48,-183.422 41.395,-178.734C41.32,-174.652 41.285,-171.523 41.281,-169.344L41.188,-59.5C41.188,-57.324 41.219,-54.191 41.285,-50.113C41.363,-45.422 41.32,-40.297 41.156,-34.73C40.996,-29.305 40.758,-23.992 40.441,-18.789C40.059,-12.414 39.305,-6.641 38.184,-1.469C36.059,8.344 31.953,15.984 25.863,21.453L6.59,0.004L6.617,-28.828L54.289,-28.789L54.262,0.047L34.957,21.461C28.875,15.98 24.781,8.332 22.672,-1.48C21.562,-6.656 20.816,-12.43 20.441,-18.805C20.137,-24.008 19.91,-29.324 19.758,-34.75C19.605,-40.316 19.57,-45.441 19.652,-50.129C19.727,-54.211 19.766,-57.34 19.77,-59.52L19.863,-169.363C19.863,-171.539 19.832,-174.672 19.766,-178.754C19.688,-183.441 19.73,-188.566 19.895,-194.133C20.055,-199.559 20.293,-204.871 20.605,-210.074C20.992,-216.449 21.746,-222.223 22.867,-227.395C24.992,-237.207 29.098,-244.848 35.188,-250.316L54.457,-228.867L54.434,-200.035L6.762,-200.074Z" style="fill-rule:nonzero;"/>
                                            </g>
                                        </g>
                                    </g>
                                    <g>
                                        <g>
                                            <g transform="matrix(1,0,0,1,284.375913,260.029502)">
                                                <g>
                                                    <path d="M18.5,-257.121L158.508,-249.445L151.789,-126.934L108.664,-159.23C107.371,-160.195 106.207,-160.914 105.172,-161.387C104.324,-161.773 102.883,-162.16 100.852,-162.551C97.844,-163.129 93.477,-163.574 87.754,-163.887L89.332,-192.676L118.125,-191.098L110.379,-49.832L52.797,-52.988L52.812,-53.281L81.602,-51.703L110.395,-50.125L110.391,-50.051L110.316,-48.734L52.734,-51.895L52.797,-52.988L110.379,-49.832C110.348,-49.301 110.277,-47.379 110.164,-44.062C110.059,-40.922 110.016,-37.082 110.039,-32.539C110.059,-28.297 110.234,-23.973 110.566,-19.562C110.855,-15.672 111.289,-12.309 111.859,-9.473C111.906,-9.238 111.949,-9.062 111.977,-8.957C111.938,-9.094 111.867,-9.285 111.77,-9.531C111.09,-11.191 110.023,-12.836 108.559,-14.465L155.016,37.379L-42.926,26.523L14.926,-20.551C12.859,-18.867 11.289,-17.051 10.219,-15.098C10.055,-14.801 9.934,-14.559 9.855,-14.367C9.891,-14.449 9.941,-14.602 10.012,-14.824C10.91,-17.691 11.723,-21.066 12.445,-24.945C13.258,-29.293 13.906,-33.57 14.391,-37.785C14.906,-42.297 15.285,-46.121 15.523,-49.254C15.773,-52.559 15.914,-54.48 15.941,-55.012L73.277,-57.531C73.285,-57.457 73.293,-57.398 73.301,-57.355C73.297,-57.371 73.293,-57.402 73.285,-57.453C73.172,-58.109 73.008,-58.824 72.797,-59.594L72.828,-59.484L45.016,-51.875L17.203,-44.27L16.605,-46.449L16.352,-48.223C15.309,-55.492 16.461,-62.062 19.809,-67.934L19.852,-68.004C20.789,-69.648 21.879,-71.188 23.121,-72.617C24.359,-74.047 25.73,-75.34 27.227,-76.5C28.723,-77.66 30.316,-78.664 32.012,-79.512C33.703,-80.355 35.465,-81.031 37.289,-81.527C39.117,-82.027 40.973,-82.344 42.863,-82.48C44.75,-82.613 46.633,-82.559 48.512,-82.324C50.391,-82.086 52.227,-81.668 54.023,-81.066C55.82,-80.469 57.539,-79.699 59.184,-78.762C60.828,-77.824 62.367,-76.734 63.797,-75.492C65.227,-74.25 66.52,-72.883 67.68,-71.387C68.84,-69.891 69.844,-68.297 70.691,-66.602C71.535,-64.91 72.211,-63.148 72.711,-61.324C73.207,-59.496 73.523,-57.641 73.66,-55.75C73.793,-53.863 73.742,-51.977 73.504,-50.102C73.266,-48.223 72.848,-46.383 72.246,-44.59C71.648,-42.793 70.879,-41.074 69.941,-39.43L69.777,-39.145L15.941,-55.012L16.617,-67.293L17.809,-89.012L19.285,-115.992L20.828,-144.07L22.223,-169.516L23.258,-188.379L23.691,-196.277L52.48,-194.699L50.902,-165.906C45.18,-166.223 40.789,-166.258 37.738,-166.012C35.676,-165.848 34.199,-165.617 33.316,-165.328C32.039,-164.906 30.551,-164.223 28.859,-163.27L-16.934,-137.539L-10.289,-258.703L18.5,-257.121ZM15.344,-199.539L16.922,-228.332L45.715,-226.754L43.523,-186.828L14.734,-188.406L0.609,-213.547C5.574,-216.336 10.48,-218.527 15.324,-220.117C20.562,-221.84 26.5,-222.965 33.129,-223.496C38.77,-223.949 45.746,-223.945 54.059,-223.488L82.852,-221.91L80.84,-185.223L79.805,-166.359L78.41,-140.914L76.871,-112.836L75.391,-85.852L74.199,-64.137L73.523,-51.852L44.734,-53.43L19.688,-67.719L19.852,-68.004L44.895,-53.715L69.941,-39.426L69.902,-39.355C72.531,-43.969 73.773,-48.855 73.625,-54.023C73.602,-54.902 73.539,-55.703 73.434,-56.422L44.895,-52.324L72.707,-59.93L72.828,-59.484C73.328,-57.656 73.645,-55.801 73.777,-53.91C73.91,-52.023 73.859,-50.137 73.621,-48.262C73.383,-46.383 72.965,-44.543 72.367,-42.75C71.77,-40.953 71,-39.234 70.062,-37.59C69.121,-35.945 68.031,-34.406 66.793,-32.977C65.551,-31.547 64.184,-30.25 62.688,-29.09C61.191,-27.93 59.594,-26.926 57.902,-26.082C56.207,-25.234 54.449,-24.562 52.621,-24.062C50.797,-23.562 48.938,-23.246 47.051,-23.113C45.16,-22.98 43.277,-23.031 41.398,-23.27C39.52,-23.508 37.684,-23.926 35.887,-24.523C34.094,-25.125 32.371,-25.891 30.727,-26.832C29.082,-27.77 27.547,-28.859 26.117,-30.098C24.688,-31.34 23.391,-32.707 22.23,-34.203C21.07,-35.699 20.066,-37.297 19.223,-38.988C18.375,-40.684 17.703,-42.441 17.203,-44.27L17.172,-44.383C16.793,-45.758 16.469,-47.41 16.191,-49.332L44.734,-53.43L73.523,-51.852C73.473,-50.922 73.309,-48.602 73.027,-44.898C72.734,-41.02 72.285,-36.453 71.68,-31.199C71.043,-25.648 70.195,-20.035 69.137,-14.367C67.992,-8.227 66.625,-2.625 65.035,2.438C62.062,11.914 57.492,19.164 51.32,24.184L33.125,1.816L34.703,-26.977L88.664,-24.016L87.086,4.777L65.609,24.02C60.598,18.422 57.168,11.059 55.328,1.922C54.285,-3.254 53.527,-8.977 53.059,-15.246C52.625,-21 52.398,-26.672 52.371,-32.262C52.344,-37.547 52.398,-42.137 52.527,-46.023C52.656,-49.734 52.742,-52.059 52.797,-52.988L81.586,-51.41L110.379,-49.832L110.316,-48.734L81.527,-50.312L52.734,-51.895L52.809,-53.207L52.812,-53.281C52.914,-55.172 53.203,-57.035 53.672,-58.867C54.145,-60.703 54.789,-62.473 55.605,-64.18C56.426,-65.887 57.402,-67.496 58.539,-69.012C59.676,-70.527 60.949,-71.914 62.359,-73.18C63.77,-74.441 65.289,-75.555 66.918,-76.52C68.551,-77.484 70.258,-78.277 72.043,-78.906C73.828,-79.535 75.66,-79.98 77.535,-80.25C79.406,-80.516 81.289,-80.598 83.18,-80.492C85.07,-80.391 86.934,-80.102 88.77,-79.633C90.602,-79.164 92.371,-78.516 94.078,-77.699C95.785,-76.879 97.395,-75.902 98.91,-74.766C100.426,-73.629 101.812,-72.355 103.078,-70.945C104.34,-69.535 105.453,-68.016 106.418,-66.387C107.383,-64.758 108.18,-63.047 108.805,-61.262C109.434,-59.477 109.883,-57.645 110.148,-55.77C110.414,-53.898 110.496,-52.016 110.395,-50.125L110.379,-49.832L81.586,-51.41L52.797,-52.988L62.121,-223.047L90.914,-221.469C99.227,-221.012 106.164,-220.25 111.719,-219.188C118.25,-217.934 124.027,-216.164 129.047,-213.883C133.879,-211.684 138.605,-208.855 143.23,-205.391L125.949,-182.309L97.156,-183.887L99.348,-223.812L128.137,-222.23L126.559,-193.441L15.344,-199.539Z" style="fill-rule:nonzero;"/>
                                                </g>
                                            </g>
                                        </g>
                                    </g>
                                    <g>
                                        <g>
                                            <g transform="matrix(1,0,0,1,400.242745,267.073818)">
                                                <g>
                                                    <path d="M34.52,-255.512L152.585,-242.858L95.629,-198.277C98.121,-200.07 100.043,-202.117 101.395,-204.422C101.637,-204.832 101.828,-205.203 101.969,-205.523C101.984,-205.566 101.996,-205.594 102.004,-205.605C101.984,-205.559 101.961,-205.492 101.934,-205.41C101.191,-203.18 100.531,-200.367 99.957,-196.973C99.184,-192.422 98.465,-187.754 97.805,-182.973C97.164,-178.328 96.668,-174.109 96.32,-170.316C95.918,-165.922 95.578,-162.477 95.309,-159.984L83.387,-50.789C83.117,-48.293 82.703,-44.855 82.148,-40.477C81.672,-36.699 81.242,-32.477 80.867,-27.805C80.48,-22.988 80.176,-18.277 79.949,-13.664C79.777,-10.227 79.816,-7.34 80.059,-5C80.07,-4.914 80.078,-4.848 80.086,-4.797C80.082,-4.809 80.078,-4.836 80.066,-4.883C80,-5.227 79.895,-5.629 79.746,-6.082C78.922,-8.621 77.488,-11.035 75.445,-13.324L125.512,42.703L-71.273,21.227L-10.297,-22.684C-12.789,-20.891 -14.711,-18.844 -16.062,-16.539C-16.305,-16.129 -16.496,-15.762 -16.637,-15.438C-16.652,-15.395 -16.664,-15.367 -16.668,-15.355C-16.652,-15.402 -16.629,-15.469 -16.602,-15.551C-15.859,-17.781 -15.199,-20.594 -14.625,-23.988C-13.852,-28.539 -13.133,-33.207 -12.473,-37.992C-11.832,-42.633 -11.336,-46.852 -10.988,-50.645C-10.586,-55.039 -10.246,-58.484 -9.973,-60.977L1.945,-170.172C2.215,-172.668 2.629,-176.105 3.184,-180.484C3.664,-184.262 4.09,-188.484 4.465,-193.16C4.852,-197.973 5.156,-202.684 5.383,-207.297C5.555,-210.734 5.516,-213.625 5.273,-215.961C5.266,-216.047 5.254,-216.113 5.25,-216.168C5.25,-216.152 5.254,-216.125 5.266,-216.078C5.332,-215.734 5.438,-215.332 5.586,-214.879C6.41,-212.34 7.844,-209.926 9.891,-207.637L-40.18,-263.668L34.52,-255.512ZM28.262,-198.184L31.391,-226.848L52.891,-246.062C58.344,-239.957 61.594,-231.914 62.633,-221.93C63.18,-216.668 63.297,-210.844 62.984,-204.465C62.727,-199.258 62.383,-193.949 61.949,-188.543C61.504,-182.992 60.984,-177.891 60.395,-173.238C59.883,-169.188 59.508,-166.082 59.273,-163.918L47.355,-54.719C47.117,-52.555 46.812,-49.441 46.441,-45.375C46.012,-40.707 45.418,-35.613 44.656,-30.098C43.91,-24.723 43.105,-19.465 42.23,-14.324C41.16,-8.027 39.789,-2.371 38.121,2.652C34.949,12.176 30.047,19.328 23.402,24.113L6.551,0.715L9.68,-27.949L57.07,-22.777L53.941,5.887L32.441,25.102C26.988,18.996 23.738,10.953 22.699,0.969C22.152,-4.293 22.035,-10.117 22.348,-16.496C22.605,-21.703 22.949,-27.012 23.383,-32.422C23.832,-37.973 24.348,-43.07 24.938,-47.723C25.449,-51.773 25.824,-54.879 26.059,-57.043L37.98,-166.242C38.215,-168.406 38.52,-171.52 38.891,-175.586C39.32,-180.254 39.914,-185.348 40.68,-190.863C41.422,-196.238 42.23,-201.496 43.102,-206.637C44.172,-212.934 45.543,-218.59 47.215,-223.613C50.383,-233.137 55.289,-240.293 61.93,-245.074L78.781,-221.676L75.652,-193.012L28.262,-198.184Z" style="fill-rule:nonzero;"/>
                                                </g>
                                            </g>
                                        </g>
                                    </g>
                                    <g>
                                        <g transform="matrix(1,0,0,1,52.521471,273.676895)">
                                            <g>
                                                <path d="M-18.266,-228.281L29.109,-233.453C27.785,-231.973 26.926,-229.332 26.531,-225.531C26.145,-221.738 26.07,-217.391 26.312,-212.484C26.551,-207.578 26.875,-202.566 27.281,-197.453C27.695,-192.348 28.172,-187.688 28.703,-183.469C29.242,-179.25 29.641,-175.973 29.891,-173.641L41.812,-64.453C42.062,-62.117 42.379,-58.836 42.766,-54.609C43.148,-50.391 43.691,-45.738 44.391,-40.656C45.098,-35.57 45.863,-30.609 46.688,-25.766C47.508,-20.922 48.52,-16.68 49.719,-13.047C50.926,-9.422 52.332,-7.035 53.938,-5.891L6.562,-0.719C7.863,-2.188 8.711,-4.82 9.109,-8.625C9.504,-12.426 9.578,-16.781 9.328,-21.688C9.086,-26.594 8.758,-31.602 8.344,-36.719C7.938,-41.832 7.469,-46.492 6.938,-50.703C6.406,-54.91 6.016,-58.18 5.766,-60.516L-6.156,-169.703C-6.406,-172.035 -6.723,-175.316 -7.109,-179.547C-7.504,-183.785 -8.051,-188.441 -8.75,-193.516C-9.457,-198.598 -10.219,-203.562 -11.031,-208.406C-11.852,-213.25 -12.867,-217.484 -14.078,-221.109C-15.285,-224.734 -16.68,-227.125 -18.266,-228.281Z" style="fill:rgb(255,253,234);fill-rule:nonzero;"/>
                                            </g>
                                        </g>
                                    </g>
                                    <g>
                                        <g transform="matrix(1,0,0,1,108.829663,266.561232)">
                                            <g>
                                                <path d="M53.969,-2.906L6.578,-0.359C7.961,-1.754 8.957,-4.336 9.562,-8.109C10.176,-11.891 10.492,-16.234 10.516,-21.141C10.547,-26.055 10.492,-31.078 10.359,-36.203C10.234,-41.328 10.02,-46.004 9.719,-50.234C9.414,-54.473 9.203,-57.758 9.078,-60.094L3.156,-169.781C3.031,-172.125 2.891,-175.422 2.734,-179.672C2.578,-183.922 2.285,-188.598 1.859,-193.703C1.441,-198.816 0.953,-203.816 0.391,-208.703C-0.16,-213.586 -0.941,-217.867 -1.953,-221.547C-2.961,-225.234 -4.234,-227.703 -5.766,-228.953L37.672,-231.297C48.492,-231.879 58.586,-230.332 67.953,-226.656C77.328,-222.977 85.035,-216.754 91.078,-207.984C97.129,-199.211 100.547,-187.586 101.328,-173.109C101.859,-163.172 100.707,-154.566 97.875,-147.297C95.051,-140.035 91.539,-134.422 87.344,-130.453C83.156,-126.484 79.301,-124.406 75.781,-124.219C83.832,-124.656 90.664,-122.492 96.281,-117.734C101.895,-112.973 106.305,-106.57 109.516,-98.531C112.734,-90.488 114.594,-81.863 115.094,-72.656C115.27,-69.438 115.25,-65.109 115.031,-59.672C114.812,-54.234 113.805,-48.383 112.016,-42.125C110.234,-35.863 107.188,-29.867 102.875,-24.141C98.562,-18.41 92.473,-13.609 84.609,-9.734C76.754,-5.867 66.539,-3.594 53.969,-2.906ZM43.672,-103.578L47.406,-34.469C48.875,-34.539 50.191,-34.609 51.359,-34.672C52.535,-34.734 53.707,-34.797 54.875,-34.859C60.582,-35.172 65.25,-37.035 68.875,-40.453C72.508,-43.867 75.133,-48.227 76.75,-53.531C78.363,-58.832 79.016,-64.406 78.703,-70.25C78.047,-82.383 75.113,-91.133 69.906,-96.5C64.707,-101.875 58.453,-104.363 51.141,-103.969L43.672,-103.578ZM40.469,-199.969L38.484,-199.859L41.969,-135.375L43.516,-135.453C49.504,-135.773 54.094,-137.633 57.281,-141.031C60.469,-144.438 62.613,-148.77 63.719,-154.031C64.832,-159.289 65.234,-164.848 64.922,-170.703C64.66,-175.535 63.707,-180.25 62.062,-184.844C60.426,-189.445 57.879,-193.195 54.422,-196.094C50.961,-198.988 46.312,-200.281 40.469,-199.969Z" style="fill:rgb(255,253,234);fill-rule:nonzero;"/>
                                            </g>
                                        </g>
                                    </g>
                                    <g>
                                        <g transform="matrix(1,0,0,1,227.566134,260.890901)">
                                            <g>
                                                <path d="M6.797,-228.922L54.469,-228.875C52.988,-227.551 51.848,-225.02 51.047,-221.281C50.242,-217.551 49.691,-213.234 49.391,-208.328C49.086,-203.422 48.859,-198.406 48.703,-193.281C48.555,-188.156 48.516,-183.469 48.578,-179.219C48.648,-174.969 48.688,-171.672 48.688,-169.328L48.594,-59.484C48.594,-57.141 48.551,-53.844 48.469,-49.594C48.395,-45.352 48.43,-40.672 48.578,-35.547C48.723,-30.422 48.941,-25.406 49.234,-20.5C49.523,-15.594 50.066,-11.27 50.859,-7.531C51.66,-3.801 52.797,-1.273 54.266,0.047L6.594,0C8.051,-1.32 9.188,-3.848 10,-7.578C10.812,-11.305 11.363,-15.625 11.656,-20.531C11.957,-25.438 12.18,-30.453 12.328,-35.578C12.473,-40.703 12.508,-45.383 12.438,-49.625C12.375,-53.875 12.344,-57.172 12.344,-59.516L12.438,-169.359C12.438,-171.703 12.473,-175 12.547,-179.25C12.629,-183.5 12.598,-188.188 12.453,-193.312C12.316,-198.438 12.102,-203.453 11.812,-208.359C11.531,-213.266 10.984,-217.586 10.172,-221.328C9.367,-225.066 8.242,-227.598 6.797,-228.922Z" style="fill:rgb(255,253,234);fill-rule:nonzero;"/>
                                            </g>
                                        </g>
                                    </g>
                                    <g>
                                        <g transform="matrix(1,0,0,1,284.375913,260.029502)">
                                            <g>
                                                <path d="M16.922,-228.344L128.141,-222.234L125.953,-182.312C122.984,-184.52 120.031,-186.289 117.094,-187.625C114.164,-188.957 110.555,-190.035 106.266,-190.859C101.984,-191.68 96.332,-192.285 89.312,-192.672L81.578,-51.406C81.586,-51.695 81.586,-51.77 81.578,-51.625C81.578,-51.477 81.555,-51.039 81.516,-50.312L81.578,-51.406C81.535,-50.676 81.457,-48.555 81.344,-45.047C81.227,-41.535 81.18,-37.32 81.203,-32.406C81.223,-27.488 81.422,-22.488 81.797,-17.406C82.18,-12.332 82.773,-7.789 83.578,-3.781C84.391,0.219 85.562,3.07 87.094,4.781L33.125,1.812C34.82,0.438 36.289,-2.227 37.531,-6.188C38.77,-10.156 39.852,-14.645 40.781,-19.656C41.719,-24.664 42.469,-29.613 43.031,-34.5C43.594,-39.383 44.004,-43.578 44.266,-47.078C44.535,-50.586 44.691,-52.707 44.734,-53.438C44.836,-52.695 44.922,-52.211 44.984,-51.984C45.047,-51.766 45.016,-51.879 44.891,-52.328C44.785,-53.066 44.77,-53.504 44.844,-53.641C44.926,-53.785 44.891,-53.719 44.734,-53.438C44.848,-55.625 45.066,-59.719 45.391,-65.719C45.723,-71.719 46.117,-78.957 46.578,-87.438C47.047,-95.914 47.539,-104.906 48.062,-114.406C48.594,-123.914 49.109,-133.273 49.609,-142.484C50.117,-151.703 50.582,-160.188 51,-167.938C51.426,-175.688 51.77,-181.973 52.031,-186.797C52.301,-191.629 52.445,-194.266 52.469,-194.703C45.457,-195.086 39.773,-195.102 35.422,-194.75C31.078,-194.395 27.375,-193.711 24.312,-192.703C21.258,-191.703 18.066,-190.273 14.734,-188.422L16.922,-228.344Z" style="fill:rgb(255,253,234);fill-rule:nonzero;"/>
                                            </g>
                                        </g>
                                    </g>
                                    <g>
                                        <g transform="matrix(1,0,0,1,400.242745,267.073818)">
                                            <g>
                                                <path d="M31.391,-226.844L78.766,-221.672C77.172,-220.523 75.77,-218.133 74.562,-214.5C73.363,-210.875 72.352,-206.641 71.531,-201.797C70.707,-196.953 69.941,-191.988 69.234,-186.906C68.535,-181.832 67.988,-177.18 67.594,-172.953C67.207,-168.723 66.891,-165.441 66.641,-163.109L54.719,-53.922C54.469,-51.586 54.078,-48.312 53.547,-44.094C53.016,-39.883 52.539,-35.223 52.125,-30.109C51.719,-24.992 51.395,-19.984 51.156,-15.078C50.914,-10.172 50.988,-5.816 51.375,-2.016C51.77,1.773 52.625,4.41 53.938,5.891L6.562,0.719C8.156,-0.438 9.555,-2.828 10.766,-6.453C11.973,-10.078 12.984,-14.312 13.797,-19.156C14.617,-24 15.379,-28.961 16.078,-34.047C16.785,-39.129 17.332,-43.785 17.719,-48.016C18.102,-52.242 18.422,-55.523 18.672,-57.859L30.594,-167.047C30.844,-169.379 31.234,-172.648 31.766,-176.859C32.305,-181.078 32.781,-185.738 33.188,-190.844C33.602,-195.957 33.93,-200.969 34.172,-205.875C34.422,-210.781 34.348,-215.133 33.953,-218.938C33.555,-222.738 32.703,-225.375 31.391,-226.844Z" style="fill:rgb(255,253,234);fill-rule:nonzero;"/>
                                            </g>
                                        </g>
                                    </g>
                                </g>
                            </g>
                            <g transform="matrix(5.555556,0,0,5.555556,0,0.000014)">
                                <g transform="matrix(1,0,0,1,347,249)">
                                    <g>
                                        <g>
                                            <rect x="0.883" y="0.074" width="61.516" height="113.902" style="fill-rule:nonzero;"/>
                                        </g>
                                    </g>
                                </g>
                            </g>
                            <g transform="matrix(5.555556,0,0,5.555556,0,0.000014)">
                                <path d="M384.02,253.988L368.488,253.988L368.703,253.406C368.742,253.293 368.781,253.184 368.82,253.074L368.863,252.949C368.992,252.527 369.16,252.117 369.371,251.727C369.652,251.328 370.039,251.121 370.527,251.105C373.031,251.086 375.629,251.082 377.867,251.082L381.977,251.082C382.281,251.062 382.559,251.137 382.812,251.309C383.062,251.477 383.238,251.711 383.332,252C383.414,252.23 383.496,252.469 383.578,252.715L383.664,252.969C383.691,253.043 383.715,253.117 383.738,253.188C383.766,253.258 383.785,253.328 383.812,253.402L384.02,253.988ZM383.012,258.703L382.961,258.469L382.961,258.441C382.805,257.762 382.656,257.125 382.559,256.477C382.445,255.754 382.09,255.449 381.363,255.449L381.344,255.449C380.02,255.457 378.582,255.457 376.668,255.457L371.195,255.457C371.055,255.457 370.914,255.457 370.777,255.477L370.672,255.477C370.617,255.477 370.559,255.477 370.504,255.492L370.172,255.516L370.105,255.836L369.863,256.973L369.395,259.305L369.293,259.82L383.266,259.82L383.152,259.297C383.105,259.09 383.059,258.891 383.012,258.703Z" style="fill:rgb(255,253,234);fill-rule:nonzero;"/>
                            </g>
                            <g transform="matrix(5.555556,0,0,5.555556,0,0.000014)">
                                <path d="M392.559,339.172C392.559,338.805 392.547,338.352 392.547,337.918L392.547,329.539C392.547,319.594 392.535,308.035 392.547,296.703C392.566,295.602 392.379,294.539 391.98,293.512C391.582,292.488 391.008,291.574 390.25,290.777C389.762,290.25 389.238,289.73 388.746,289.25C388.555,289.062 388.359,288.875 388.172,288.68C386.617,287.16 385.664,285.324 385.316,283.176C384.703,279.461 384.121,275.723 383.559,272.109C383.305,270.457 383.047,268.809 382.789,267.156C382.586,265.887 382.379,264.594 382.176,263.344C382.129,263.035 382.078,262.727 382.027,262.414C381.984,262.16 381.945,261.902 381.902,261.645L381.844,261.281L370.648,261.281L370.59,261.645L370.52,262.078L370.473,262.352C370.434,262.59 370.395,262.824 370.359,263.062C370.117,264.605 369.848,266.305 369.512,268.418L369.484,268.574C368.809,272.805 368.109,277.176 367.504,281.488C367.008,285.008 365.73,287.562 363.492,289.516C362.945,290.004 362.441,290.535 361.977,291.102C361.324,291.855 360.824,292.703 360.477,293.637C360.129,294.57 359.953,295.539 359.953,296.535L359.953,340.621C359.953,343.258 361.715,345.027 364.328,345.027L373.797,345.027C378.652,345.027 383.629,345.027 388.281,345.016C390.832,345.016 392.555,343.285 392.574,340.711C392.578,340.188 392.57,339.648 392.559,339.172ZM362.977,305.691C362.977,304.781 363.363,304.727 363.57,304.699C363.621,304.691 363.676,304.688 363.73,304.684C364.324,304.684 364.418,305.215 364.418,305.527L364.418,329.027C364.418,330.086 363.926,330.086 363.719,330.086C363.504,330.098 363.324,330.02 363.188,329.855C363.023,329.609 362.953,329.34 362.969,329.047C362.965,321.555 362.969,314.133 362.977,305.691ZM364.402,299.156C364.402,299.699 364.348,300.07 364.219,300.281C364.152,300.391 364.035,300.496 363.711,300.508L363.695,300.508C363.531,300.523 363.387,300.477 363.266,300.363C363.074,300.168 362.98,299.746 362.984,299.109L362.984,298.809C363.008,295.277 364.344,292.352 366.938,290.105C367.152,289.895 367.41,289.773 367.711,289.742C367.891,289.746 368.043,289.816 368.16,289.957C368.293,290.09 368.355,290.25 368.352,290.438C368.305,290.734 368.16,290.969 367.918,291.145C365.504,293.211 364.344,295.836 364.402,299.156Z" style="fill:rgb(255,253,234);fill-rule:nonzero;"/>
                            </g>
                            <g transform="matrix(5.555556,0,0,5.555556,0,0.000014)">
                                <g>
                                    <g transform="matrix(1,0,0,1,77,231)">
                                        <g>
                                            <g>
                                                <g>
                                                    <path d="M0.219,6.02L130.867,0.148L132.051,26.527L1.402,32.395L0.219,6.02Z" style="fill-rule:nonzero;"/>
                                                </g>
                                            </g>
                                        </g>
                                    </g>
                                </g>
                            </g>
                            <g transform="matrix(5.555556,0,0,5.555556,0,0.000014)">
                                <g>
                                    <clipPath id="_clip6">
                                        <path d="M540.605,227.668L672.043,244.512L669.422,264.973L537.984,248.129L540.605,227.668Z"/>
                                    </clipPath>
                                    <g clip-path="url(#_clip6)">
                                        <g transform="matrix(1,0,0,1,537,227)">
                                            <g>
                                                <g>
                                                    <g>
                                                        <clipPath id="_clip7">
                                                            <path d="M3.605,0.668L135.043,17.512L132.422,37.973L0.984,21.129L3.605,0.668Z"/>
                                                        </clipPath>
                                                        <g clip-path="url(#_clip7)">
                                                            <path d="M3.605,0.668L135.008,17.508L132.387,37.969L0.984,21.129L3.605,0.668Z" style="fill-rule:nonzero;"/>
                                                        </g>
                                                    </g>
                                                </g>
                                            </g>
                                        </g>
                                    </g>
                                </g>
                            </g>
                            <g transform="matrix(5.555556,0,0,5.555556,0,0.000014)">
                                <g>
                                    <g transform="matrix(1,0,0,1,599,244)">
                                        <g>
                                            <g>
                                                <g>
                                                    <path d="M0.445,40.766L55.645,0.484L70.523,20.879L15.324,61.156L0.445,40.766Z" style="fill-rule:nonzero;"/>
                                                </g>
                                            </g>
                                        </g>
                                    </g>
                                </g>
                            </g>
                            <g transform="matrix(5.555556,0,0,5.555556,0,0.000014)">
                                <g>
                                    <g transform="matrix(1,0,0,1,78,244)">
                                        <g>
                                            <g>
                                                <g>
                                                    <path d="M15.891,0.488L76.93,50.207L61.535,69.102L0.5,19.383L15.891,0.488Z" style="fill-rule:nonzero;"/>
                                                </g>
                                            </g>
                                        </g>
                                    </g>
                                </g>
                            </g>
                            <g transform="matrix(5.555556,0,0,5.555556,0,0.000014)">
                                <g>
                                    <g transform="matrix(1,0,0,1,102,247)">
                                        <g>
                                            <g>
                                                <g>
                                                    <path d="M10.699,0.273L29.035,15.211L18.73,27.863L0.395,12.926L10.699,0.273Z" style="fill-rule:nonzero;"/>
                                                </g>
                                            </g>
                                        </g>
                                    </g>
                                </g>
                            </g>
                            <g transform="matrix(5.555556,0,0,5.555556,0,0.000014)">
                                <g>
                                    <clipPath id="_clip8">
                                        <path d="M629.312,249.613L647.629,264.531L637.324,277.184L619.008,262.266L629.312,249.613Z"/>
                                    </clipPath>
                                    <g clip-path="url(#_clip8)">
                                        <g transform="matrix(1,0,0,1,619,249)">
                                            <g>
                                                <g>
                                                    <g>
                                                        <clipPath id="_clip9">
                                                            <path d="M10.312,0.613L28.629,15.531L18.324,28.184L0.008,13.266L10.312,0.613Z"/>
                                                        </clipPath>
                                                        <g clip-path="url(#_clip9)">
                                                            <path d="M10.312,0.613L28.648,15.547L18.344,28.199L0.008,13.266L10.312,0.613Z" style="fill-rule:nonzero;"/>
                                                        </g>
                                                    </g>
                                                </g>
                                            </g>
                                        </g>
                                    </g>
                                </g>
                            </g>
                            <g transform="matrix(5.555556,0,0,5.555556,1166.666667,244.444458)">
                                <g>
                                    <g>
                                        <g transform="matrix(1,0,0,1,31.188251,115.946517)">
                                            <g>
                                                <path d="M-4.406,-39.422L8,-45.641L12.125,-37.422L-0.281,-31.203L8.172,-14.391L23.766,-22.219L27.891,-14.016L3.281,-1.656L-25.578,-59.078L-0.969,-71.438L3.156,-63.25L-12.438,-55.422L-4.406,-39.422Z" style="fill-rule:nonzero;"/>
                                            </g>
                                        </g>
                                    </g>
                                    <g>
                                        <g transform="matrix(1,0,0,1,66.169252,98.118881)">
                                            <g>
                                                <path d="M18.75,-24.984L12.406,-70.688L25.875,-74.672L44.109,-13.047L34.953,-10.344L21.875,-54.547L28.25,-8.359L19.109,-5.656L-1.016,-47.094L11.875,-3.516L3.438,-1.016L-14.797,-62.641L-1.328,-66.625L18.75,-24.984Z" style="fill-rule:nonzero;"/>
                                            </g>
                                        </g>
                                    </g>
                                    <g>
                                        <g transform="matrix(1,0,0,1,119.230334,83.621747)">
                                            <g>
                                                <path d="M11.484,-65.891C16.535,-66.441 20.438,-65.516 23.188,-63.109C25.945,-60.703 27.609,-56.914 28.172,-51.75L29.078,-43.438C29.641,-38.258 28.832,-34.195 26.656,-31.25C24.488,-28.301 20.879,-26.551 15.828,-26L11.078,-25.484L13.688,-1.484L3.656,-0.391L-3.297,-64.281L11.484,-65.891ZM7.734,-56.25L10.078,-34.609L14.828,-35.125C16.41,-35.301 17.582,-35.863 18.344,-36.812C19.102,-37.77 19.352,-39.398 19.094,-41.703L18.062,-51.297C17.812,-53.598 17.211,-55.129 16.266,-55.891C15.328,-56.648 14.066,-56.941 12.484,-56.766L7.734,-56.25Z" style="fill-rule:nonzero;"/>
                                            </g>
                                        </g>
                                    </g>
                                    <g>
                                        <g transform="matrix(1,0,0,1,159.505273,79.633732)">
                                            <g>
                                                <path d="M13.641,-14.141C13.535,-11.816 13.93,-10.16 14.828,-9.172C15.734,-8.18 16.977,-7.645 18.562,-7.562C20.145,-7.488 21.43,-7.898 22.422,-8.797C23.422,-9.703 23.973,-11.316 24.078,-13.641L25.734,-48.297C25.848,-50.617 25.453,-52.281 24.547,-53.281C23.648,-54.281 22.41,-54.816 20.828,-54.891C19.242,-54.973 17.953,-54.555 16.953,-53.641C15.961,-52.734 15.41,-51.117 15.297,-48.797L13.641,-14.141ZM5.172,-48.641C5.422,-53.836 6.926,-57.766 9.688,-60.422C12.445,-63.078 16.305,-64.285 21.266,-64.047C26.211,-63.816 29.938,-62.242 32.438,-59.328C34.938,-56.422 36.062,-52.367 35.812,-47.172L34.219,-13.797C33.969,-8.598 32.457,-4.672 29.688,-2.016C26.926,0.629 23.07,1.836 18.125,1.609C13.164,1.367 9.438,-0.203 6.938,-3.109C4.445,-6.016 3.328,-10.066 3.578,-15.266L5.172,-48.641ZM32.703,-76.375L22.859,-66.656L16.078,-66.984L22.797,-76.859L32.703,-76.375Z" style="fill-rule:nonzero;"/>
                                            </g>
                                        </g>
                                    </g>
                                    <g>
                                        <g transform="matrix(1,0,0,1,201.564479,82.087551)">
                                            <g>
                                                <path d="M24.266,5.125C24.223,4.676 24.18,4.254 24.141,3.859C24.098,3.473 24.086,3.004 24.109,2.453C24.141,1.91 24.227,1.211 24.375,0.359C24.52,-0.492 24.723,-1.547 24.984,-2.797L27.078,-12.688C27.691,-15.625 27.613,-17.797 26.844,-19.203C26.082,-20.617 24.566,-21.566 22.297,-22.047L18.875,-22.766L13.469,2.844L3.594,0.766L16.859,-62.109L31.766,-58.969C36.922,-57.883 40.395,-55.898 42.188,-53.016C43.988,-50.141 44.379,-46.273 43.359,-41.422L42.312,-36.484C40.945,-30.004 37.895,-26.211 33.156,-25.109C35.457,-23.555 36.828,-21.523 37.266,-19.016C37.711,-16.516 37.586,-13.617 36.891,-10.328L34.844,-0.609C34.52,0.93 34.297,2.301 34.172,3.5C34.047,4.695 34.098,5.941 34.328,7.234L24.266,5.125ZM24.844,-51.062L20.766,-31.734L24.641,-30.922C26.492,-30.523 28.047,-30.695 29.297,-31.438C30.547,-32.176 31.438,-33.805 31.969,-36.328L33.281,-42.531C33.758,-44.801 33.703,-46.531 33.109,-47.719C32.516,-48.914 31.348,-49.695 29.609,-50.062L24.844,-51.062Z" style="fill-rule:nonzero;"/>
                                            </g>
                                        </g>
                                    </g>
                                    <g>
                                        <g transform="matrix(1,0,0,1,243.739472,92.036867)">
                                            <g>
                                                <path d="M24.594,-59.484L34.125,-56.156L13,4.531L3.469,1.203L24.594,-59.484Z" style="fill-rule:nonzero;"/>
                                            </g>
                                        </g>
                                    </g>
                                    <g>
                                        <g transform="matrix(1,0,0,1,266.421606,99.734105)">
                                            <g>
                                                <path d="M18.172,-7.469C17.141,-5.383 16.836,-3.707 17.266,-2.438C17.691,-1.164 18.617,-0.176 20.047,0.531C21.473,1.238 22.82,1.379 24.094,0.953C25.363,0.523 26.516,-0.727 27.547,-2.812L42.984,-33.891C44.016,-35.973 44.316,-37.648 43.891,-38.922C43.473,-40.203 42.551,-41.195 41.125,-41.906C39.695,-42.613 38.344,-42.75 37.062,-42.312C35.789,-41.883 34.641,-40.629 33.609,-38.547L18.172,-7.469ZM24.281,-42.469C26.594,-47.125 29.547,-50.113 33.141,-51.438C36.734,-52.758 40.754,-52.316 45.203,-50.109C49.641,-47.91 52.414,-44.977 53.531,-41.312C54.656,-37.645 54.062,-33.484 51.75,-28.828L36.875,1.094C34.562,5.75 31.602,8.738 28,10.062C24.406,11.383 20.391,10.945 15.953,8.75C11.504,6.539 8.723,3.602 7.609,-0.062C6.492,-3.727 7.094,-7.891 9.406,-12.547L24.281,-42.469Z" style="fill-rule:nonzero;"/>
                                            </g>
                                        </g>
                                    </g>
                                </g>
                            </g>
                            <g transform="matrix(5.555556,0,0,5.555556,811.111111,3055.555569)">
                                <g>
                                    <g>
                                        <g transform="matrix(1,0,0,1,13.985266,43.342685)">
                                            <g>
                                                <path d="M40.062,-37.938L50.047,-28.547C53.211,-25.555 54.773,-22.492 54.734,-19.359C54.703,-16.223 53.16,-13.031 50.109,-9.781L30.984,10.5C27.93,13.75 24.836,15.484 21.703,15.703C18.578,15.922 15.43,14.535 12.266,11.547L2.281,2.156L40.062,-37.938ZM40.969,-26.281L14,2.359L17.547,5.703C18.547,6.641 19.598,7.094 20.703,7.062C21.816,7.031 23.055,6.289 24.422,4.844L44.078,-16.016C45.441,-17.461 46.102,-18.742 46.062,-19.859C46.031,-20.973 45.516,-22 44.516,-22.938L40.969,-26.281Z" style="fill-rule:nonzero;"/>
                                            </g>
                                        </g>
                                    </g>
                                    <g>
                                        <g transform="matrix(1,0,0,1,45.41806,71.499279)">
                                            <g>
                                                <path d="M35.516,-42.234L42.453,-37.031L9.453,7.078L2.516,1.875L35.516,-42.234Z" style="fill-rule:nonzero;"/>
                                            </g>
                                        </g>
                                    </g>
                                    <g>
                                        <g transform="matrix(1,0,0,1,65.513059,86.343135)">
                                            <g>
                                                <path d="M23.062,-35C25.332,-38.844 27.988,-41.25 31.031,-42.219C34.07,-43.195 37.422,-42.602 41.078,-40.438C44.742,-38.281 46.883,-35.633 47.5,-32.5C48.113,-29.363 47.285,-25.875 45.016,-22.031L44.141,-20.547L37.094,-24.719L38.25,-26.672C39.258,-28.391 39.645,-29.789 39.406,-30.875C39.164,-31.957 38.457,-32.848 37.281,-33.547C36.102,-34.234 34.977,-34.422 33.906,-34.109C32.844,-33.805 31.805,-32.797 30.797,-31.078C29.836,-29.461 29.348,-27.816 29.328,-26.141C29.316,-24.473 29.531,-22.766 29.969,-21.016C30.406,-19.266 30.914,-17.469 31.5,-15.625C32.082,-13.789 32.523,-11.895 32.828,-9.938C33.141,-7.977 33.164,-5.953 32.906,-3.859C32.645,-1.766 31.844,0.41 30.5,2.672C28.238,6.504 25.562,8.895 22.469,9.844C19.383,10.789 16.016,10.18 12.359,8.016C8.703,5.859 6.539,3.195 5.875,0.031C5.219,-3.125 6.02,-6.617 8.281,-10.453L10.016,-13.375L17.062,-9.203L15.062,-5.812C14.039,-4.102 13.676,-2.703 13.969,-1.609C14.27,-0.516 15.008,0.379 16.188,1.078C17.363,1.766 18.5,1.973 19.594,1.703C20.695,1.441 21.758,0.457 22.781,-1.25C23.738,-2.875 24.223,-4.52 24.234,-6.188C24.254,-7.863 24.047,-9.57 23.609,-11.312C23.172,-13.062 22.66,-14.859 22.078,-16.703C21.492,-18.547 21.039,-20.441 20.719,-22.391C20.406,-24.336 20.383,-26.359 20.656,-28.453C20.926,-30.555 21.727,-32.738 23.062,-35Z" style="fill-rule:nonzero;"/>
                                            </g>
                                        </g>
                                    </g>
                                    <g>
                                        <g transform="matrix(1,0,0,1,100.251578,106.009955)">
                                            <g>
                                                <path d="M22.109,-50.453L46.75,-40L43.672,-32.766L35.344,-36.297L16.891,7.172L8.922,3.781L27.375,-39.688L19.031,-43.219L22.109,-50.453Z" style="fill-rule:nonzero;"/>
                                            </g>
                                        </g>
                                    </g>
                                    <g>
                                        <g transform="matrix(1,0,0,1,136.002709,120.543239)">
                                            <g>
                                                <path d="M20.5,5.578C20.5,5.191 20.488,4.832 20.469,4.5C20.445,4.164 20.461,3.766 20.516,3.297C20.566,2.828 20.676,2.234 20.844,1.516C21.008,0.797 21.238,-0.094 21.531,-1.156L23.797,-9.5C24.473,-11.988 24.516,-13.859 23.922,-15.109C23.336,-16.359 22.086,-17.25 20.172,-17.781L17.297,-18.562L11.406,3.094L3.031,0.828L17.484,-52.328L30.109,-48.906C34.453,-47.719 37.32,-45.848 38.719,-43.297C40.125,-40.742 40.27,-37.414 39.156,-33.312L38.031,-29.141C36.539,-23.672 33.738,-20.57 29.625,-19.844C31.52,-18.406 32.594,-16.602 32.844,-14.438C33.102,-12.27 32.852,-9.797 32.094,-7.016L29.859,1.188C29.504,2.5 29.242,3.66 29.078,4.672C28.91,5.691 28.891,6.766 29.016,7.891L20.5,5.578ZM23.797,-42.469L19.359,-26.141L22.609,-25.25C24.172,-24.82 25.504,-24.891 26.609,-25.453C27.723,-26.023 28.57,-27.379 29.156,-29.516L30.578,-34.766C31.098,-36.68 31.133,-38.16 30.688,-39.203C30.238,-40.242 29.281,-40.969 27.812,-41.375L23.797,-42.469Z" style="fill-rule:nonzero;"/>
                                            </g>
                                        </g>
                                    </g>
                                    <g>
                                        <g transform="matrix(1,0,0,1,176.512973,130.485803)">
                                            <g>
                                                <path d="M11.5,-53.969L20.062,-52.656L11.672,1.797L3.109,0.484L11.5,-53.969Z" style="fill-rule:nonzero;"/>
                                            </g>
                                        </g>
                                    </g>
                                    <g>
                                        <g transform="matrix(1,0,0,1,201.313199,134.217345)">
                                            <g>
                                                <path d="M18.406,-54.406C22.914,-54.219 26.133,-53.035 28.062,-50.859C30,-48.68 30.879,-45.473 30.703,-41.234L30.625,-39.266C30.508,-36.43 29.969,-34.113 29,-32.312C28.039,-30.508 26.578,-29.203 24.609,-28.391C26.941,-27.41 28.547,-25.891 29.422,-23.828C30.305,-21.773 30.691,-19.281 30.578,-16.344L30.391,-11.859C30.223,-7.617 28.992,-4.426 26.703,-2.281C24.422,-0.145 21.102,0.836 16.75,0.672L3.141,0.125L5.344,-54.922L18.406,-54.406ZM12.781,-24.312L12.109,-7.406L17.062,-7.203C18.531,-7.148 19.66,-7.5 20.453,-8.25C21.242,-9 21.68,-10.395 21.766,-12.438L21.953,-17.25C22.055,-19.812 21.691,-21.582 20.859,-22.562C20.035,-23.539 18.625,-24.07 16.625,-24.156L12.781,-24.312ZM13.688,-46.719L13.094,-32.156L16.469,-32.016C18.094,-31.953 19.383,-32.32 20.344,-33.125C21.301,-33.938 21.82,-35.441 21.906,-37.641L22.031,-40.719C22.113,-42.707 21.816,-44.16 21.141,-45.078C20.473,-45.992 19.379,-46.484 17.859,-46.547L13.688,-46.719Z" style="fill-rule:nonzero;"/>
                                            </g>
                                        </g>
                                    </g>
                                    <g>
                                        <g transform="matrix(1,0,0,1,243.955966,135.134415)">
                                            <g>
                                                <path d="M5.703,-55.969L10.047,-13.703C10.254,-11.723 10.805,-10.379 11.703,-9.672C12.598,-8.973 13.723,-8.691 15.078,-8.828C16.43,-8.973 17.473,-9.477 18.203,-10.344C18.93,-11.219 19.191,-12.645 18.984,-14.625L14.641,-56.891L22.766,-57.719L27.062,-16C27.52,-11.562 26.789,-8.047 24.875,-5.453C22.957,-2.859 19.883,-1.344 15.656,-0.906C11.426,-0.469 8.102,-1.32 5.688,-3.469C3.281,-5.625 1.848,-8.922 1.391,-13.359L-2.906,-55.078L5.703,-55.969Z" style="fill-rule:nonzero;"/>
                                            </g>
                                        </g>
                                    </g>
                                    <g>
                                        <g transform="matrix(1,0,0,1,285.007089,129.876166)">
                                            <g>
                                                <path d="M-8.672,-54.5L-0.188,-56.344L11.547,-2.516L3.062,-0.672L-8.672,-54.5Z" style="fill-rule:nonzero;"/>
                                            </g>
                                        </g>
                                    </g>
                                    <g>
                                        <g transform="matrix(1,0,0,1,309.498061,124.44585)">
                                            <g>
                                                <path d="M-14.781,-53.172L-1.797,-57.578C2.316,-58.984 5.75,-58.938 8.5,-57.438C11.258,-55.938 13.359,-53.07 14.797,-48.844L23.766,-22.469C25.203,-18.238 25.285,-14.691 24.016,-11.828C22.754,-8.961 20.066,-6.828 15.953,-5.422L2.969,-1.016L-14.781,-53.172ZM-4.031,-48.516L8.656,-11.266L13.266,-12.828C14.555,-13.266 15.445,-13.984 15.938,-14.984C16.426,-15.984 16.348,-17.426 15.703,-19.312L6.484,-46.438C5.836,-48.32 5.016,-49.508 4.016,-50C3.016,-50.488 1.867,-50.516 0.578,-50.078L-4.031,-48.516Z" style="fill-rule:nonzero;"/>
                                            </g>
                                        </g>
                                    </g>
                                    <g>
                                        <g transform="matrix(1,0,0,1,349.761687,109.904137)">
                                            <g>
                                                <path d="M4.141,-16.328C5.047,-14.555 6.047,-13.488 7.141,-13.125C8.234,-12.77 9.391,-12.898 10.609,-13.516C11.816,-14.129 12.598,-14.984 12.953,-16.078C13.305,-17.18 13.031,-18.617 12.125,-20.391L-1.359,-46.906C-2.266,-48.676 -3.258,-49.738 -4.344,-50.094C-5.438,-50.445 -6.586,-50.316 -7.797,-49.703C-9.016,-49.086 -9.801,-48.234 -10.156,-47.141C-10.52,-46.047 -10.25,-44.613 -9.344,-42.844L4.141,-16.328ZM-16.812,-38.438C-18.832,-42.406 -19.379,-45.961 -18.453,-49.109C-17.523,-52.254 -15.164,-54.789 -11.375,-56.719C-7.594,-58.645 -4.148,-59.055 -1.047,-57.953C2.047,-56.859 4.602,-54.328 6.625,-50.359L19.609,-24.812C21.629,-20.844 22.172,-17.281 21.234,-14.125C20.305,-10.969 17.953,-8.426 14.172,-6.5C10.379,-4.57 6.938,-4.16 3.844,-5.266C0.75,-6.379 -1.805,-8.922 -3.828,-12.891L-16.812,-38.438Z" style="fill-rule:nonzero;"/>
                                            </g>
                                        </g>
                                    </g>
                                    <g>
                                        <g transform="matrix(1,0,0,1,386.721014,90.270982)">
                                            <g>
                                                <path d="M17.391,-12.219C17.098,-12.457 16.816,-12.676 16.547,-12.875C16.273,-13.082 15.973,-13.352 15.641,-13.688C15.305,-14.02 14.914,-14.477 14.469,-15.062C14.031,-15.656 13.492,-16.398 12.859,-17.297L7.891,-24.391C6.41,-26.492 5,-27.719 3.656,-28.062C2.32,-28.406 0.844,-28.004 -0.781,-26.859L-3.219,-25.156L9.672,-6.797L2.562,-1.812L-29.109,-46.891L-18.406,-54.406C-14.707,-57 -11.426,-58.016 -8.562,-57.453C-5.707,-56.898 -3.062,-54.891 -0.625,-51.422L1.875,-47.875C5.125,-43.238 5.719,-39.102 3.656,-35.469C5.977,-36.008 8.051,-35.68 9.875,-34.484C11.695,-33.297 13.438,-31.52 15.094,-29.156L19.984,-22.203C20.766,-21.086 21.492,-20.145 22.172,-19.375C22.848,-18.602 23.656,-17.906 24.594,-17.281L17.391,-12.219ZM-17.469,-45.438L-7.75,-31.594L-5,-33.531C-3.664,-34.457 -2.859,-35.523 -2.578,-36.734C-2.305,-37.953 -2.805,-39.469 -4.078,-41.281L-7.203,-45.734C-8.348,-47.359 -9.461,-48.332 -10.547,-48.656C-11.641,-48.977 -12.812,-48.703 -14.062,-47.828L-17.469,-45.438Z" style="fill-rule:nonzero;"/>
                                            </g>
                                        </g>
                                    </g>
                                    <g>
                                        <g transform="matrix(1,0,0,1,420.937995,65.30772)">
                                            <g>
                                                <path d="M22.688,-21.375L16.328,-15.391L8.375,-21.641L0.641,-14.359L6.406,-6.047L0.625,-0.594L-30.734,-46.734L-21.516,-55.422L22.688,-21.375ZM-3.688,-20.547L2.391,-26.266L-19.75,-43.672L-3.688,-20.547Z" style="fill-rule:nonzero;"/>
                                            </g>
                                        </g>
                                    </g>
                                </g>
                            </g>
                        </g>
                    </g>
                </g>
            </g>
        </g>
    </g>
</svg>
