<?xml version="1.0" encoding="UTF-8" standalone="no"?>
<!DOCTYPE svg PUBLIC "-//W3C//DTD SVG 1.1//EN" "http://www.w3.org/Graphics/SVG/1.1/DTD/svg11.dtd">
<svg width="100%" height="100%" viewBox="0 0 206 73" version="1.1" xmlns="http://www.w3.org/2000/svg" xmlns:xlink="http://www.w3.org/1999/xlink" xml:space="preserve" xmlns:serif="http://www.serif.com/" style="fill-rule:evenodd;clip-rule:evenodd;stroke-linejoin:round;stroke-miterlimit:2;">
    <g transform="matrix(1,0,0,1,-1198.204054,-5941.62183)">
        <g transform="matrix(0.099147,-0,0,0.099147,1187.936553,5842.555254)">
            <g transform="matrix(0.112014,0.000061,0.000063,-0.114214,2094.229107,1079.121798)">
                <path d="M306.383,365.949L344.684,365.949C389.359,365.949 425.531,380.844 425.531,417.016C425.531,448.93 402.121,470.207 351.059,470.207C329.789,470.207 314.887,468.078 306.383,465.949L306.383,365.949ZM304.254,170.215L223.406,170.215L223.406,519.141C255.32,523.398 299.996,529.789 357.445,529.789C423.402,529.789 453.188,519.141 476.594,502.121C497.875,487.23 512.766,461.703 512.766,427.66C512.766,385.102 480.852,357.445 440.422,344.684L440.422,340.426C474.465,329.777 491.488,302.125 502.121,255.316C512.766,202.125 521.27,182.977 527.656,170.215L442.555,170.215C431.918,182.977 425.531,212.762 414.887,255.316C408.512,291.488 387.23,308.512 342.555,308.512L304.254,308.512L304.254,170.215ZM89.363,351.059C89.363,195.738 206.383,72.344 361.703,72.344C512.766,70.215 627.656,195.738 627.656,348.93C627.656,504.25 512.766,629.785 357.445,629.785C206.383,629.785 89.363,504.25 89.363,351.059ZM717.02,351.059C717.02,155.32 559.57,0 359.574,0C159.578,0 0,155.32 0,351.059C0,546.809 159.578,700 361.703,700C559.57,700 717.02,546.809 717.02,351.059" style="fill:rgb(254,255,255);fill-rule:nonzero;"/>
            </g>
            <g transform="matrix(0.999298,0,0,1.05126,0.232606,391.243024)">
                <path d="M317.524,578.523C206.446,582.936 126.053,688.319 107.866,829.02C100.226,888.121 103.364,954.716 109.939,1005.1C119.367,1077.35 142.012,1149.045 205.669,1210.78C277.612,1280.551 370.065,1279.197 425.654,1249.772C463.291,1229.849 486.663,1200.053 502.997,1176.784C530.723,1137.285 555.162,1064.791 534.927,1023.931C516.546,986.813 492.98,982.096 463.729,976.333C437.231,971.113 379.273,983.849 359.924,1062.772C354.9,1083.266 319.991,1089.488 304.157,1042.691C296.279,1019.406 289.086,954.537 289.265,909.295C289.593,826.853 313.66,797.132 326.188,797.743C351.149,798.959 325.407,857.061 377.118,883.665C422.455,906.99 489.047,892.345 508.949,849.294C518.275,829.121 543.262,778.7 492.261,680.447C457.457,613.399 404.816,575.055 317.524,578.523Z" style="fill:rgb(254,255,255);"/>
            </g>
            <g transform="matrix(0.999298,0,0,1.048506,-0.066177,387.206669)">
                <path d="M630.594,583.676C672.459,583.217 711.294,601.506 725.08,654.212C737.104,700.184 721.135,750.893 719.218,774.244C712.052,861.519 711.691,1052.568 718.719,1061.259C725.631,1069.806 809.64,1051.448 877.51,1061.299C900.242,1064.599 937.702,1100.883 936.408,1153.399C935.509,1189.928 924.9,1237.858 857.655,1256.881C801.017,1272.903 651.48,1282.932 596.053,1270.372C559.91,1262.182 533.44,1244.792 530.293,1214.812C528.541,1198.123 538.132,1171.845 538.132,1171.845C538.132,1171.845 548.36,1200.174 560.915,1214.173C584.257,1240.201 629.092,1229.644 629.092,1229.644C629.092,1229.644 588.03,1215.033 572.896,1197.284C558.3,1180.166 552.034,1158.674 558.102,1135.408C568.276,1096.396 571.284,1084.439 567.035,1059.345C560.32,1019.686 537.415,984.563 536.554,934.725C536.024,904.052 549.815,861.776 551.161,824.873C553.849,751.157 535.187,732.842 535.4,684.042C535.752,603.382 593.723,584.08 630.594,583.676Z" style="fill:rgb(254,255,255);"/>
            </g>
            <g transform="matrix(0.999298,0,0,1.04738,-0.066177,781.10179)">
                <path d="M868.354,289.204C852.585,370.679 856.93,645.638 873.442,659.421C880.231,665.089 929.322,669.685 950.303,724.148C963.475,758.342 952.335,822.331 956.349,832.975C964.475,854.521 1037.381,897.807 1081.532,900C1171.732,904.48 1220.718,863 1259.169,808.651C1347.489,683.815 1350.493,502.919 1339.738,413.569C1331.498,345.112 1311.007,207.915 1232.524,208.327C1152.387,208.749 1110.618,285.14 1132.159,340.874C1155.111,400.259 1159.095,534.658 1148.146,591.046C1134.591,660.858 1122.931,682.208 1104.921,690.966C1086.911,699.725 1064.894,673.266 1054.294,625.241C1033.883,532.76 1048.437,458.949 1058.735,386.171C1064.593,344.776 1093.23,296.785 1060.808,255.756C1039.477,228.763 992.795,200.147 936.442,215.788C905.071,224.495 874.696,256.436 868.354,289.204Z" style="fill:rgb(254,255,255);"/>
            </g>
            <g transform="matrix(0.999298,0,0,0.954668,-0.066177,863.564302)">
                <path d="M1355.381,247.289C1383.535,164.026 1451.932,169.269 1451.932,169.269C1451.932,169.269 1430.837,157.053 1389.141,176.675C1362.319,189.297 1343.152,229.273 1343.152,229.273C1343.152,229.273 1330.21,199.265 1339.458,187.687C1347.716,177.349 1358.488,168.589 1370.518,161.604C1391.158,149.621 1415.5,142.864 1437.196,142.333C1471.538,141.492 1726.834,131.948 1716.043,364.424C1713.007,429.836 1659.658,475.808 1659.658,475.808C1659.658,475.808 1706.845,498.417 1742.09,552.188C1764.187,585.899 1766.201,657.618 1755.094,701.792C1722.631,830.902 1574.64,884.979 1499.496,898.873C1327.062,930.757 1308.503,791.399 1336.088,699.37C1414.346,438.282 1341.996,286.875 1355.381,247.289ZM1501.049,316.355C1495.601,318.537 1498.096,410.32 1499.942,410.288C1518.497,409.968 1565.212,387.268 1570.918,352.615C1577.12,314.946 1512.589,311.736 1501.049,316.355ZM1504.817,592.325C1500.604,596.977 1506.742,705.144 1512.465,707.267C1525.205,711.992 1594.959,683.869 1597.532,637.95C1599.861,596.405 1512.251,584.118 1504.817,592.325Z" style="fill:rgb(254,255,255);"/>
            </g>
            <g transform="matrix(0.999298,0,0,1.02095,-0.066177,808.947387)">
                <path d="M1921.515,186.432C2076.721,182.496 2119.456,309.89 2128.249,363.074C2138.557,425.42 2058.363,482.89 2003.429,446.146C1945.547,407.43 1983.028,385.576 1947.28,360.062C1924.557,343.844 1894.422,378.185 1907.938,407.173C1946.533,489.944 2199.409,527.286 2174.428,735.387C2166.636,800.294 2083.704,893.349 1975.907,896.145C1912.511,897.789 1843.511,876.086 1790.247,825.582C1772.355,808.617 1761.225,792.309 1765.094,774.896C1772.214,742.854 1771.33,772.297 1795.509,796.283C1823.578,824.128 1844.345,817.734 1844.345,817.734C1844.345,817.734 1722.04,724.199 1809.79,664.019C1827.153,652.111 1867.819,662.725 1867.819,662.725C1867.819,662.725 1854.75,644.719 1833.858,643.869C1803.09,642.618 1785.147,655.485 1783.127,651.027C1780.383,644.973 1782.761,633.031 1786.68,630.214C1813.738,610.758 1871.839,614.304 1893.261,646.627C1930.742,703.182 1969.559,725.541 1987.777,703.132C2012.998,672.111 1947.825,635.384 1859.694,584.031C1822.681,562.464 1750.821,500.22 1742.646,434.95C1716.063,222.693 1898.551,187.014 1921.515,186.432Z" style="fill:rgb(254,255,255);"/>
            </g>
        </g>
    </g>
</svg>
